<?xml version="1.0" encoding="UTF-8" standalone="no"?><svg xmlns="http://www.w3.org/2000/svg" xmlns:xlink="http://www.w3.org/1999/xlink" clip-rule="evenodd" stroke-miterlimit="4.00" viewBox="0 0 869 86"><desc>SVG generated by Keynote</desc><defs></defs><g transform="matrix(1.00, 0.00, -0.00, -1.00, 0.0, 86.0)"><image xlink:href="256D4DB8693B198EFE36722A4575C9FF.png" width="24.00" height="23.00" transform="matrix(1.00, 0.00, -0.00, -1.00, 2.0, 76.0)"></image><text xml:space="preserve" font-family="Helvetica-Light" font-size="24.2" fill="#EAEAEA" transform="matrix(1.00, 0.00, -0.00, -1.00, 4.0, 58.8)">•</text><image xlink:href="98EC676FA23BD8625CB6B0251A02D4A1.png" width="834.00" height="43.00" transform="matrix(1.00, 0.00, -0.00, -1.00, 32.0, 85.0)"></image><text xml:space="preserve" font-family="Helvetica-Light" font-size="32.3" fill="#EAEAEA" transform="matrix(1.00, 0.00, -0.00, -1.00, 35.0, 57.0)">T</text><text xml:space="preserve" font-family="Helvetica-Light" font-size="32.3" fill="#EAEAEA" transform="matrix(1.00, 0.00, -0.00, -1.00, 49.4, 57.0)">o</text><text xml:space="preserve" font-family="Helvetica-Light" font-size="32.3" fill="#EAEAEA" transform="matrix(1.00, 0.00, -0.00, -1.00, 67.3, 57.0)">o</text><text xml:space="preserve" font-family="Helvetica-Light" font-size="32.3" fill="#EAEAEA" transform="matrix(1.00, 0.00, -0.00, -1.00, 85.3, 57.0)"> </text><text xml:space="preserve" font-family="Helvetica-Light" font-size="32.3" fill="#EAEAEA" transform="matrix(1.00, 0.00, -0.00, -1.00, 94.3, 57.0)">m</text><text xml:space="preserve" font-family="Helvetica-Light" font-size="32.3" fill="#EAEAEA" transform="matrix(1.00, 0.00, -0.00, -1.00, 121.2, 57.0)">u</text><text xml:space="preserve" font-family="Helvetica-Light" font-size="32.3" fill="#EAEAEA" transform="matrix(1.00, 0.00, -0.00, -1.00, 139.1, 57.0)">c</text><text xml:space="preserve" font-family="Helvetica-Light" font-size="32.3" fill="#EAEAEA" transform="matrix(1.00, 0.00, -0.00, -1.00, 157.1, 57.0)">h</text><text xml:space="preserve" font-family="Helvetica-Light" font-size="32.3" fill="#EAEAEA" transform="matrix(1.00, 0.00, -0.00, -1.00, 175.1, 57.0)"> </text><text xml:space="preserve" font-family="Helvetica-Light" font-size="32.3" fill="#EAEAEA" transform="matrix(1.00, 0.00, -0.00, -1.00, 184.0, 57.0)">i</text><text xml:space="preserve" font-family="Helvetica-Light" font-size="32.3" fill="#EAEAEA" transform="matrix(1.00, 0.00, -0.00, -1.00, 191.2, 57.0)">n</text><text xml:space="preserve" font-family="Helvetica-Light" font-size="32.3" fill="#EAEAEA" transform="matrix(1.00, 0.00, -0.00, -1.00, 209.2, 57.0)">f</text><text xml:space="preserve" font-family="Helvetica-Light" font-size="32.3" fill="#EAEAEA" transform="matrix(1.00, 0.00, -0.00, -1.00, 218.1, 57.0)">o</text><text xml:space="preserve" font-family="Helvetica-Light" font-size="32.3" fill="#EAEAEA" transform="matrix(1.00, 0.00, -0.00, -1.00, 236.1, 57.0)">r</text><text xml:space="preserve" font-family="Helvetica-Light" font-size="32.3" fill="#EAEAEA" transform="matrix(1.00, 0.00, -0.00, -1.00, 247.4, 57.0)">m</text><text xml:space="preserve" font-family="Helvetica-Light" font-size="32.3" fill="#EAEAEA" transform="matrix(1.00, 0.00, -0.00, -1.00, 274.3, 57.0)">a</text><text xml:space="preserve" font-family="Helvetica-Light" font-size="32.3" fill="#EAEAEA" transform="matrix(1.00, 0.00, -0.00, -1.00, 292.3, 57.0)">t</text><text xml:space="preserve" font-family="Helvetica-Light" font-size="32.3" fill="#EAEAEA" transform="matrix(1.00, 0.00, -0.00, -1.00, 301.3, 57.0)">i</text><text xml:space="preserve" font-family="Helvetica-Light" font-size="32.3" fill="#EAEAEA" transform="matrix(1.00, 0.00, -0.00, -1.00, 308.5, 57.0)">o</text><text xml:space="preserve" font-family="Helvetica-Light" font-size="32.3" fill="#EAEAEA" transform="matrix(1.00, 0.00, -0.00, -1.00, 326.4, 57.0)">n</text><text xml:space="preserve" font-family="Helvetica-Light" font-size="32.3" fill="#EAEAEA" transform="matrix(1.00, 0.00, -0.00, -1.00, 344.4, 57.0)"> </text><text xml:space="preserve" font-family="Helvetica-Light" font-size="32.3" fill="#EAEAEA" transform="matrix(1.00, 0.00, -0.00, -1.00, 353.3, 57.0)">f</text><text xml:space="preserve" font-family="Helvetica-Light" font-size="32.3" fill="#EAEAEA" transform="matrix(1.00, 0.00, -0.00, -1.00, 362.3, 57.0)">o</text><text xml:space="preserve" font-family="Helvetica-Light" font-size="32.3" fill="#EAEAEA" transform="matrix(1.00, 0.00, -0.00, -1.00, 380.3, 57.0)">r</text><text xml:space="preserve" font-family="Helvetica-Light" font-size="32.3" fill="#EAEAEA" transform="matrix(1.00, 0.00, -0.00, -1.00, 391.0, 57.0)"> </text><text xml:space="preserve" font-family="Helvetica-Light" font-size="32.3" fill="#EAEAEA" transform="matrix(1.00, 0.00, -0.00, -1.00, 400.0, 57.0)">t</text><text xml:space="preserve" font-family="Helvetica-Light" font-size="32.3" fill="#EAEAEA" transform="matrix(1.00, 0.00, -0.00, -1.00, 409.0, 57.0)">h</text><text xml:space="preserve" font-family="Helvetica-Light" font-size="32.3" fill="#EAEAEA" transform="matrix(1.00, 0.00, -0.00, -1.00, 427.0, 57.0)">e</text><text xml:space="preserve" font-family="Helvetica-Light" font-size="32.3" fill="#EAEAEA" transform="matrix(1.00, 0.00, -0.00, -1.00, 444.9, 57.0)"> </text><text xml:space="preserve" font-family="Helvetica-Light" font-size="32.3" fill="#EAEAEA" transform="matrix(1.00, 0.00, -0.00, -1.00, 453.9, 57.0)">s</text><text xml:space="preserve" font-family="Helvetica-Light" font-size="32.3" fill="#EAEAEA" transform="matrix(1.00, 0.00, -0.00, -1.00, 470.0, 57.0)">e</text><text xml:space="preserve" font-family="Helvetica-Light" font-size="32.3" fill="#EAEAEA" transform="matrix(1.00, 0.00, -0.00, -1.00, 488.0, 57.0)">r</text><text xml:space="preserve" font-family="Helvetica-Light" font-size="32.3" fill="#EAEAEA" transform="matrix(1.00, 0.00, -0.00, -1.00, 498.8, 57.0)">v</text><text xml:space="preserve" font-family="Helvetica-Light" font-size="32.3" fill="#EAEAEA" transform="matrix(1.00, 0.00, -0.00, -1.00, 514.9, 57.0)">e</text><text xml:space="preserve" font-family="Helvetica-Light" font-size="32.3" fill="#EAEAEA" transform="matrix(1.00, 0.00, -0.00, -1.00, 532.9, 57.0)">r</text><text xml:space="preserve" font-family="Helvetica-Light" font-size="32.3" fill="#EAEAEA" transform="matrix(1.00, 0.00, -0.00, -1.00, 543.6, 57.0)"> </text><text xml:space="preserve" font-family="Helvetica-Light" font-size="32.3" fill="#EAEAEA" transform="matrix(1.00, 0.00, -0.00, -1.00, 552.6, 57.0)">t</text><text xml:space="preserve" font-family="Helvetica-Light" font-size="32.3" fill="#EAEAEA" transform="matrix(1.00, 0.00, -0.00, -1.00, 561.6, 57.0)">o</text><text xml:space="preserve" font-family="Helvetica-Light" font-size="32.3" fill="#EAEAEA" transform="matrix(1.00, 0.00, -0.00, -1.00, 579.5, 57.0)"> </text><text xml:space="preserve" font-family="Helvetica-Light" font-size="32.3" fill="#EAEAEA" transform="matrix(1.00, 0.00, -0.00, -1.00, 588.5, 57.0)">i</text><text xml:space="preserve" font-family="Helvetica-Light" font-size="32.3" fill="#EAEAEA" transform="matrix(1.00, 0.00, -0.00, -1.00, 595.7, 57.0)">n</text><text xml:space="preserve" font-family="Helvetica-Light" font-size="32.3" fill="#EAEAEA" transform="matrix(1.00, 0.00, -0.00, -1.00, 613.7, 57.0)">t</text><text xml:space="preserve" font-family="Helvetica-Light" font-size="32.3" fill="#EAEAEA" transform="matrix(1.00, 0.00, -0.00, -1.00, 622.6, 57.0)">e</text><text xml:space="preserve" font-family="Helvetica-Light" font-size="32.3" fill="#EAEAEA" transform="matrix(1.00, 0.00, -0.00, -1.00, 640.6, 57.0)">r</text><text xml:space="preserve" font-family="Helvetica-Light" font-size="32.3" fill="#EAEAEA" transform="matrix(1.00, 0.00, -0.00, -1.00, 651.9, 57.0)">m</text><text xml:space="preserve" font-family="Helvetica-Light" font-size="32.3" fill="#EAEAEA" transform="matrix(1.00, 0.00, -0.00, -1.00, 678.8, 57.0)">e</text><text xml:space="preserve" font-family="Helvetica-Light" font-size="32.3" fill="#EAEAEA" transform="matrix(1.00, 0.00, -0.00, -1.00, 696.8, 57.0)">d</text><text xml:space="preserve" font-family="Helvetica-Light" font-size="32.3" fill="#EAEAEA" transform="matrix(1.00, 0.00, -0.00, -1.00, 716.5, 57.0)">i</text><text xml:space="preserve" font-family="Helvetica-Light" font-size="32.3" fill="#EAEAEA" transform="matrix(1.00, 0.00, -0.00, -1.00, 723.7, 57.0)">a</text><text xml:space="preserve" font-family="Helvetica-Light" font-size="32.3" fill="#EAEAEA" transform="matrix(1.00, 0.00, -0.00, -1.00, 741.7, 57.0)">t</text><text xml:space="preserve" font-family="Helvetica-Light" font-size="32.3" fill="#EAEAEA" transform="matrix(1.00, 0.00, -0.00, -1.00, 750.6, 57.0)">e</text><text xml:space="preserve" font-family="Helvetica-Light" font-size="32.3" fill="#EAEAEA" transform="matrix(1.00, 0.00, -0.00, -1.00, 768.6, 57.0)">,</text><text xml:space="preserve" font-family="Helvetica-Light" font-size="32.3" fill="#EAEAEA" transform="matrix(1.00, 0.00, -0.00, -1.00, 777.6, 57.0)"> </text><text xml:space="preserve" font-family="Helvetica-Light" font-size="32.3" fill="#EAEAEA" transform="matrix(1.00, 0.00, -0.00, -1.00, 786.6, 57.0)">e</text><text xml:space="preserve" font-family="Helvetica-Light" font-size="32.3" fill="#EAEAEA" transform="matrix(1.00, 0.00, -0.00, -1.00, 804.5, 57.0)">v</text><text xml:space="preserve" font-family="Helvetica-Light" font-size="32.3" fill="#EAEAEA" transform="matrix(1.00, 0.00, -0.00, -1.00, 820.7, 57.0)">e</text><text xml:space="preserve" font-family="Helvetica-Light" font-size="32.3" fill="#EAEAEA" transform="matrix(1.00, 0.00, -0.00, -1.00, 838.6, 57.0)">n</text><text xml:space="preserve" font-family="Helvetica-Light" font-size="32.3" fill="#EAEAEA" transform="matrix(1.00, 0.00, -0.00, -1.00, 856.6, 57.0)"> </text><image xlink:href="D2E0D76DFD5D216403FF55A9D3430933.png" width="602.00" height="45.00" transform="matrix(1.00, 0.00, -0.00, -1.00, 32.0, 47.0)"></image><text xml:space="preserve" font-family="Helvetica-Light" font-size="32.3" fill="#EAEAEA" transform="matrix(1.00, 0.00, -0.00, -1.00, 35.0, 19.0)">w</text><text xml:space="preserve" font-family="Helvetica-Light" font-size="32.3" fill="#EAEAEA" transform="matrix(1.00, 0.00, -0.00, -1.00, 58.3, 19.0)">i</text><text xml:space="preserve" font-family="Helvetica-Light" font-size="32.3" fill="#EAEAEA" transform="matrix(1.00, 0.00, -0.00, -1.00, 65.5, 19.0)">t</text><text xml:space="preserve" font-family="Helvetica-Light" font-size="32.3" fill="#EAEAEA" transform="matrix(1.00, 0.00, -0.00, -1.00, 74.5, 19.0)">h</text><text xml:space="preserve" font-family="Helvetica-Light" font-size="32.3" fill="#EAEAEA" transform="matrix(1.00, 0.00, -0.00, -1.00, 92.4, 19.0)"> </text><text xml:space="preserve" font-family="Helvetica-Light" font-size="32.3" fill="#EAEAEA" transform="matrix(1.00, 0.00, -0.00, -1.00, 101.4, 19.0)">f</text><text xml:space="preserve" font-family="Helvetica-Light" font-size="32.3" fill="#EAEAEA" transform="matrix(1.00, 0.00, -0.00, -1.00, 110.4, 19.0)">a</text><text xml:space="preserve" font-family="Helvetica-Light" font-size="32.3" fill="#EAEAEA" transform="matrix(1.00, 0.00, -0.00, -1.00, 128.3, 19.0)">s</text><text xml:space="preserve" font-family="Helvetica-Light" font-size="32.3" fill="#EAEAEA" transform="matrix(1.00, 0.00, -0.00, -1.00, 144.5, 19.0)">t</text><text xml:space="preserve" font-family="Helvetica-Light" font-size="32.3" fill="#EAEAEA" transform="matrix(1.00, 0.00, -0.00, -1.00, 153.5, 19.0)"> </text><text xml:space="preserve" font-family="Helvetica-Light" font-size="32.3" fill="#EAEAEA" transform="matrix(1.00, 0.00, -0.00, -1.00, 162.5, 19.0)">l</text><text xml:space="preserve" font-family="Helvetica-Light" font-size="32.3" fill="#EAEAEA" transform="matrix(1.00, 0.00, -0.00, -1.00, 169.6, 19.0)">i</text><text xml:space="preserve" font-family="Helvetica-Light" font-size="32.3" fill="#EAEAEA" transform="matrix(1.00, 0.00, -0.00, -1.00, 176.8, 19.0)">n</text><text xml:space="preserve" font-family="Helvetica-Light" font-size="32.3" fill="#EAEAEA" transform="matrix(1.00, 0.00, -0.00, -1.00, 194.8, 19.0)">k</text><text xml:space="preserve" font-family="Helvetica-Light" font-size="32.3" fill="#EAEAEA" transform="matrix(1.00, 0.00, -0.00, -1.00, 210.9, 19.0)">.</text><text xml:space="preserve" font-family="Helvetica-Light" font-size="32.3" fill="#EAEAEA" transform="matrix(1.00, 0.00, -0.00, -1.00, 219.9, 19.0)"> </text><text xml:space="preserve" font-family="Helvetica-Light" font-size="32.3" fill="#EAEAEA" transform="matrix(1.00, 0.00, -0.00, -1.00, 228.9, 19.0)">P</text><text xml:space="preserve" font-family="Helvetica-Light" font-size="32.3" fill="#EAEAEA" transform="matrix(1.00, 0.00, -0.00, -1.00, 248.6, 19.0)">a</text><text xml:space="preserve" font-family="Helvetica-Light" font-size="32.3" fill="#EAEAEA" transform="matrix(1.00, 0.00, -0.00, -1.00, 266.6, 19.0)">r</text><text xml:space="preserve" font-family="Helvetica-Light" font-size="32.3" fill="#EAEAEA" transform="matrix(1.00, 0.00, -0.00, -1.00, 277.3, 19.0)">a</text><text xml:space="preserve" font-family="Helvetica-Light" font-size="32.3" fill="#EAEAEA" transform="matrix(1.00, 0.00, -0.00, -1.00, 295.3, 19.0)">d</text><text xml:space="preserve" font-family="Helvetica-Light" font-size="32.3" fill="#EAEAEA" transform="matrix(1.00, 0.00, -0.00, -1.00, 315.0, 19.0)">i</text><text xml:space="preserve" font-family="Helvetica-Light" font-size="32.3" fill="#EAEAEA" transform="matrix(1.00, 0.00, -0.00, -1.00, 322.2, 19.0)">g</text><text xml:space="preserve" font-family="Helvetica-Light" font-size="32.3" fill="#EAEAEA" transform="matrix(1.00, 0.00, -0.00, -1.00, 341.9, 19.0)">m</text><text xml:space="preserve" font-family="Helvetica-Light" font-size="32.3" fill="#EAEAEA" transform="matrix(1.00, 0.00, -0.00, -1.00, 368.8, 19.0)"> </text><text xml:space="preserve" font-family="Helvetica-Light" font-size="32.3" fill="#EAEAEA" transform="matrix(1.00, 0.00, -0.00, -1.00, 377.8, 19.0)">c</text><text xml:space="preserve" font-family="Helvetica-Light" font-size="32.3" fill="#EAEAEA" transform="matrix(1.00, 0.00, -0.00, -1.00, 395.8, 19.0)">h</text><text xml:space="preserve" font-family="Helvetica-Light" font-size="32.3" fill="#EAEAEA" transform="matrix(1.00, 0.00, -0.00, -1.00, 413.7, 19.0)">a</text><text xml:space="preserve" font-family="Helvetica-Light" font-size="32.3" fill="#EAEAEA" transform="matrix(1.00, 0.00, -0.00, -1.00, 431.7, 19.0)">n</text><text xml:space="preserve" font-family="Helvetica-Light" font-size="32.3" fill="#EAEAEA" transform="matrix(1.00, 0.00, -0.00, -1.00, 449.6, 19.0)">g</text><text xml:space="preserve" font-family="Helvetica-Light" font-size="32.3" fill="#EAEAEA" transform="matrix(1.00, 0.00, -0.00, -1.00, 469.4, 19.0)">e</text><text xml:space="preserve" font-family="Helvetica-Light" font-size="32.3" fill="#EAEAEA" transform="matrix(1.00, 0.00, -0.00, -1.00, 487.3, 19.0)"> </text><text xml:space="preserve" font-family="Helvetica-Light" font-size="32.3" fill="#EAEAEA" transform="matrix(1.00, 0.00, -0.00, -1.00, 496.3, 19.0)">r</text><text xml:space="preserve" font-family="Helvetica-Light" font-size="32.3" fill="#EAEAEA" transform="matrix(1.00, 0.00, -0.00, -1.00, 506.5, 19.0)">e</text><text xml:space="preserve" font-family="Helvetica-Light" font-size="32.3" fill="#EAEAEA" transform="matrix(1.00, 0.00, -0.00, -1.00, 524.4, 19.0)">q</text><text xml:space="preserve" font-family="Helvetica-Light" font-size="32.3" fill="#EAEAEA" transform="matrix(1.00, 0.00, -0.00, -1.00, 544.2, 19.0)">u</text><text xml:space="preserve" font-family="Helvetica-Light" font-size="32.3" fill="#EAEAEA" transform="matrix(1.00, 0.00, -0.00, -1.00, 562.1, 19.0)">i</text><text xml:space="preserve" font-family="Helvetica-Light" font-size="32.3" fill="#EAEAEA" transform="matrix(1.00, 0.00, -0.00, -1.00, 569.3, 19.0)">r</text><text xml:space="preserve" font-family="Helvetica-Light" font-size="32.3" fill="#EAEAEA" transform="matrix(1.00, 0.00, -0.00, -1.00, 579.5, 19.0)">e</text><text xml:space="preserve" font-family="Helvetica-Light" font-size="32.3" fill="#EAEAEA" transform="matrix(1.00, 0.00, -0.00, -1.00, 597.4, 19.0)">d</text><text xml:space="preserve" font-family="Helvetica-Light" font-size="32.3" fill="#EAEAEA" transform="matrix(1.00, 0.00, -0.00, -1.00, 617.2, 19.0)">.</text></g></svg>