<?xml version="1.0" encoding="UTF-8" standalone="no"?><svg xmlns="http://www.w3.org/2000/svg" xmlns:xlink="http://www.w3.org/1999/xlink" clip-rule="evenodd" stroke-miterlimit="4.00" viewBox="0 0 879 87"><desc>SVG generated by Keynote</desc><defs></defs><g transform="matrix(1.00, 0.00, -0.00, -1.00, 0.0, 87.0)"><image xlink:href="AD671E93CFE324E2A51E89E362C605FB.png" width="24.00" height="24.00" transform="matrix(1.00, 0.00, -0.00, -1.00, 2.0, 77.0)"></image><text xml:space="preserve" font-family="Helvetica-Light" font-size="24.2" fill="#EAEAEA" transform="matrix(1.00, 0.00, -0.00, -1.00, 4.0, 58.9)">•</text><image xlink:href="9CF4BFC0024DD0D0DBE201F373B5C50E.png" width="845.00" height="45.00" transform="matrix(1.00, 0.00, -0.00, -1.00, 33.0, 85.0)"></image><text xml:space="preserve" font-family="Helvetica-Light" font-size="32.3" fill="#EAEAEA" transform="matrix(1.00, 0.00, -0.00, -1.00, 35.0, 57.0)">"</text><text xml:space="preserve" font-family="Helvetica-Light" font-size="32.3" fill="#EAEAEA" transform="matrix(1.00, 0.00, -0.00, -1.00, 44.0, 57.0)">R</text><text xml:space="preserve" font-family="Helvetica-Light" font-size="32.3" fill="#EAEAEA" transform="matrix(1.00, 0.00, -0.00, -1.00, 65.5, 57.0)">i</text><text xml:space="preserve" font-family="Helvetica-Light" font-size="32.3" fill="#EAEAEA" transform="matrix(1.00, 0.00, -0.00, -1.00, 72.7, 57.0)">c</text><text xml:space="preserve" font-family="Helvetica-Light" font-size="32.3" fill="#EAEAEA" transform="matrix(1.00, 0.00, -0.00, -1.00, 90.7, 57.0)">h</text><text xml:space="preserve" font-family="Helvetica-Light" font-size="32.3" fill="#EAEAEA" transform="matrix(1.00, 0.00, -0.00, -1.00, 108.6, 57.0)"> </text><text xml:space="preserve" font-family="Helvetica-Light" font-size="32.3" fill="#EAEAEA" transform="matrix(1.00, 0.00, -0.00, -1.00, 117.6, 57.0)">W</text><text xml:space="preserve" font-family="Helvetica-Light" font-size="32.3" fill="#EAEAEA" transform="matrix(1.00, 0.00, -0.00, -1.00, 145.7, 57.0)">e</text><text xml:space="preserve" font-family="Helvetica-Light" font-size="32.3" fill="#EAEAEA" transform="matrix(1.00, 0.00, -0.00, -1.00, 163.7, 57.0)">b</text><text xml:space="preserve" font-family="Helvetica-Light" font-size="32.3" fill="#EAEAEA" transform="matrix(1.00, 0.00, -0.00, -1.00, 183.4, 57.0)">"</text><text xml:space="preserve" font-family="Helvetica-Light" font-size="32.3" fill="#EAEAEA" transform="matrix(1.00, 0.00, -0.00, -1.00, 192.4, 57.0)"> </text><text xml:space="preserve" font-family="Helvetica-Light" font-size="32.3" fill="#EAEAEA" transform="matrix(1.00, 0.00, -0.00, -1.00, 201.4, 57.0)">(</text><text xml:space="preserve" font-family="Helvetica-Light" font-size="32.3" fill="#EAEAEA" transform="matrix(1.00, 0.00, -0.00, -1.00, 212.1, 57.0)">A</text><text xml:space="preserve" font-family="Helvetica-Light" font-size="32.3" fill="#EAEAEA" transform="matrix(1.00, 0.00, -0.00, -1.00, 233.7, 57.0)">d</text><text xml:space="preserve" font-family="Helvetica-Light" font-size="32.3" fill="#EAEAEA" transform="matrix(1.00, 0.00, -0.00, -1.00, 253.4, 57.0)">o</text><text xml:space="preserve" font-family="Helvetica-Light" font-size="32.3" fill="#EAEAEA" transform="matrix(1.00, 0.00, -0.00, -1.00, 271.4, 57.0)">b</text><text xml:space="preserve" font-family="Helvetica-Light" font-size="32.3" fill="#EAEAEA" transform="matrix(1.00, 0.00, -0.00, -1.00, 291.1, 57.0)">e</text><text xml:space="preserve" font-family="Helvetica-Light" font-size="32.3" fill="#EAEAEA" transform="matrix(1.00, 0.00, -0.00, -1.00, 309.1, 57.0)"> </text><text xml:space="preserve" font-family="Helvetica-Light" font-size="32.3" fill="#EAEAEA" transform="matrix(1.00, 0.00, -0.00, -1.00, 318.0, 57.0)">F</text><text xml:space="preserve" font-family="Helvetica-Light" font-size="32.3" fill="#EAEAEA" transform="matrix(1.00, 0.00, -0.00, -1.00, 336.0, 57.0)">l</text><text xml:space="preserve" font-family="Helvetica-Light" font-size="32.3" fill="#EAEAEA" transform="matrix(1.00, 0.00, -0.00, -1.00, 343.2, 57.0)">a</text><text xml:space="preserve" font-family="Helvetica-Light" font-size="32.3" fill="#EAEAEA" transform="matrix(1.00, 0.00, -0.00, -1.00, 361.1, 57.0)">s</text><text xml:space="preserve" font-family="Helvetica-Light" font-size="32.3" fill="#EAEAEA" transform="matrix(1.00, 0.00, -0.00, -1.00, 377.3, 57.0)">h</text><text xml:space="preserve" font-family="Helvetica-Light" font-size="32.3" fill="#EAEAEA" transform="matrix(1.00, 0.00, -0.00, -1.00, 395.2, 57.0)">,</text><text xml:space="preserve" font-family="Helvetica-Light" font-size="32.3" fill="#EAEAEA" transform="matrix(1.00, 0.00, -0.00, -1.00, 404.2, 57.0)"> </text><text xml:space="preserve" font-family="Helvetica-Light" font-size="32.3" fill="#EAEAEA" transform="matrix(1.00, 0.00, -0.00, -1.00, 413.2, 57.0)">J</text><text xml:space="preserve" font-family="Helvetica-Light" font-size="32.3" fill="#EAEAEA" transform="matrix(1.00, 0.00, -0.00, -1.00, 429.4, 57.0)">a</text><text xml:space="preserve" font-family="Helvetica-Light" font-size="32.3" fill="#EAEAEA" transform="matrix(1.00, 0.00, -0.00, -1.00, 447.3, 57.0)">v</text><text xml:space="preserve" font-family="Helvetica-Light" font-size="32.3" fill="#EAEAEA" transform="matrix(1.00, 0.00, -0.00, -1.00, 463.5, 57.0)">a</text><text xml:space="preserve" font-family="Helvetica-Light" font-size="32.3" fill="#EAEAEA" transform="matrix(1.00, 0.00, -0.00, -1.00, 481.4, 57.0)"> </text><text xml:space="preserve" font-family="Helvetica-Light" font-size="32.3" fill="#EAEAEA" transform="matrix(1.00, 0.00, -0.00, -1.00, 490.4, 57.0)">A</text><text xml:space="preserve" font-family="Helvetica-Light" font-size="32.3" fill="#EAEAEA" transform="matrix(1.00, 0.00, -0.00, -1.00, 511.9, 57.0)">p</text><text xml:space="preserve" font-family="Helvetica-Light" font-size="32.3" fill="#EAEAEA" transform="matrix(1.00, 0.00, -0.00, -1.00, 531.7, 57.0)">p</text><text xml:space="preserve" font-family="Helvetica-Light" font-size="32.3" fill="#EAEAEA" transform="matrix(1.00, 0.00, -0.00, -1.00, 551.4, 57.0)">l</text><text xml:space="preserve" font-family="Helvetica-Light" font-size="32.3" fill="#EAEAEA" transform="matrix(1.00, 0.00, -0.00, -1.00, 558.6, 57.0)">e</text><text xml:space="preserve" font-family="Helvetica-Light" font-size="32.3" fill="#EAEAEA" transform="matrix(1.00, 0.00, -0.00, -1.00, 576.5, 57.0)">t</text><text xml:space="preserve" font-family="Helvetica-Light" font-size="32.3" fill="#EAEAEA" transform="matrix(1.00, 0.00, -0.00, -1.00, 585.5, 57.0)">s</text><text xml:space="preserve" font-family="Helvetica-Light" font-size="32.3" fill="#EAEAEA" transform="matrix(1.00, 0.00, -0.00, -1.00, 601.7, 57.0)">)</text><text xml:space="preserve" font-family="Helvetica-Light" font-size="32.3" fill="#EAEAEA" transform="matrix(1.00, 0.00, -0.00, -1.00, 612.4, 57.0)"> </text><text xml:space="preserve" font-family="Helvetica-Light" font-size="32.3" fill="#EAEAEA" transform="matrix(1.00, 0.00, -0.00, -1.00, 621.4, 57.0)">h</text><text xml:space="preserve" font-family="Helvetica-Light" font-size="32.3" fill="#EAEAEA" transform="matrix(1.00, 0.00, -0.00, -1.00, 639.4, 57.0)">a</text><text xml:space="preserve" font-family="Helvetica-Light" font-size="32.3" fill="#EAEAEA" transform="matrix(1.00, 0.00, -0.00, -1.00, 657.3, 57.0)">d</text><text xml:space="preserve" font-family="Helvetica-Light" font-size="32.3" fill="#EAEAEA" transform="matrix(1.00, 0.00, -0.00, -1.00, 677.1, 57.0)"> </text><text xml:space="preserve" font-family="Helvetica-Light" font-size="32.3" fill="#EAEAEA" transform="matrix(1.00, 0.00, -0.00, -1.00, 686.0, 57.0)">o</text><text xml:space="preserve" font-family="Helvetica-Light" font-size="32.3" fill="#EAEAEA" transform="matrix(1.00, 0.00, -0.00, -1.00, 704.0, 57.0)">n</text><text xml:space="preserve" font-family="Helvetica-Light" font-size="32.3" fill="#EAEAEA" transform="matrix(1.00, 0.00, -0.00, -1.00, 722.0, 57.0)">e</text><text xml:space="preserve" font-family="Helvetica-Light" font-size="32.3" fill="#EAEAEA" transform="matrix(1.00, 0.00, -0.00, -1.00, 739.9, 57.0)"> </text><text xml:space="preserve" font-family="Helvetica-Light" font-size="32.3" fill="#EAEAEA" transform="matrix(1.00, 0.00, -0.00, -1.00, 748.9, 57.0)">i</text><text xml:space="preserve" font-family="Helvetica-Light" font-size="32.3" fill="#EAEAEA" transform="matrix(1.00, 0.00, -0.00, -1.00, 756.1, 57.0)">d</text><text xml:space="preserve" font-family="Helvetica-Light" font-size="32.3" fill="#EAEAEA" transform="matrix(1.00, 0.00, -0.00, -1.00, 775.8, 57.0)">e</text><text xml:space="preserve" font-family="Helvetica-Light" font-size="32.3" fill="#EAEAEA" transform="matrix(1.00, 0.00, -0.00, -1.00, 793.8, 57.0)">a</text><text xml:space="preserve" font-family="Helvetica-Light" font-size="32.3" fill="#EAEAEA" transform="matrix(1.00, 0.00, -0.00, -1.00, 811.7, 57.0)"> </text><text xml:space="preserve" font-family="Helvetica-Light" font-size="32.3" fill="#EAEAEA" transform="matrix(1.00, 0.00, -0.00, -1.00, 820.7, 57.0)">b</text><text xml:space="preserve" font-family="Helvetica-Light" font-size="32.3" fill="#EAEAEA" transform="matrix(1.00, 0.00, -0.00, -1.00, 840.4, 57.0)">u</text><text xml:space="preserve" font-family="Helvetica-Light" font-size="32.3" fill="#EAEAEA" transform="matrix(1.00, 0.00, -0.00, -1.00, 858.4, 57.0)">t</text><text xml:space="preserve" font-family="Helvetica-Light" font-size="32.3" fill="#EAEAEA" transform="matrix(1.00, 0.00, -0.00, -1.00, 867.4, 57.0)"> </text><image xlink:href="84E816F5F2C1EE510CCC30B14AEA6157.png" width="811.00" height="45.00" transform="matrix(1.00, 0.00, -0.00, -1.00, 34.0, 47.0)"></image><text xml:space="preserve" font-family="Helvetica-Light" font-size="32.3" fill="#EAEAEA" transform="matrix(1.00, 0.00, -0.00, -1.00, 35.0, 19.0)">i</text><text xml:space="preserve" font-family="Helvetica-Light" font-size="32.3" fill="#EAEAEA" transform="matrix(1.00, 0.00, -0.00, -1.00, 42.2, 19.0)">m</text><text xml:space="preserve" font-family="Helvetica-Light" font-size="32.3" fill="#EAEAEA" transform="matrix(1.00, 0.00, -0.00, -1.00, 69.1, 19.0)">p</text><text xml:space="preserve" font-family="Helvetica-Light" font-size="32.3" fill="#EAEAEA" transform="matrix(1.00, 0.00, -0.00, -1.00, 88.8, 19.0)">l</text><text xml:space="preserve" font-family="Helvetica-Light" font-size="32.3" fill="#EAEAEA" transform="matrix(1.00, 0.00, -0.00, -1.00, 96.0, 19.0)">e</text><text xml:space="preserve" font-family="Helvetica-Light" font-size="32.3" fill="#EAEAEA" transform="matrix(1.00, 0.00, -0.00, -1.00, 113.9, 19.0)">m</text><text xml:space="preserve" font-family="Helvetica-Light" font-size="32.3" fill="#EAEAEA" transform="matrix(1.00, 0.00, -0.00, -1.00, 140.8, 19.0)">e</text><text xml:space="preserve" font-family="Helvetica-Light" font-size="32.3" fill="#EAEAEA" transform="matrix(1.00, 0.00, -0.00, -1.00, 158.8, 19.0)">n</text><text xml:space="preserve" font-family="Helvetica-Light" font-size="32.3" fill="#EAEAEA" transform="matrix(1.00, 0.00, -0.00, -1.00, 176.8, 19.0)">t</text><text xml:space="preserve" font-family="Helvetica-Light" font-size="32.3" fill="#EAEAEA" transform="matrix(1.00, 0.00, -0.00, -1.00, 185.7, 19.0)">a</text><text xml:space="preserve" font-family="Helvetica-Light" font-size="32.3" fill="#EAEAEA" transform="matrix(1.00, 0.00, -0.00, -1.00, 203.7, 19.0)">t</text><text xml:space="preserve" font-family="Helvetica-Light" font-size="32.3" fill="#EAEAEA" transform="matrix(1.00, 0.00, -0.00, -1.00, 212.7, 19.0)">i</text><text xml:space="preserve" font-family="Helvetica-Light" font-size="32.3" fill="#EAEAEA" transform="matrix(1.00, 0.00, -0.00, -1.00, 219.9, 19.0)">o</text><text xml:space="preserve" font-family="Helvetica-Light" font-size="32.3" fill="#EAEAEA" transform="matrix(1.00, 0.00, -0.00, -1.00, 237.8, 19.0)">n</text><text xml:space="preserve" font-family="Helvetica-Light" font-size="32.3" fill="#EAEAEA" transform="matrix(1.00, 0.00, -0.00, -1.00, 255.8, 19.0)"> </text><text xml:space="preserve" font-family="Helvetica-Light" font-size="32.3" fill="#EAEAEA" transform="matrix(1.00, 0.00, -0.00, -1.00, 264.7, 19.0)">t</text><text xml:space="preserve" font-family="Helvetica-Light" font-size="32.3" fill="#EAEAEA" transform="matrix(1.00, 0.00, -0.00, -1.00, 273.7, 19.0)">o</text><text xml:space="preserve" font-family="Helvetica-Light" font-size="32.3" fill="#EAEAEA" transform="matrix(1.00, 0.00, -0.00, -1.00, 291.7, 19.0)">o</text><text xml:space="preserve" font-family="Helvetica-Light" font-size="32.3" fill="#EAEAEA" transform="matrix(1.00, 0.00, -0.00, -1.00, 309.6, 19.0)"> </text><text xml:space="preserve" font-family="Helvetica-Light" font-size="32.3" fill="#EAEAEA" transform="matrix(1.00, 0.00, -0.00, -1.00, 318.6, 19.0)">h</text><text xml:space="preserve" font-family="Helvetica-Light" font-size="32.3" fill="#EAEAEA" transform="matrix(1.00, 0.00, -0.00, -1.00, 336.6, 19.0)">e</text><text xml:space="preserve" font-family="Helvetica-Light" font-size="32.3" fill="#EAEAEA" transform="matrix(1.00, 0.00, -0.00, -1.00, 354.5, 19.0)">a</text><text xml:space="preserve" font-family="Helvetica-Light" font-size="32.3" fill="#EAEAEA" transform="matrix(1.00, 0.00, -0.00, -1.00, 372.5, 19.0)">v</text><text xml:space="preserve" font-family="Helvetica-Light" font-size="32.3" fill="#EAEAEA" transform="matrix(1.00, 0.00, -0.00, -1.00, 388.7, 19.0)">y</text><text xml:space="preserve" font-family="Helvetica-Light" font-size="32.3" fill="#EAEAEA" transform="matrix(1.00, 0.00, -0.00, -1.00, 404.8, 19.0)">w</text><text xml:space="preserve" font-family="Helvetica-Light" font-size="32.3" fill="#EAEAEA" transform="matrix(1.00, 0.00, -0.00, -1.00, 428.1, 19.0)">e</text><text xml:space="preserve" font-family="Helvetica-Light" font-size="32.3" fill="#EAEAEA" transform="matrix(1.00, 0.00, -0.00, -1.00, 446.1, 19.0)">i</text><text xml:space="preserve" font-family="Helvetica-Light" font-size="32.3" fill="#EAEAEA" transform="matrix(1.00, 0.00, -0.00, -1.00, 453.3, 19.0)">g</text><text xml:space="preserve" font-family="Helvetica-Light" font-size="32.3" fill="#EAEAEA" transform="matrix(1.00, 0.00, -0.00, -1.00, 473.0, 19.0)">h</text><text xml:space="preserve" font-family="Helvetica-Light" font-size="32.3" fill="#EAEAEA" transform="matrix(1.00, 0.00, -0.00, -1.00, 490.9, 19.0)">t</text><text xml:space="preserve" font-family="Helvetica-Light" font-size="32.3" fill="#EAEAEA" transform="matrix(1.00, 0.00, -0.00, -1.00, 499.9, 19.0)">,</text><text xml:space="preserve" font-family="Helvetica-Light" font-size="32.3" fill="#EAEAEA" transform="matrix(1.00, 0.00, -0.00, -1.00, 508.9, 19.0)"> </text><text xml:space="preserve" font-family="Helvetica-Light" font-size="32.3" fill="#EAEAEA" transform="matrix(1.00, 0.00, -0.00, -1.00, 517.9, 19.0)">i</text><text xml:space="preserve" font-family="Helvetica-Light" font-size="32.3" fill="#EAEAEA" transform="matrix(1.00, 0.00, -0.00, -1.00, 525.1, 19.0)">n</text><text xml:space="preserve" font-family="Helvetica-Light" font-size="32.3" fill="#EAEAEA" transform="matrix(1.00, 0.00, -0.00, -1.00, 543.0, 19.0)">s</text><text xml:space="preserve" font-family="Helvetica-Light" font-size="32.3" fill="#EAEAEA" transform="matrix(1.00, 0.00, -0.00, -1.00, 559.2, 19.0)">e</text><text xml:space="preserve" font-family="Helvetica-Light" font-size="32.3" fill="#EAEAEA" transform="matrix(1.00, 0.00, -0.00, -1.00, 577.1, 19.0)">c</text><text xml:space="preserve" font-family="Helvetica-Light" font-size="32.3" fill="#EAEAEA" transform="matrix(1.00, 0.00, -0.00, -1.00, 595.1, 19.0)">u</text><text xml:space="preserve" font-family="Helvetica-Light" font-size="32.3" fill="#EAEAEA" transform="matrix(1.00, 0.00, -0.00, -1.00, 613.0, 19.0)">r</text><text xml:space="preserve" font-family="Helvetica-Light" font-size="32.3" fill="#EAEAEA" transform="matrix(1.00, 0.00, -0.00, -1.00, 623.2, 19.0)">e</text><text xml:space="preserve" font-family="Helvetica-Light" font-size="32.3" fill="#EAEAEA" transform="matrix(1.00, 0.00, -0.00, -1.00, 641.2, 19.0)"> </text><text xml:space="preserve" font-family="Helvetica-Light" font-size="32.3" fill="#EAEAEA" transform="matrix(1.00, 0.00, -0.00, -1.00, 650.2, 19.0)">a</text><text xml:space="preserve" font-family="Helvetica-Light" font-size="32.3" fill="#EAEAEA" transform="matrix(1.00, 0.00, -0.00, -1.00, 668.1, 19.0)">n</text><text xml:space="preserve" font-family="Helvetica-Light" font-size="32.3" fill="#EAEAEA" transform="matrix(1.00, 0.00, -0.00, -1.00, 686.1, 19.0)">d</text><text xml:space="preserve" font-family="Helvetica-Light" font-size="32.3" fill="#EAEAEA" transform="matrix(1.00, 0.00, -0.00, -1.00, 705.8, 19.0)"> </text><text xml:space="preserve" font-family="Helvetica-Light" font-size="32.3" fill="#EAEAEA" transform="matrix(1.00, 0.00, -0.00, -1.00, 714.8, 19.0)">i</text><text xml:space="preserve" font-family="Helvetica-Light" font-size="32.3" fill="#EAEAEA" transform="matrix(1.00, 0.00, -0.00, -1.00, 722.0, 19.0)">s</text><text xml:space="preserve" font-family="Helvetica-Light" font-size="32.3" fill="#EAEAEA" transform="matrix(1.00, 0.00, -0.00, -1.00, 738.1, 19.0)">o</text><text xml:space="preserve" font-family="Helvetica-Light" font-size="32.3" fill="#EAEAEA" transform="matrix(1.00, 0.00, -0.00, -1.00, 756.1, 19.0)">l</text><text xml:space="preserve" font-family="Helvetica-Light" font-size="32.3" fill="#EAEAEA" transform="matrix(1.00, 0.00, -0.00, -1.00, 763.2, 19.0)">a</text><text xml:space="preserve" font-family="Helvetica-Light" font-size="32.3" fill="#EAEAEA" transform="matrix(1.00, 0.00, -0.00, -1.00, 781.2, 19.0)">t</text><text xml:space="preserve" font-family="Helvetica-Light" font-size="32.3" fill="#EAEAEA" transform="matrix(1.00, 0.00, -0.00, -1.00, 790.2, 19.0)">e</text><text xml:space="preserve" font-family="Helvetica-Light" font-size="32.3" fill="#EAEAEA" transform="matrix(1.00, 0.00, -0.00, -1.00, 808.1, 19.0)">d</text><text xml:space="preserve" font-family="Helvetica-Light" font-size="32.3" fill="#EAEAEA" transform="matrix(1.00, 0.00, -0.00, -1.00, 827.9, 19.0)">.</text></g></svg>