<?xml version="1.0" encoding="UTF-8" standalone="no"?><svg xmlns="http://www.w3.org/2000/svg" xmlns:xlink="http://www.w3.org/1999/xlink" clip-rule="evenodd" stroke-miterlimit="4.00" viewBox="0 0 625 49"><desc>SVG generated by Keynote</desc><defs></defs><g transform="matrix(1.00, 0.00, -0.00, -1.00, 0.0, 49.0)"><image xlink:href="../../5AEDFCC1-4666-4E73-A3AE-615220AEF82B/assets/292EEE738565E5F3F2057B786C2A2E29.png" width="24.00" height="24.00" transform="matrix(1.00, 0.00, -0.00, -1.00, 2.0, 39.0)"></image><text xml:space="preserve" font-family="Helvetica-Light" font-size="24.2" fill="#EAEAEA" transform="matrix(1.00, 0.00, -0.00, -1.00, 4.0, 21.1)">•</text><image xlink:href="../../5AEDFCC1-4666-4E73-A3AE-615220AEF82B/assets/B9C8097D4305DBFAD4FCFFE03A0D4B17.png" width="591.00" height="45.00" transform="matrix(1.00, 0.00, -0.00, -1.00, 34.0, 47.0)"></image><text xml:space="preserve" font-family="Helvetica-Light" font-size="32.3" fill="#EAEAEA" transform="matrix(1.00, 0.00, -0.00, -1.00, 35.0, 19.0)">M</text><text xml:space="preserve" font-family="Helvetica-Light" font-size="32.3" fill="#EAEAEA" transform="matrix(1.00, 0.00, -0.00, -1.00, 61.9, 19.0)">o</text><text xml:space="preserve" font-family="Helvetica-Light" font-size="32.3" fill="#EAEAEA" transform="matrix(1.00, 0.00, -0.00, -1.00, 79.9, 19.0)">u</text><text xml:space="preserve" font-family="Helvetica-Light" font-size="32.3" fill="#EAEAEA" transform="matrix(1.00, 0.00, -0.00, -1.00, 97.8, 19.0)">s</text><text xml:space="preserve" font-family="Helvetica-Light" font-size="32.3" fill="#EAEAEA" transform="matrix(1.00, 0.00, -0.00, -1.00, 114.0, 19.0)">e</text><text xml:space="preserve" font-family="Helvetica-Light" font-size="32.3" fill="#EAEAEA" transform="matrix(1.00, 0.00, -0.00, -1.00, 131.9, 19.0)">,</text><text xml:space="preserve" font-family="Helvetica-Light" font-size="32.3" fill="#EAEAEA" transform="matrix(1.00, 0.00, -0.00, -1.00, 140.9, 19.0)"> </text><text xml:space="preserve" font-family="Helvetica-Light" font-size="32.3" fill="#EAEAEA" transform="matrix(1.00, 0.00, -0.00, -1.00, 149.9, 19.0)">k</text><text xml:space="preserve" font-family="Helvetica-Light" font-size="32.3" fill="#EAEAEA" transform="matrix(1.00, 0.00, -0.00, -1.00, 166.0, 19.0)">e</text><text xml:space="preserve" font-family="Helvetica-Light" font-size="32.3" fill="#EAEAEA" transform="matrix(1.00, 0.00, -0.00, -1.00, 184.0, 19.0)">y</text><text xml:space="preserve" font-family="Helvetica-Light" font-size="32.3" fill="#EAEAEA" transform="matrix(1.00, 0.00, -0.00, -1.00, 200.1, 19.0)">b</text><text xml:space="preserve" font-family="Helvetica-Light" font-size="32.3" fill="#EAEAEA" transform="matrix(1.00, 0.00, -0.00, -1.00, 219.9, 19.0)">o</text><text xml:space="preserve" font-family="Helvetica-Light" font-size="32.3" fill="#EAEAEA" transform="matrix(1.00, 0.00, -0.00, -1.00, 237.8, 19.0)">a</text><text xml:space="preserve" font-family="Helvetica-Light" font-size="32.3" fill="#EAEAEA" transform="matrix(1.00, 0.00, -0.00, -1.00, 255.8, 19.0)">r</text><text xml:space="preserve" font-family="Helvetica-Light" font-size="32.3" fill="#EAEAEA" transform="matrix(1.00, 0.00, -0.00, -1.00, 266.0, 19.0)">d</text><text xml:space="preserve" font-family="Helvetica-Light" font-size="32.3" fill="#EAEAEA" transform="matrix(1.00, 0.00, -0.00, -1.00, 285.7, 19.0)">.</text><text xml:space="preserve" font-family="Helvetica-Light" font-size="32.3" fill="#EAEAEA" transform="matrix(1.00, 0.00, -0.00, -1.00, 294.7, 19.0)"> </text><text xml:space="preserve" font-family="Helvetica-Light" font-size="32.3" fill="#EAEAEA" transform="matrix(1.00, 0.00, -0.00, -1.00, 303.7, 19.0)">S</text><text xml:space="preserve" font-family="Helvetica-Light" font-size="32.3" fill="#EAEAEA" transform="matrix(1.00, 0.00, -0.00, -1.00, 323.4, 19.0)">e</text><text xml:space="preserve" font-family="Helvetica-Light" font-size="32.3" fill="#EAEAEA" transform="matrix(1.00, 0.00, -0.00, -1.00, 341.4, 19.0)">e</text><text xml:space="preserve" font-family="Helvetica-Light" font-size="32.3" fill="#EAEAEA" transform="matrix(1.00, 0.00, -0.00, -1.00, 359.3, 19.0)">m</text><text xml:space="preserve" font-family="Helvetica-Light" font-size="32.3" fill="#EAEAEA" transform="matrix(1.00, 0.00, -0.00, -1.00, 386.2, 19.0)">s</text><text xml:space="preserve" font-family="Helvetica-Light" font-size="32.3" fill="#EAEAEA" transform="matrix(1.00, 0.00, -0.00, -1.00, 402.4, 19.0)"> </text><text xml:space="preserve" font-family="Helvetica-Light" font-size="32.3" fill="#EAEAEA" transform="matrix(1.00, 0.00, -0.00, -1.00, 411.4, 19.0)">e</text><text xml:space="preserve" font-family="Helvetica-Light" font-size="32.3" fill="#EAEAEA" transform="matrix(1.00, 0.00, -0.00, -1.00, 429.3, 19.0)">a</text><text xml:space="preserve" font-family="Helvetica-Light" font-size="32.3" fill="#EAEAEA" transform="matrix(1.00, 0.00, -0.00, -1.00, 447.3, 19.0)">s</text><text xml:space="preserve" font-family="Helvetica-Light" font-size="32.3" fill="#EAEAEA" transform="matrix(1.00, 0.00, -0.00, -1.00, 463.4, 19.0)">y</text><text xml:space="preserve" font-family="Helvetica-Light" font-size="32.3" fill="#EAEAEA" transform="matrix(1.00, 0.00, -0.00, -1.00, 479.6, 19.0)"> </text><text xml:space="preserve" font-family="Helvetica-Light" font-size="32.3" fill="#EAEAEA" transform="matrix(1.00, 0.00, -0.00, -1.00, 488.6, 19.0)">e</text><text xml:space="preserve" font-family="Helvetica-Light" font-size="32.3" fill="#EAEAEA" transform="matrix(1.00, 0.00, -0.00, -1.00, 506.5, 19.0)">n</text><text xml:space="preserve" font-family="Helvetica-Light" font-size="32.3" fill="#EAEAEA" transform="matrix(1.00, 0.00, -0.00, -1.00, 524.5, 19.0)">o</text><text xml:space="preserve" font-family="Helvetica-Light" font-size="32.3" fill="#EAEAEA" transform="matrix(1.00, 0.00, -0.00, -1.00, 542.4, 19.0)">u</text><text xml:space="preserve" font-family="Helvetica-Light" font-size="32.3" fill="#EAEAEA" transform="matrix(1.00, 0.00, -0.00, -1.00, 560.4, 19.0)">g</text><text xml:space="preserve" font-family="Helvetica-Light" font-size="32.3" fill="#EAEAEA" transform="matrix(1.00, 0.00, -0.00, -1.00, 580.1, 19.0)">h</text><text xml:space="preserve" font-family="Helvetica-Light" font-size="32.3" fill="#EAEAEA" transform="matrix(1.00, 0.00, -0.00, -1.00, 598.1, 19.0)">?</text></g></svg>