<?xml version="1.0" encoding="UTF-8" standalone="no"?><svg xmlns="http://www.w3.org/2000/svg" xmlns:xlink="http://www.w3.org/1999/xlink" clip-rule="evenodd" stroke-miterlimit="4.00" viewBox="0 0 1024 768"><desc>SVG generated by Keynote</desc><defs></defs><g transform="matrix(1.00, 0.00, -0.00, -1.00, 0.0, 768.0)"><g><clipPath id="clip-186"><path d="M 0.0 768.0 L 1024.0 768.0 L 1024.0 0.0 L 0.0 0.0 Z M 0.0 768.0 "></path></clipPath><g clip-path="url(#clip-186)"><image xlink:href="../../06DBE9C8-52A0-453A-A7BF-EBF58CF01F35/assets/E7ABA782A15EA3475B4CFCC80A2FEB63.jpeg" width="1024.00" height="768.00" transform="matrix(1.00, 0.00, -0.00, -1.00, 0.0, 768.0)"></image></g></g><image xlink:href="168824BFE41D1400D59C771DF6CBCE1B.png" width="399.00" height="89.00" transform="matrix(1.00, 0.00, -0.00, -1.00, 312.0, 463.0)"></image><text xml:space="preserve" font-family="Helvetica-Light" font-size="80.0" fill="#FEFFFF" transform="matrix(1.00, 0.00, -0.00, -1.00, 314.0, 401.0)">T</text><text xml:space="preserve" font-family="Helvetica-Light" font-size="80.0" fill="#FEFFFF" transform="matrix(1.00, 0.00, -0.00, -1.00, 358.5, 401.0)">h</text><text xml:space="preserve" font-family="Helvetica-Light" font-size="80.0" fill="#FEFFFF" transform="matrix(1.00, 0.00, -0.00, -1.00, 403.0, 401.0)">a</text><text xml:space="preserve" font-family="Helvetica-Light" font-size="80.0" fill="#FEFFFF" transform="matrix(1.00, 0.00, -0.00, -1.00, 447.4, 401.0)">n</text><text xml:space="preserve" font-family="Helvetica-Light" font-size="80.0" fill="#FEFFFF" transform="matrix(1.00, 0.00, -0.00, -1.00, 491.9, 401.0)">k</text><text xml:space="preserve" font-family="Helvetica-Light" font-size="80.0" fill="#FEFFFF" transform="matrix(1.00, 0.00, -0.00, -1.00, 531.9, 401.0)"> </text><text xml:space="preserve" font-family="Helvetica-Light" font-size="80.0" fill="#FEFFFF" transform="matrix(1.00, 0.00, -0.00, -1.00, 554.2, 401.0)">y</text><text xml:space="preserve" font-family="Helvetica-Light" font-size="80.0" fill="#FEFFFF" transform="matrix(1.00, 0.00, -0.00, -1.00, 594.2, 401.0)">o</text><text xml:space="preserve" font-family="Helvetica-Light" font-size="80.0" fill="#FEFFFF" transform="matrix(1.00, 0.00, -0.00, -1.00, 638.6, 401.0)">u</text><text xml:space="preserve" font-family="Helvetica-Light" font-size="80.0" fill="#FEFFFF" transform="matrix(1.00, 0.00, -0.00, -1.00, 683.1, 401.0)">!</text><text xml:space="preserve" font-family="Helvetica-Light" font-size="29.8" fill="#FEFFFF" transform="matrix(1.00, 0.00, -0.00, -1.00, 105.0, 297.0)">h</text><text xml:space="preserve" font-family="Helvetica-Light" font-size="29.8" fill="#FEFFFF" transform="matrix(1.00, 0.00, -0.00, -1.00, 121.5, 297.0)">t</text><text xml:space="preserve" font-family="Helvetica-Light" font-size="29.8" fill="#FEFFFF" transform="matrix(1.00, 0.00, -0.00, -1.00, 129.8, 297.0)">t</text><text xml:space="preserve" font-family="Helvetica-Light" font-size="29.8" fill="#FEFFFF" transform="matrix(1.00, 0.00, -0.00, -1.00, 138.1, 297.0)">p</text><text xml:space="preserve" font-family="Helvetica-Light" font-size="29.8" fill="#FEFFFF" transform="matrix(1.00, 0.00, -0.00, -1.00, 156.3, 297.0)">s</text><text xml:space="preserve" font-family="Helvetica-Light" font-size="29.8" fill="#FEFFFF" transform="matrix(1.00, 0.00, -0.00, -1.00, 171.2, 297.0)">:</text><text xml:space="preserve" font-family="Helvetica-Light" font-size="29.8" fill="#FEFFFF" transform="matrix(1.00, 0.00, -0.00, -1.00, 179.4, 297.0)">/</text><text xml:space="preserve" font-family="Helvetica-Light" font-size="29.8" fill="#FEFFFF" transform="matrix(1.00, 0.00, -0.00, -1.00, 187.7, 297.0)">/</text><text xml:space="preserve" font-family="Helvetica-Light" font-size="29.8" fill="#FEFFFF" transform="matrix(1.00, 0.00, -0.00, -1.00, 196.0, 297.0)">g</text><text xml:space="preserve" font-family="Helvetica-Light" font-size="29.8" fill="#FEFFFF" transform="matrix(1.00, 0.00, -0.00, -1.00, 214.2, 297.0)">i</text><text xml:space="preserve" font-family="Helvetica-Light" font-size="29.8" fill="#FEFFFF" transform="matrix(1.00, 0.00, -0.00, -1.00, 220.8, 297.0)">t</text><text xml:space="preserve" font-family="Helvetica-Light" font-size="29.8" fill="#FEFFFF" transform="matrix(1.00, 0.00, -0.00, -1.00, 229.0, 297.0)">h</text><text xml:space="preserve" font-family="Helvetica-Light" font-size="29.8" fill="#FEFFFF" transform="matrix(1.00, 0.00, -0.00, -1.00, 245.6, 297.0)">u</text><text xml:space="preserve" font-family="Helvetica-Light" font-size="29.8" fill="#FEFFFF" transform="matrix(1.00, 0.00, -0.00, -1.00, 262.1, 297.0)">b</text><text xml:space="preserve" font-family="Helvetica-Light" font-size="29.8" fill="#FEFFFF" transform="matrix(1.00, 0.00, -0.00, -1.00, 280.3, 297.0)">.</text><text xml:space="preserve" font-family="Helvetica-Light" font-size="29.8" fill="#FEFFFF" transform="matrix(1.00, 0.00, -0.00, -1.00, 288.6, 297.0)">c</text><text xml:space="preserve" font-family="Helvetica-Light" font-size="29.8" fill="#FEFFFF" transform="matrix(1.00, 0.00, -0.00, -1.00, 305.1, 297.0)">o</text><text xml:space="preserve" font-family="Helvetica-Light" font-size="29.8" fill="#FEFFFF" transform="matrix(1.00, 0.00, -0.00, -1.00, 321.7, 297.0)">m</text><text xml:space="preserve" font-family="Helvetica-Light" font-size="29.8" fill="#FEFFFF" transform="matrix(1.00, 0.00, -0.00, -1.00, 346.5, 297.0)">/</text><text xml:space="preserve" font-family="Helvetica-Light" font-size="29.8" fill="#FEFFFF" transform="matrix(1.00, 0.00, -0.00, -1.00, 354.7, 297.0)">A</text><text xml:space="preserve" font-family="Helvetica-Light" font-size="29.8" fill="#FEFFFF" transform="matrix(1.00, 0.00, -0.00, -1.00, 374.6, 297.0)">n</text><text xml:space="preserve" font-family="Helvetica-Light" font-size="29.8" fill="#FEFFFF" transform="matrix(1.00, 0.00, -0.00, -1.00, 391.1, 297.0)">g</text><text xml:space="preserve" font-family="Helvetica-Light" font-size="29.8" fill="#FEFFFF" transform="matrix(1.00, 0.00, -0.00, -1.00, 409.3, 297.0)">u</text><text xml:space="preserve" font-family="Helvetica-Light" font-size="29.8" fill="#FEFFFF" transform="matrix(1.00, 0.00, -0.00, -1.00, 425.9, 297.0)">l</text><text xml:space="preserve" font-family="Helvetica-Light" font-size="29.8" fill="#FEFFFF" transform="matrix(1.00, 0.00, -0.00, -1.00, 432.5, 297.0)">a</text><text xml:space="preserve" font-family="Helvetica-Light" font-size="29.8" fill="#FEFFFF" transform="matrix(1.00, 0.00, -0.00, -1.00, 449.0, 297.0)">r</text><text xml:space="preserve" font-family="Helvetica-Light" font-size="29.8" fill="#FEFFFF" transform="matrix(1.00, 0.00, -0.00, -1.00, 458.9, 297.0)">S</text><text xml:space="preserve" font-family="Helvetica-Light" font-size="29.8" fill="#FEFFFF" transform="matrix(1.00, 0.00, -0.00, -1.00, 477.1, 297.0)">h</text><text xml:space="preserve" font-family="Helvetica-Light" font-size="29.8" fill="#FEFFFF" transform="matrix(1.00, 0.00, -0.00, -1.00, 493.7, 297.0)">o</text><text xml:space="preserve" font-family="Helvetica-Light" font-size="29.8" fill="#FEFFFF" transform="matrix(1.00, 0.00, -0.00, -1.00, 510.2, 297.0)">w</text><text xml:space="preserve" font-family="Helvetica-Light" font-size="29.8" fill="#FEFFFF" transform="matrix(1.00, 0.00, -0.00, -1.00, 531.7, 297.0)">c</text><text xml:space="preserve" font-family="Helvetica-Light" font-size="29.8" fill="#FEFFFF" transform="matrix(1.00, 0.00, -0.00, -1.00, 548.2, 297.0)">a</text><text xml:space="preserve" font-family="Helvetica-Light" font-size="29.8" fill="#FEFFFF" transform="matrix(1.00, 0.00, -0.00, -1.00, 564.8, 297.0)">s</text><text xml:space="preserve" font-family="Helvetica-Light" font-size="29.8" fill="#FEFFFF" transform="matrix(1.00, 0.00, -0.00, -1.00, 579.7, 297.0)">e</text><text xml:space="preserve" font-family="Helvetica-Light" font-size="29.8" fill="#FEFFFF" transform="matrix(1.00, 0.00, -0.00, -1.00, 596.2, 297.0)">/</text><text xml:space="preserve" font-family="Helvetica-Light" font-size="29.8" fill="#FEFFFF" transform="matrix(1.00, 0.00, -0.00, -1.00, 604.5, 297.0)">n</text><text xml:space="preserve" font-family="Helvetica-Light" font-size="29.8" fill="#FEFFFF" transform="matrix(1.00, 0.00, -0.00, -1.00, 621.0, 297.0)">g</text><text xml:space="preserve" font-family="Helvetica-Light" font-size="29.8" fill="#FEFFFF" transform="matrix(1.00, 0.00, -0.00, -1.00, 639.2, 297.0)">2</text><text xml:space="preserve" font-family="Helvetica-Light" font-size="29.8" fill="#FEFFFF" transform="matrix(1.00, 0.00, -0.00, -1.00, 655.8, 297.0)">-</text><text xml:space="preserve" font-family="Helvetica-Light" font-size="29.8" fill="#FEFFFF" transform="matrix(1.00, 0.00, -0.00, -1.00, 665.7, 297.0)">b</text><text xml:space="preserve" font-family="Helvetica-Light" font-size="29.8" fill="#FEFFFF" transform="matrix(1.00, 0.00, -0.00, -1.00, 683.9, 297.0)">o</text><text xml:space="preserve" font-family="Helvetica-Light" font-size="29.8" fill="#FEFFFF" transform="matrix(1.00, 0.00, -0.00, -1.00, 700.4, 297.0)">o</text><text xml:space="preserve" font-family="Helvetica-Light" font-size="29.8" fill="#FEFFFF" transform="matrix(1.00, 0.00, -0.00, -1.00, 717.0, 297.0)">t</text><text xml:space="preserve" font-family="Helvetica-Light" font-size="29.8" fill="#FEFFFF" transform="matrix(1.00, 0.00, -0.00, -1.00, 725.2, 297.0)">s</text><text xml:space="preserve" font-family="Helvetica-Light" font-size="29.8" fill="#FEFFFF" transform="matrix(1.00, 0.00, -0.00, -1.00, 740.1, 297.0)">t</text><text xml:space="preserve" font-family="Helvetica-Light" font-size="29.8" fill="#FEFFFF" transform="matrix(1.00, 0.00, -0.00, -1.00, 748.4, 297.0)">r</text><text xml:space="preserve" font-family="Helvetica-Light" font-size="29.8" fill="#FEFFFF" transform="matrix(1.00, 0.00, -0.00, -1.00, 758.3, 297.0)">a</text><text xml:space="preserve" font-family="Helvetica-Light" font-size="29.8" fill="#FEFFFF" transform="matrix(1.00, 0.00, -0.00, -1.00, 774.8, 297.0)">p</text><text xml:space="preserve" font-family="Helvetica-Light" font-size="29.8" fill="#FEFFFF" transform="matrix(1.00, 0.00, -0.00, -1.00, 793.0, 297.0)">-</text><text xml:space="preserve" font-family="Helvetica-Light" font-size="29.8" fill="#FEFFFF" transform="matrix(1.00, 0.00, -0.00, -1.00, 802.9, 297.0)">s</text><text xml:space="preserve" font-family="Helvetica-Light" font-size="29.8" fill="#FEFFFF" transform="matrix(1.00, 0.00, -0.00, -1.00, 817.8, 297.0)">b</text><text xml:space="preserve" font-family="Helvetica-Light" font-size="29.8" fill="#FEFFFF" transform="matrix(1.00, 0.00, -0.00, -1.00, 836.0, 297.0)">a</text><text xml:space="preserve" font-family="Helvetica-Light" font-size="29.8" fill="#FEFFFF" transform="matrix(1.00, 0.00, -0.00, -1.00, 852.5, 297.0)">d</text><text xml:space="preserve" font-family="Helvetica-Light" font-size="29.8" fill="#FEFFFF" transform="matrix(1.00, 0.00, -0.00, -1.00, 870.7, 297.0)">m</text><text xml:space="preserve" font-family="Helvetica-Light" font-size="29.8" fill="#FEFFFF" transform="matrix(1.00, 0.00, -0.00, -1.00, 895.5, 297.0)">i</text><text xml:space="preserve" font-family="Helvetica-Light" font-size="29.8" fill="#FEFFFF" transform="matrix(1.00, 0.00, -0.00, -1.00, 902.1, 297.0)">n</text><g><clipPath id="clip-187"><path d="M 104.2 293.5 L 918.8 293.5 L 918.8 297.0 L 104.2 297.0 Z M 104.2 293.5 "></path></clipPath><g clip-path="url(#clip-187)"><path d="M 5.2 35.4 L 818.8 35.4 " fill="none" stroke="#FEFFFF" stroke-width="1.49" stroke-miterlimit="0.00" transform="matrix(1.00, 0.00, 0.00, -1.00, 100.0, 330.6)"></path></g></g></g></svg>