<?xml version="1.0" encoding="UTF-8" standalone="no"?><svg xmlns="http://www.w3.org/2000/svg" xmlns:xlink="http://www.w3.org/1999/xlink" clip-rule="evenodd" stroke-miterlimit="4.00" viewBox="0 0 1024 768"><desc>SVG generated by Keynote</desc><defs><linearGradient id="gradSh1.0" x1="0.0" y1="0.0" x2="100.0" y2="0.0" gradientUnits="userSpaceOnUse" gradientTransform="matrix(0.00, -5.06, -0.69, 0.00, 107.8, 568.2)"><stop offset="0.00000" stop-color="#FF2600"></stop><stop offset="0.00220" stop-color="#FE2600"></stop><stop offset="0.12097" stop-color="#E04000"></stop><stop offset="0.12390" stop-color="#DF4000"></stop><stop offset="0.42449" stop-color="#938000"></stop><stop offset="0.42595" stop-color="#928000"></stop><stop offset="1.00000" stop-color="#00F900"></stop></linearGradient></defs><g transform="matrix(1.00, 0.00, -0.00, -1.00, 0.0, 768.0)"><g><clipPath id="clip-92"><path d="M 0.0 768.0 L 1024.0 768.0 L 1024.0 0.0 L 0.0 0.0 Z M 0.0 768.0 "></path></clipPath><g clip-path="url(#clip-92)"><image xlink:href="../../06DBE9C8-52A0-453A-A7BF-EBF58CF01F35/assets/E7ABA782A15EA3475B4CFCC80A2FEB63.jpeg" width="1024.00" height="768.00" transform="matrix(1.00, 0.00, -0.00, -1.00, 0.0, 768.0)"></image></g></g><g><clipPath id="clip-93"><path d="M 74.2 567.2 L 141.3 567.2 L 141.3 62.8 L 74.2 62.8 Z M 74.2 567.2 "></path></clipPath><g clip-path="url(#clip-93)"><path d="M 74.2 567.2 L 141.3 567.2 L 141.3 62.8 L 74.2 62.8 Z M 74.2 567.2 " fill="url(#gradSh1.0)"></path></g></g><image xlink:href="CEE42D1C742C2D07118527F7AFAFC242.png" width="712.00" height="77.00" transform="matrix(1.00, 0.00, -0.00, -1.00, 170.0, 720.0)"></image><text xml:space="preserve" font-family="Helvetica-Light" font-size="66.4" fill="#FEFFFF" transform="matrix(1.00, 0.00, -0.00, -1.00, 168.0, 667.0)">B</text><text xml:space="preserve" font-family="Helvetica-Light" font-size="66.4" fill="#FEFFFF" transform="matrix(1.00, 0.00, -0.00, -1.00, 212.3, 667.0)">r</text><text xml:space="preserve" font-family="Helvetica-Light" font-size="66.4" fill="#FEFFFF" transform="matrix(1.00, 0.00, -0.00, -1.00, 234.4, 667.0)">i</text><text xml:space="preserve" font-family="Helvetica-Light" font-size="66.4" fill="#FEFFFF" transform="matrix(1.00, 0.00, -0.00, -1.00, 249.1, 667.0)">e</text><text xml:space="preserve" font-family="Helvetica-Light" font-size="66.4" fill="#FEFFFF" transform="matrix(1.00, 0.00, -0.00, -1.00, 286.1, 667.0)">f</text><text xml:space="preserve" font-family="Helvetica-Light" font-size="66.4" fill="#FEFFFF" transform="matrix(1.00, 0.00, -0.00, -1.00, 304.5, 667.0)"> </text><text xml:space="preserve" font-family="Helvetica-Light" font-size="66.4" fill="#FEFFFF" transform="matrix(1.00, 0.00, -0.00, -1.00, 323.0, 667.0)">h</text><text xml:space="preserve" font-family="Helvetica-Light" font-size="66.4" fill="#FEFFFF" transform="matrix(1.00, 0.00, -0.00, -1.00, 359.9, 667.0)">i</text><text xml:space="preserve" font-family="Helvetica-Light" font-size="66.4" fill="#FEFFFF" transform="matrix(1.00, 0.00, -0.00, -1.00, 374.6, 667.0)">s</text><text xml:space="preserve" font-family="Helvetica-Light" font-size="66.4" fill="#FEFFFF" transform="matrix(1.00, 0.00, -0.00, -1.00, 407.8, 667.0)">t</text><text xml:space="preserve" font-family="Helvetica-Light" font-size="66.4" fill="#FEFFFF" transform="matrix(1.00, 0.00, -0.00, -1.00, 426.3, 667.0)">o</text><text xml:space="preserve" font-family="Helvetica-Light" font-size="66.4" fill="#FEFFFF" transform="matrix(1.00, 0.00, -0.00, -1.00, 463.2, 667.0)">r</text><text xml:space="preserve" font-family="Helvetica-Light" font-size="66.4" fill="#FEFFFF" transform="matrix(1.00, 0.00, -0.00, -1.00, 486.5, 667.0)">y</text><text xml:space="preserve" font-family="Helvetica-Light" font-size="66.4" fill="#FEFFFF" transform="matrix(1.00, 0.00, -0.00, -1.00, 519.7, 667.0)"> </text><text xml:space="preserve" font-family="Helvetica-Light" font-size="66.4" fill="#FEFFFF" transform="matrix(1.00, 0.00, -0.00, -1.00, 538.2, 667.0)">o</text><text xml:space="preserve" font-family="Helvetica-Light" font-size="66.4" fill="#FEFFFF" transform="matrix(1.00, 0.00, -0.00, -1.00, 575.1, 667.0)">f</text><text xml:space="preserve" font-family="Helvetica-Light" font-size="66.4" fill="#FEFFFF" transform="matrix(1.00, 0.00, -0.00, -1.00, 593.6, 667.0)"> </text><text xml:space="preserve" font-family="Helvetica-Light" font-size="66.4" fill="#FEFFFF" transform="matrix(1.00, 0.00, -0.00, -1.00, 612.0, 667.0)">D</text><text xml:space="preserve" font-family="Helvetica-Light" font-size="66.4" fill="#FEFFFF" transform="matrix(1.00, 0.00, -0.00, -1.00, 660.0, 667.0)">y</text><text xml:space="preserve" font-family="Helvetica-Light" font-size="66.4" fill="#FEFFFF" transform="matrix(1.00, 0.00, -0.00, -1.00, 693.2, 667.0)">n</text><text xml:space="preserve" font-family="Helvetica-Light" font-size="66.4" fill="#FEFFFF" transform="matrix(1.00, 0.00, -0.00, -1.00, 730.1, 667.0)">a</text><text xml:space="preserve" font-family="Helvetica-Light" font-size="66.4" fill="#FEFFFF" transform="matrix(1.00, 0.00, -0.00, -1.00, 767.0, 667.0)">m</text><text xml:space="preserve" font-family="Helvetica-Light" font-size="66.4" fill="#FEFFFF" transform="matrix(1.00, 0.00, -0.00, -1.00, 822.3, 667.0)">i</text><text xml:space="preserve" font-family="Helvetica-Light" font-size="66.4" fill="#FEFFFF" transform="matrix(1.00, 0.00, -0.00, -1.00, 837.0, 667.0)">c</text><text xml:space="preserve" font-family="Helvetica-Light" font-size="66.4" fill="#FEFFFF" transform="matrix(1.00, 0.00, -0.00, -1.00, 874.0, 667.0)"> </text><image xlink:href="C5F90E33207C5BE385A5A3E10C7B3CFE.png" width="146.00" height="63.00" transform="matrix(1.00, 0.00, -0.00, -1.00, 450.0, 640.0)"></image><text xml:space="preserve" font-family="Helvetica-Light" font-size="66.4" fill="#FEFFFF" transform="matrix(1.00, 0.00, -0.00, -1.00, 453.0, 588.0)">W</text><text xml:space="preserve" font-family="Helvetica-Light" font-size="66.4" fill="#FEFFFF" transform="matrix(1.00, 0.00, -0.00, -1.00, 510.8, 588.0)">e</text><text xml:space="preserve" font-family="Helvetica-Light" font-size="66.4" fill="#FEFFFF" transform="matrix(1.00, 0.00, -0.00, -1.00, 547.8, 588.0)">b</text></g></svg>