<?xml version="1.0" encoding="UTF-8" standalone="no"?><svg xmlns="http://www.w3.org/2000/svg" xmlns:xlink="http://www.w3.org/1999/xlink" clip-rule="evenodd" stroke-miterlimit="4.00" viewBox="0 0 1024 768"><desc>SVG generated by Keynote</desc><defs></defs><g transform="matrix(1.00, 0.00, -0.00, -1.00, 0.0, 768.0)"><g><clipPath id="clip-80"><path d="M 0.0 768.0 L 1024.0 768.0 L 1024.0 0.0 L 0.0 0.0 Z M 0.0 768.0 "></path></clipPath><g clip-path="url(#clip-80)"><image xlink:href="../../06DBE9C8-52A0-453A-A7BF-EBF58CF01F35/assets/E7ABA782A15EA3475B4CFCC80A2FEB63.jpeg" width="1024.00" height="768.00" transform="matrix(1.00, 0.00, -0.00, -1.00, 0.0, 768.0)"></image></g></g><image xlink:href="../../C0F41C94-A070-42FF-AF30-C96B2AA18779/assets/AC399DA5B1BF14DB1671E0EB6D72CEDE.png" width="865.00" height="86.00" transform="matrix(1.00, 0.00, -0.00, -1.00, 85.0, 709.0)"></image><text xml:space="preserve" font-family="Helvetica-Light" font-size="76.8" fill="#FEFFFF" transform="matrix(1.00, 0.00, -0.00, -1.00, 82.0, 649.0)">D</text><text xml:space="preserve" font-family="Helvetica-Light" font-size="76.8" fill="#FEFFFF" transform="matrix(1.00, 0.00, -0.00, -1.00, 137.4, 649.0)">o</text><text xml:space="preserve" font-family="Helvetica-Light" font-size="76.8" fill="#FEFFFF" transform="matrix(1.00, 0.00, -0.00, -1.00, 180.2, 649.0)">c</text><text xml:space="preserve" font-family="Helvetica-Light" font-size="76.8" fill="#FEFFFF" transform="matrix(1.00, 0.00, -0.00, -1.00, 222.9, 649.0)">u</text><text xml:space="preserve" font-family="Helvetica-Light" font-size="76.8" fill="#FEFFFF" transform="matrix(1.00, 0.00, -0.00, -1.00, 265.6, 649.0)">m</text><text xml:space="preserve" font-family="Helvetica-Light" font-size="76.8" fill="#FEFFFF" transform="matrix(1.00, 0.00, -0.00, -1.00, 329.5, 649.0)">e</text><text xml:space="preserve" font-family="Helvetica-Light" font-size="76.8" fill="#FEFFFF" transform="matrix(1.00, 0.00, -0.00, -1.00, 372.2, 649.0)">n</text><text xml:space="preserve" font-family="Helvetica-Light" font-size="76.8" fill="#FEFFFF" transform="matrix(1.00, 0.00, -0.00, -1.00, 414.9, 649.0)">t</text><text xml:space="preserve" font-family="Helvetica-Light" font-size="76.8" fill="#FEFFFF" transform="matrix(1.00, 0.00, -0.00, -1.00, 436.3, 649.0)">a</text><text xml:space="preserve" font-family="Helvetica-Light" font-size="76.8" fill="#FEFFFF" transform="matrix(1.00, 0.00, -0.00, -1.00, 479.0, 649.0)">t</text><text xml:space="preserve" font-family="Helvetica-Light" font-size="76.8" fill="#FEFFFF" transform="matrix(1.00, 0.00, -0.00, -1.00, 500.3, 649.0)">i</text><text xml:space="preserve" font-family="Helvetica-Light" font-size="76.8" fill="#FEFFFF" transform="matrix(1.00, 0.00, -0.00, -1.00, 517.4, 649.0)">o</text><text xml:space="preserve" font-family="Helvetica-Light" font-size="76.8" fill="#FEFFFF" transform="matrix(1.00, 0.00, -0.00, -1.00, 560.1, 649.0)">n</text><text xml:space="preserve" font-family="Helvetica-Light" font-size="76.8" fill="#FEFFFF" transform="matrix(1.00, 0.00, -0.00, -1.00, 602.8, 649.0)">:</text><text xml:space="preserve" font-family="Helvetica-Light" font-size="76.8" fill="#FEFFFF" transform="matrix(1.00, 0.00, -0.00, -1.00, 624.1, 649.0)"> </text><text xml:space="preserve" font-family="Helvetica-Light" font-size="76.8" fill="#FEFFFF" transform="matrix(1.00, 0.00, -0.00, -1.00, 645.5, 649.0)">T</text><text xml:space="preserve" font-family="Helvetica-Light" font-size="76.8" fill="#FEFFFF" transform="matrix(1.00, 0.00, -0.00, -1.00, 681.7, 649.0)">y</text><text xml:space="preserve" font-family="Helvetica-Light" font-size="76.8" fill="#FEFFFF" transform="matrix(1.00, 0.00, -0.00, -1.00, 720.1, 649.0)">p</text><text xml:space="preserve" font-family="Helvetica-Light" font-size="76.8" fill="#FEFFFF" transform="matrix(1.00, 0.00, -0.00, -1.00, 767.1, 649.0)">e</text><text xml:space="preserve" font-family="Helvetica-Light" font-size="76.8" fill="#FEFFFF" transform="matrix(1.00, 0.00, -0.00, -1.00, 809.8, 649.0)">d</text><text xml:space="preserve" font-family="Helvetica-Light" font-size="76.8" fill="#FEFFFF" transform="matrix(1.00, 0.00, -0.00, -1.00, 856.7, 649.0)">o</text><text xml:space="preserve" font-family="Helvetica-Light" font-size="76.8" fill="#FEFFFF" transform="matrix(1.00, 0.00, -0.00, -1.00, 899.4, 649.0)">c</text><image xlink:href="../../C0F41C94-A070-42FF-AF30-C96B2AA18779/assets/12E87C390896B4AE9FD3D0DF786662EE.png" width="24.00" height="24.00" transform="matrix(1.00, 0.00, -0.00, -1.00, 77.0, 572.0)"></image><text xml:space="preserve" font-family="Helvetica-Light" font-size="25.5" fill="#EAEAEA" transform="matrix(1.00, 0.00, -0.00, -1.00, 79.0, 554.1)">•</text><image xlink:href="../../C0F41C94-A070-42FF-AF30-C96B2AA18779/assets/607BF349DAC92C898B7BE9E275A1B9D1.png" width="599.00" height="46.00" transform="matrix(1.00, 0.00, -0.00, -1.00, 108.0, 580.0)"></image><text xml:space="preserve" font-family="Helvetica-Light" font-size="34.0" fill="#EAEAEA" transform="matrix(1.00, 0.00, -0.00, -1.00, 111.0, 551.0)">T</text><text xml:space="preserve" font-family="Helvetica-Light" font-size="34.0" fill="#EAEAEA" transform="matrix(1.00, 0.00, -0.00, -1.00, 127.0, 551.0)">y</text><text xml:space="preserve" font-family="Helvetica-Light" font-size="34.0" fill="#EAEAEA" transform="matrix(1.00, 0.00, -0.00, -1.00, 144.0, 551.0)">p</text><text xml:space="preserve" font-family="Helvetica-Light" font-size="34.0" fill="#EAEAEA" transform="matrix(1.00, 0.00, -0.00, -1.00, 164.8, 551.0)">e</text><text xml:space="preserve" font-family="Helvetica-Light" font-size="34.0" fill="#EAEAEA" transform="matrix(1.00, 0.00, -0.00, -1.00, 183.7, 551.0)">d</text><text xml:space="preserve" font-family="Helvetica-Light" font-size="34.0" fill="#EAEAEA" transform="matrix(1.00, 0.00, -0.00, -1.00, 204.5, 551.0)">o</text><text xml:space="preserve" font-family="Helvetica-Light" font-size="34.0" fill="#EAEAEA" transform="matrix(1.00, 0.00, -0.00, -1.00, 223.4, 551.0)">c</text><text xml:space="preserve" font-family="Helvetica-Light" font-size="34.0" fill="#EAEAEA" transform="matrix(1.00, 0.00, -0.00, -1.00, 242.3, 551.0)"> </text><text xml:space="preserve" font-family="Helvetica-Light" font-size="34.0" fill="#EAEAEA" transform="matrix(1.00, 0.00, -0.00, -1.00, 251.8, 551.0)">i</text><text xml:space="preserve" font-family="Helvetica-Light" font-size="34.0" fill="#EAEAEA" transform="matrix(1.00, 0.00, -0.00, -1.00, 259.3, 551.0)">s</text><text xml:space="preserve" font-family="Helvetica-Light" font-size="34.0" fill="#EAEAEA" transform="matrix(1.00, 0.00, -0.00, -1.00, 276.3, 551.0)"> </text><text xml:space="preserve" font-family="Helvetica-Light" font-size="34.0" fill="#EAEAEA" transform="matrix(1.00, 0.00, -0.00, -1.00, 285.8, 551.0)">l</text><text xml:space="preserve" font-family="Helvetica-Light" font-size="34.0" fill="#EAEAEA" transform="matrix(1.00, 0.00, -0.00, -1.00, 293.3, 551.0)">i</text><text xml:space="preserve" font-family="Helvetica-Light" font-size="34.0" fill="#EAEAEA" transform="matrix(1.00, 0.00, -0.00, -1.00, 300.9, 551.0)">k</text><text xml:space="preserve" font-family="Helvetica-Light" font-size="34.0" fill="#EAEAEA" transform="matrix(1.00, 0.00, -0.00, -1.00, 317.9, 551.0)">e</text><text xml:space="preserve" font-family="Helvetica-Light" font-size="34.0" fill="#EAEAEA" transform="matrix(1.00, 0.00, -0.00, -1.00, 336.8, 551.0)"> </text><text xml:space="preserve" font-family="Helvetica-Light" font-size="34.0" fill="#EAEAEA" transform="matrix(1.00, 0.00, -0.00, -1.00, 346.2, 551.0)">J</text><text xml:space="preserve" font-family="Helvetica-Light" font-size="34.0" fill="#EAEAEA" transform="matrix(1.00, 0.00, -0.00, -1.00, 363.2, 551.0)">a</text><text xml:space="preserve" font-family="Helvetica-Light" font-size="34.0" fill="#EAEAEA" transform="matrix(1.00, 0.00, -0.00, -1.00, 382.1, 551.0)">v</text><text xml:space="preserve" font-family="Helvetica-Light" font-size="34.0" fill="#EAEAEA" transform="matrix(1.00, 0.00, -0.00, -1.00, 399.1, 551.0)">a</text><text xml:space="preserve" font-family="Helvetica-Light" font-size="34.0" fill="#EAEAEA" transform="matrix(1.00, 0.00, -0.00, -1.00, 418.0, 551.0)">D</text><text xml:space="preserve" font-family="Helvetica-Light" font-size="34.0" fill="#EAEAEA" transform="matrix(1.00, 0.00, -0.00, -1.00, 442.6, 551.0)">o</text><text xml:space="preserve" font-family="Helvetica-Light" font-size="34.0" fill="#EAEAEA" transform="matrix(1.00, 0.00, -0.00, -1.00, 461.5, 551.0)">c</text><text xml:space="preserve" font-family="Helvetica-Light" font-size="34.0" fill="#EAEAEA" transform="matrix(1.00, 0.00, -0.00, -1.00, 480.4, 551.0)"> </text><text xml:space="preserve" font-family="Helvetica-Light" font-size="34.0" fill="#EAEAEA" transform="matrix(1.00, 0.00, -0.00, -1.00, 489.8, 551.0)">f</text><text xml:space="preserve" font-family="Helvetica-Light" font-size="34.0" fill="#EAEAEA" transform="matrix(1.00, 0.00, -0.00, -1.00, 499.3, 551.0)">o</text><text xml:space="preserve" font-family="Helvetica-Light" font-size="34.0" fill="#EAEAEA" transform="matrix(1.00, 0.00, -0.00, -1.00, 518.2, 551.0)">r</text><text xml:space="preserve" font-family="Helvetica-Light" font-size="34.0" fill="#EAEAEA" transform="matrix(1.00, 0.00, -0.00, -1.00, 529.5, 551.0)"> </text><text xml:space="preserve" font-family="Helvetica-Light" font-size="34.0" fill="#EAEAEA" transform="matrix(1.00, 0.00, -0.00, -1.00, 539.0, 551.0)">T</text><text xml:space="preserve" font-family="Helvetica-Light" font-size="34.0" fill="#EAEAEA" transform="matrix(1.00, 0.00, -0.00, -1.00, 555.0, 551.0)">y</text><text xml:space="preserve" font-family="Helvetica-Light" font-size="34.0" fill="#EAEAEA" transform="matrix(1.00, 0.00, -0.00, -1.00, 572.0, 551.0)">p</text><text xml:space="preserve" font-family="Helvetica-Light" font-size="34.0" fill="#EAEAEA" transform="matrix(1.00, 0.00, -0.00, -1.00, 592.8, 551.0)">e</text><text xml:space="preserve" font-family="Helvetica-Light" font-size="34.0" fill="#EAEAEA" transform="matrix(1.00, 0.00, -0.00, -1.00, 611.7, 551.0)">s</text><text xml:space="preserve" font-family="Helvetica-Light" font-size="34.0" fill="#EAEAEA" transform="matrix(1.00, 0.00, -0.00, -1.00, 628.7, 551.0)">c</text><text xml:space="preserve" font-family="Helvetica-Light" font-size="34.0" fill="#EAEAEA" transform="matrix(1.00, 0.00, -0.00, -1.00, 647.6, 551.0)">r</text><text xml:space="preserve" font-family="Helvetica-Light" font-size="34.0" fill="#EAEAEA" transform="matrix(1.00, 0.00, -0.00, -1.00, 658.9, 551.0)">i</text><text xml:space="preserve" font-family="Helvetica-Light" font-size="34.0" fill="#EAEAEA" transform="matrix(1.00, 0.00, -0.00, -1.00, 666.5, 551.0)">p</text><text xml:space="preserve" font-family="Helvetica-Light" font-size="34.0" fill="#EAEAEA" transform="matrix(1.00, 0.00, -0.00, -1.00, 687.2, 551.0)">t</text><image xlink:href="../../C0F41C94-A070-42FF-AF30-C96B2AA18779/assets/37018FEFF8FCB9BE8653DFC1B901ABDA.png" width="791.00" height="455.00" transform="matrix(1.00, 0.00, -0.00, -1.00, 117.0, 507.0)"></image></g></svg>