<?xml version="1.0" encoding="UTF-8" standalone="no"?><svg xmlns="http://www.w3.org/2000/svg" xmlns:xlink="http://www.w3.org/1999/xlink" clip-rule="evenodd" stroke-miterlimit="4.00" viewBox="0 0 1024 768"><desc>SVG generated by Keynote</desc><defs></defs><g transform="matrix(1.00, 0.00, -0.00, -1.00, 0.0, 768.0)"><g><clipPath id="clip-0"><path d="M 0.0 768.0 L 1024.0 768.0 L 1024.0 0.0 L 0.0 0.0 Z M 0.0 768.0 "></path></clipPath><g clip-path="url(#clip-0)"><image xlink:href="E7ABA782A15EA3475B4CFCC80A2FEB63.jpeg" width="1024.00" height="768.00" transform="matrix(1.00, 0.00, -0.00, -1.00, 0.0, 768.0)"></image></g></g><image xlink:href="10D7495B6060282999D647D880E4BD7D.png" width="790.00" height="76.00" transform="matrix(1.00, 0.00, -0.00, -1.00, 121.0, 604.0)"></image><text xml:space="preserve" font-family="Helvetica-Light" font-size="64.0" fill="#FEFFFF" transform="matrix(1.00, 0.00, -0.00, -1.00, 123.0, 552.0)">T</text><text xml:space="preserve" font-family="Helvetica-Light" font-size="64.0" fill="#FEFFFF" transform="matrix(1.00, 0.00, -0.00, -1.00, 152.7, 552.0)">r</text><text xml:space="preserve" font-family="Helvetica-Light" font-size="64.0" fill="#FEFFFF" transform="matrix(1.00, 0.00, -0.00, -1.00, 174.0, 552.0)">a</text><text xml:space="preserve" font-family="Helvetica-Light" font-size="64.0" fill="#FEFFFF" transform="matrix(1.00, 0.00, -0.00, -1.00, 209.6, 552.0)">n</text><text xml:space="preserve" font-family="Helvetica-Light" font-size="64.0" fill="#FEFFFF" transform="matrix(1.00, 0.00, -0.00, -1.00, 245.2, 552.0)">s</text><text xml:space="preserve" font-family="Helvetica-Light" font-size="64.0" fill="#FEFFFF" transform="matrix(1.00, 0.00, -0.00, -1.00, 277.2, 552.0)">i</text><text xml:space="preserve" font-family="Helvetica-Light" font-size="64.0" fill="#FEFFFF" transform="matrix(1.00, 0.00, -0.00, -1.00, 291.4, 552.0)">t</text><text xml:space="preserve" font-family="Helvetica-Light" font-size="64.0" fill="#FEFFFF" transform="matrix(1.00, 0.00, -0.00, -1.00, 309.2, 552.0)">i</text><text xml:space="preserve" font-family="Helvetica-Light" font-size="64.0" fill="#FEFFFF" transform="matrix(1.00, 0.00, -0.00, -1.00, 323.4, 552.0)">o</text><text xml:space="preserve" font-family="Helvetica-Light" font-size="64.0" fill="#FEFFFF" transform="matrix(1.00, 0.00, -0.00, -1.00, 359.0, 552.0)">n</text><text xml:space="preserve" font-family="Helvetica-Light" font-size="64.0" fill="#FEFFFF" transform="matrix(1.00, 0.00, -0.00, -1.00, 394.6, 552.0)">i</text><text xml:space="preserve" font-family="Helvetica-Light" font-size="64.0" fill="#FEFFFF" transform="matrix(1.00, 0.00, -0.00, -1.00, 408.8, 552.0)">n</text><text xml:space="preserve" font-family="Helvetica-Light" font-size="64.0" fill="#FEFFFF" transform="matrix(1.00, 0.00, -0.00, -1.00, 444.3, 552.0)">g</text><text xml:space="preserve" font-family="Helvetica-Light" font-size="64.0" fill="#FEFFFF" transform="matrix(1.00, 0.00, -0.00, -1.00, 483.4, 552.0)"> </text><text xml:space="preserve" font-family="Helvetica-Light" font-size="64.0" fill="#FEFFFF" transform="matrix(1.00, 0.00, -0.00, -1.00, 501.2, 552.0)">f</text><text xml:space="preserve" font-family="Helvetica-Light" font-size="64.0" fill="#FEFFFF" transform="matrix(1.00, 0.00, -0.00, -1.00, 519.0, 552.0)">r</text><text xml:space="preserve" font-family="Helvetica-Light" font-size="64.0" fill="#FEFFFF" transform="matrix(1.00, 0.00, -0.00, -1.00, 539.2, 552.0)">o</text><text xml:space="preserve" font-family="Helvetica-Light" font-size="64.0" fill="#FEFFFF" transform="matrix(1.00, 0.00, -0.00, -1.00, 574.8, 552.0)">m</text><text xml:space="preserve" font-family="Helvetica-Light" font-size="64.0" fill="#FEFFFF" transform="matrix(1.00, 0.00, -0.00, -1.00, 628.1, 552.0)"> </text><text xml:space="preserve" font-family="Helvetica-Light" font-size="64.0" fill="#FEFFFF" transform="matrix(1.00, 0.00, -0.00, -1.00, 645.9, 552.0)">S</text><text xml:space="preserve" font-family="Helvetica-Light" font-size="64.0" fill="#FEFFFF" transform="matrix(1.00, 0.00, -0.00, -1.00, 685.0, 552.0)">e</text><text xml:space="preserve" font-family="Helvetica-Light" font-size="64.0" fill="#FEFFFF" transform="matrix(1.00, 0.00, -0.00, -1.00, 720.6, 552.0)">r</text><text xml:space="preserve" font-family="Helvetica-Light" font-size="64.0" fill="#FEFFFF" transform="matrix(1.00, 0.00, -0.00, -1.00, 741.9, 552.0)">v</text><text xml:space="preserve" font-family="Helvetica-Light" font-size="64.0" fill="#FEFFFF" transform="matrix(1.00, 0.00, -0.00, -1.00, 773.9, 552.0)">e</text><text xml:space="preserve" font-family="Helvetica-Light" font-size="64.0" fill="#FEFFFF" transform="matrix(1.00, 0.00, -0.00, -1.00, 809.5, 552.0)">r</text><text xml:space="preserve" font-family="Helvetica-Light" font-size="64.0" fill="#FEFFFF" transform="matrix(1.00, 0.00, -0.00, -1.00, 830.8, 552.0)"> </text><text xml:space="preserve" font-family="Helvetica-Light" font-size="64.0" fill="#FEFFFF" transform="matrix(1.00, 0.00, -0.00, -1.00, 848.6, 552.0)">t</text><text xml:space="preserve" font-family="Helvetica-Light" font-size="64.0" fill="#FEFFFF" transform="matrix(1.00, 0.00, -0.00, -1.00, 866.4, 552.0)">o</text><text xml:space="preserve" font-family="Helvetica-Light" font-size="64.0" fill="#FEFFFF" transform="matrix(1.00, 0.00, -0.00, -1.00, 901.9, 552.0)"> </text><image xlink:href="13DA3064A61F29719BFC52F75F8C1A02.png" width="466.00" height="64.00" transform="matrix(1.00, 0.00, -0.00, -1.00, 283.0, 527.0)"></image><text xml:space="preserve" font-family="Helvetica-Light" font-size="64.0" fill="#FEFFFF" transform="matrix(1.00, 0.00, -0.00, -1.00, 283.0, 475.0)">C</text><text xml:space="preserve" font-family="Helvetica-Light" font-size="64.0" fill="#FEFFFF" transform="matrix(1.00, 0.00, -0.00, -1.00, 329.2, 475.0)">l</text><text xml:space="preserve" font-family="Helvetica-Light" font-size="64.0" fill="#FEFFFF" transform="matrix(1.00, 0.00, -0.00, -1.00, 343.4, 475.0)">i</text><text xml:space="preserve" font-family="Helvetica-Light" font-size="64.0" fill="#FEFFFF" transform="matrix(1.00, 0.00, -0.00, -1.00, 357.6, 475.0)">e</text><text xml:space="preserve" font-family="Helvetica-Light" font-size="64.0" fill="#FEFFFF" transform="matrix(1.00, 0.00, -0.00, -1.00, 393.2, 475.0)">n</text><text xml:space="preserve" font-family="Helvetica-Light" font-size="64.0" fill="#FEFFFF" transform="matrix(1.00, 0.00, -0.00, -1.00, 428.8, 475.0)">t</text><text xml:space="preserve" font-family="Helvetica-Light" font-size="64.0" fill="#FEFFFF" transform="matrix(1.00, 0.00, -0.00, -1.00, 446.6, 475.0)"> </text><text xml:space="preserve" font-family="Helvetica-Light" font-size="64.0" fill="#FEFFFF" transform="matrix(1.00, 0.00, -0.00, -1.00, 464.4, 475.0)">S</text><text xml:space="preserve" font-family="Helvetica-Light" font-size="64.0" fill="#FEFFFF" transform="matrix(1.00, 0.00, -0.00, -1.00, 503.5, 475.0)">i</text><text xml:space="preserve" font-family="Helvetica-Light" font-size="64.0" fill="#FEFFFF" transform="matrix(1.00, 0.00, -0.00, -1.00, 517.7, 475.0)">d</text><text xml:space="preserve" font-family="Helvetica-Light" font-size="64.0" fill="#FEFFFF" transform="matrix(1.00, 0.00, -0.00, -1.00, 556.8, 475.0)">e</text><text xml:space="preserve" font-family="Helvetica-Light" font-size="64.0" fill="#FEFFFF" transform="matrix(1.00, 0.00, -0.00, -1.00, 592.4, 475.0)"> </text><text xml:space="preserve" font-family="Helvetica-Light" font-size="64.0" fill="#FEFFFF" transform="matrix(1.00, 0.00, -0.00, -1.00, 610.2, 475.0)">W</text><text xml:space="preserve" font-family="Helvetica-Light" font-size="64.0" fill="#FEFFFF" transform="matrix(1.00, 0.00, -0.00, -1.00, 665.9, 475.0)">e</text><text xml:space="preserve" font-family="Helvetica-Light" font-size="64.0" fill="#FEFFFF" transform="matrix(1.00, 0.00, -0.00, -1.00, 701.5, 475.0)">b</text><text xml:space="preserve" font-family="Helvetica-Light" font-size="64.0" fill="#FEFFFF" transform="matrix(1.00, 0.00, -0.00, -1.00, 740.6, 475.0)"> </text><image xlink:href="516F86E55B15F7F662870C4E463EA193.png" width="814.00" height="75.00" transform="matrix(1.00, 0.00, -0.00, -1.00, 110.0, 449.0)"></image><text xml:space="preserve" font-family="Helvetica-Light" font-size="64.0" fill="#FEFFFF" transform="matrix(1.00, 0.00, -0.00, -1.00, 108.0, 398.0)">D</text><text xml:space="preserve" font-family="Helvetica-Light" font-size="64.0" fill="#FEFFFF" transform="matrix(1.00, 0.00, -0.00, -1.00, 154.2, 398.0)">e</text><text xml:space="preserve" font-family="Helvetica-Light" font-size="64.0" fill="#FEFFFF" transform="matrix(1.00, 0.00, -0.00, -1.00, 189.8, 398.0)">v</text><text xml:space="preserve" font-family="Helvetica-Light" font-size="64.0" fill="#FEFFFF" transform="matrix(1.00, 0.00, -0.00, -1.00, 221.8, 398.0)">e</text><text xml:space="preserve" font-family="Helvetica-Light" font-size="64.0" fill="#FEFFFF" transform="matrix(1.00, 0.00, -0.00, -1.00, 257.4, 398.0)">l</text><text xml:space="preserve" font-family="Helvetica-Light" font-size="64.0" fill="#FEFFFF" transform="matrix(1.00, 0.00, -0.00, -1.00, 271.6, 398.0)">o</text><text xml:space="preserve" font-family="Helvetica-Light" font-size="64.0" fill="#FEFFFF" transform="matrix(1.00, 0.00, -0.00, -1.00, 307.2, 398.0)">p</text><text xml:space="preserve" font-family="Helvetica-Light" font-size="64.0" fill="#FEFFFF" transform="matrix(1.00, 0.00, -0.00, -1.00, 346.3, 398.0)">m</text><text xml:space="preserve" font-family="Helvetica-Light" font-size="64.0" fill="#FEFFFF" transform="matrix(1.00, 0.00, -0.00, -1.00, 399.6, 398.0)">e</text><text xml:space="preserve" font-family="Helvetica-Light" font-size="64.0" fill="#FEFFFF" transform="matrix(1.00, 0.00, -0.00, -1.00, 435.2, 398.0)">n</text><text xml:space="preserve" font-family="Helvetica-Light" font-size="64.0" fill="#FEFFFF" transform="matrix(1.00, 0.00, -0.00, -1.00, 470.8, 398.0)">t</text><text xml:space="preserve" font-family="Helvetica-Light" font-size="64.0" fill="#FEFFFF" transform="matrix(1.00, 0.00, -0.00, -1.00, 488.5, 398.0)"> </text><text xml:space="preserve" font-family="Helvetica-Light" font-size="64.0" fill="#FEFFFF" transform="matrix(1.00, 0.00, -0.00, -1.00, 506.3, 398.0)">w</text><text xml:space="preserve" font-family="Helvetica-Light" font-size="64.0" fill="#FEFFFF" transform="matrix(1.00, 0.00, -0.00, -1.00, 552.5, 398.0)">i</text><text xml:space="preserve" font-family="Helvetica-Light" font-size="64.0" fill="#FEFFFF" transform="matrix(1.00, 0.00, -0.00, -1.00, 566.8, 398.0)">t</text><text xml:space="preserve" font-family="Helvetica-Light" font-size="64.0" fill="#FEFFFF" transform="matrix(1.00, 0.00, -0.00, -1.00, 584.5, 398.0)">h</text><text xml:space="preserve" font-family="Helvetica-Light" font-size="64.0" fill="#FEFFFF" transform="matrix(1.00, 0.00, -0.00, -1.00, 620.1, 398.0)"> </text><text xml:space="preserve" font-family="Helvetica-Light" font-size="64.0" fill="#FEFFFF" transform="matrix(1.00, 0.00, -0.00, -1.00, 637.9, 398.0)">A</text><text xml:space="preserve" font-family="Helvetica-Light" font-size="64.0" fill="#FEFFFF" transform="matrix(1.00, 0.00, -0.00, -1.00, 680.6, 398.0)">n</text><text xml:space="preserve" font-family="Helvetica-Light" font-size="64.0" fill="#FEFFFF" transform="matrix(1.00, 0.00, -0.00, -1.00, 716.2, 398.0)">g</text><text xml:space="preserve" font-family="Helvetica-Light" font-size="64.0" fill="#FEFFFF" transform="matrix(1.00, 0.00, -0.00, -1.00, 755.3, 398.0)">u</text><text xml:space="preserve" font-family="Helvetica-Light" font-size="64.0" fill="#FEFFFF" transform="matrix(1.00, 0.00, -0.00, -1.00, 790.9, 398.0)">l</text><text xml:space="preserve" font-family="Helvetica-Light" font-size="64.0" fill="#FEFFFF" transform="matrix(1.00, 0.00, -0.00, -1.00, 805.1, 398.0)">a</text><text xml:space="preserve" font-family="Helvetica-Light" font-size="64.0" fill="#FEFFFF" transform="matrix(1.00, 0.00, -0.00, -1.00, 840.7, 398.0)">r</text><text xml:space="preserve" font-family="Helvetica-Light" font-size="64.0" fill="#FEFFFF" transform="matrix(1.00, 0.00, -0.00, -1.00, 862.0, 398.0)"> </text><text xml:space="preserve" font-family="Helvetica-Light" font-size="64.0" fill="#FEFFFF" transform="matrix(1.00, 0.00, -0.00, -1.00, 879.8, 398.0)">2</text><text xml:space="preserve" font-family="Helvetica-Light" font-size="28.2" fill="#FEFFFF" transform="matrix(1.00, 0.00, -0.00, -1.00, 424.0, 276.0)">B</text><text xml:space="preserve" font-family="Helvetica-Light" font-size="28.2" fill="#FEFFFF" transform="matrix(1.00, 0.00, -0.00, -1.00, 442.8, 276.0)">r</text><text xml:space="preserve" font-family="Helvetica-Light" font-size="28.2" fill="#FEFFFF" transform="matrix(1.00, 0.00, -0.00, -1.00, 452.2, 276.0)">i</text><text xml:space="preserve" font-family="Helvetica-Light" font-size="28.2" fill="#FEFFFF" transform="matrix(1.00, 0.00, -0.00, -1.00, 458.4, 276.0)">a</text><text xml:space="preserve" font-family="Helvetica-Light" font-size="28.2" fill="#FEFFFF" transform="matrix(1.00, 0.00, -0.00, -1.00, 474.1, 276.0)">n</text><text xml:space="preserve" font-family="Helvetica-Light" font-size="28.2" fill="#FEFFFF" transform="matrix(1.00, 0.00, -0.00, -1.00, 489.7, 276.0)"> </text><text xml:space="preserve" font-family="Helvetica-Light" font-size="28.2" fill="#FEFFFF" transform="matrix(1.00, 0.00, -0.00, -1.00, 497.6, 276.0)">T</text><text xml:space="preserve" font-family="Helvetica-Light" font-size="28.2" fill="#FEFFFF" transform="matrix(1.00, 0.00, -0.00, -1.00, 510.1, 276.0)">o</text><text xml:space="preserve" font-family="Helvetica-Light" font-size="28.2" fill="#FEFFFF" transform="matrix(1.00, 0.00, -0.00, -1.00, 525.7, 276.0)">p</text><text xml:space="preserve" font-family="Helvetica-Light" font-size="28.2" fill="#FEFFFF" transform="matrix(1.00, 0.00, -0.00, -1.00, 542.9, 276.0)">p</text><text xml:space="preserve" font-family="Helvetica-Light" font-size="28.2" fill="#FEFFFF" transform="matrix(1.00, 0.00, -0.00, -1.00, 560.2, 276.0)">i</text><text xml:space="preserve" font-family="Helvetica-Light" font-size="28.2" fill="#FEFFFF" transform="matrix(1.00, 0.00, -0.00, -1.00, 566.4, 276.0)">n</text><text xml:space="preserve" font-family="Helvetica-Light" font-size="28.2" fill="#FEFFFF" transform="matrix(1.00, 0.00, -0.00, -1.00, 582.1, 276.0)">g</text><text xml:space="preserve" font-family="Helvetica-Light" font-size="28.2" fill="#FEFFFF" transform="matrix(1.00, 0.00, -0.00, -1.00, 599.3, 276.0)"> </text><text xml:space="preserve" font-family="Helvetica-Light" font-size="28.2" fill="#FEFFFF" transform="matrix(1.00, 0.00, -0.00, -1.00, 411.0, 242.0)">M</text><text xml:space="preserve" font-family="Helvetica-Light" font-size="28.2" fill="#FEFFFF" transform="matrix(1.00, 0.00, -0.00, -1.00, 434.5, 242.0)">a</text><text xml:space="preserve" font-family="Helvetica-Light" font-size="28.2" fill="#FEFFFF" transform="matrix(1.00, 0.00, -0.00, -1.00, 450.1, 242.0)">u</text><text xml:space="preserve" font-family="Helvetica-Light" font-size="28.2" fill="#FEFFFF" transform="matrix(1.00, 0.00, -0.00, -1.00, 465.8, 242.0)">s</text><text xml:space="preserve" font-family="Helvetica-Light" font-size="28.2" fill="#FEFFFF" transform="matrix(1.00, 0.00, -0.00, -1.00, 479.9, 242.0)">w</text><text xml:space="preserve" font-family="Helvetica-Light" font-size="28.2" fill="#FEFFFF" transform="matrix(1.00, 0.00, -0.00, -1.00, 500.2, 242.0)">e</text><text xml:space="preserve" font-family="Helvetica-Light" font-size="28.2" fill="#FEFFFF" transform="matrix(1.00, 0.00, -0.00, -1.00, 515.8, 242.0)">r</text><text xml:space="preserve" font-family="Helvetica-Light" font-size="28.2" fill="#FEFFFF" transform="matrix(1.00, 0.00, -0.00, -1.00, 525.2, 242.0)">k</text><text xml:space="preserve" font-family="Helvetica-Light" font-size="28.2" fill="#FEFFFF" transform="matrix(1.00, 0.00, -0.00, -1.00, 539.3, 242.0)">s</text><text xml:space="preserve" font-family="Helvetica-Light" font-size="28.2" fill="#FEFFFF" transform="matrix(1.00, 0.00, -0.00, -1.00, 553.4, 242.0)"> </text><text xml:space="preserve" font-family="Helvetica-Light" font-size="28.2" fill="#FEFFFF" transform="matrix(1.00, 0.00, -0.00, -1.00, 561.2, 242.0)">L</text><text xml:space="preserve" font-family="Helvetica-Light" font-size="28.2" fill="#FEFFFF" transform="matrix(1.00, 0.00, -0.00, -1.00, 576.9, 242.0)">L</text><text xml:space="preserve" font-family="Helvetica-Light" font-size="28.2" fill="#FEFFFF" transform="matrix(1.00, 0.00, -0.00, -1.00, 592.5, 242.0)">C</text><text xml:space="preserve" font-family="Helvetica-Light" font-size="28.2" fill="#FEFFFF" transform="matrix(1.00, 0.00, -0.00, -1.00, 612.9, 242.0)"> </text><text xml:space="preserve" font-family="Helvetica-Light" font-size="28.2" fill="#FEFFFF" transform="matrix(1.00, 0.00, -0.00, -1.00, 431.0, 208.0)">1</text><text xml:space="preserve" font-family="Helvetica-Light" font-size="28.2" fill="#FEFFFF" transform="matrix(1.00, 0.00, -0.00, -1.00, 446.7, 208.0)">0</text><text xml:space="preserve" font-family="Helvetica-Light" font-size="28.2" fill="#FEFFFF" transform="matrix(1.00, 0.00, -0.00, -1.00, 462.3, 208.0)">-</text><text xml:space="preserve" font-family="Helvetica-Light" font-size="28.2" fill="#FEFFFF" transform="matrix(1.00, 0.00, -0.00, -1.00, 471.7, 208.0)">N</text><text xml:space="preserve" font-family="Helvetica-Light" font-size="28.2" fill="#FEFFFF" transform="matrix(1.00, 0.00, -0.00, -1.00, 492.0, 208.0)">o</text><text xml:space="preserve" font-family="Helvetica-Light" font-size="28.2" fill="#FEFFFF" transform="matrix(1.00, 0.00, -0.00, -1.00, 507.7, 208.0)">v</text><text xml:space="preserve" font-family="Helvetica-Light" font-size="28.2" fill="#FEFFFF" transform="matrix(1.00, 0.00, -0.00, -1.00, 521.8, 208.0)">-</text><text xml:space="preserve" font-family="Helvetica-Light" font-size="28.2" fill="#FEFFFF" transform="matrix(1.00, 0.00, -0.00, -1.00, 531.1, 208.0)">2</text><text xml:space="preserve" font-family="Helvetica-Light" font-size="28.2" fill="#FEFFFF" transform="matrix(1.00, 0.00, -0.00, -1.00, 546.8, 208.0)">0</text><text xml:space="preserve" font-family="Helvetica-Light" font-size="28.2" fill="#FEFFFF" transform="matrix(1.00, 0.00, -0.00, -1.00, 562.5, 208.0)">1</text><text xml:space="preserve" font-family="Helvetica-Light" font-size="28.2" fill="#FEFFFF" transform="matrix(1.00, 0.00, -0.00, -1.00, 578.1, 208.0)">5</text></g></svg>