<?xml version="1.0" encoding="UTF-8" standalone="no"?><svg xmlns="http://www.w3.org/2000/svg" xmlns:xlink="http://www.w3.org/1999/xlink" clip-rule="evenodd" stroke-miterlimit="4.00" viewBox="0 0 876 71"><desc>SVG generated by Keynote</desc><defs></defs><g transform="matrix(1.00, 0.00, -0.00, -1.00, 0.0, 71.0)"><image xlink:href="../../DF2D54B8-2A0A-4E21-8EBB-66756B817873/assets/A8D45BA4404E877F5E2AAC70678BFD91.png" width="22.00" height="22.00" transform="matrix(1.00, 0.00, -0.00, -1.00, 2.0, 64.0)"></image><text xml:space="preserve" font-family="Helvetica-Light" font-size="18.9" fill="#EAEAEA" transform="matrix(1.00, 0.00, -0.00, -1.00, 4.0, 49.5)">•</text><image xlink:href="../../DF2D54B8-2A0A-4E21-8EBB-66756B817873/assets/A66F0C4D105E6E01F9B740494A65E9BD.png" width="848.00" height="39.00" transform="matrix(1.00, 0.00, -0.00, -1.00, 25.0, 70.0)"></image><text xml:space="preserve" font-family="Helvetica-Light" font-size="25.2" fill="#EAEAEA" transform="matrix(1.00, 0.00, -0.00, -1.00, 28.0, 47.0)">T</text><text xml:space="preserve" font-family="Helvetica-Light" font-size="25.2" fill="#EAEAEA" transform="matrix(1.00, 0.00, -0.00, -1.00, 39.9, 47.0)">y</text><text xml:space="preserve" font-family="Helvetica-Light" font-size="25.2" fill="#EAEAEA" transform="matrix(1.00, 0.00, -0.00, -1.00, 52.5, 47.0)">p</text><text xml:space="preserve" font-family="Helvetica-Light" font-size="25.2" fill="#EAEAEA" transform="matrix(1.00, 0.00, -0.00, -1.00, 67.8, 47.0)">e</text><text xml:space="preserve" font-family="Helvetica-Light" font-size="25.2" fill="#EAEAEA" transform="matrix(1.00, 0.00, -0.00, -1.00, 81.8, 47.0)"> </text><text xml:space="preserve" font-family="Helvetica-Light" font-size="25.2" fill="#EAEAEA" transform="matrix(1.00, 0.00, -0.00, -1.00, 88.8, 47.0)">a</text><text xml:space="preserve" font-family="Helvetica-Light" font-size="25.2" fill="#EAEAEA" transform="matrix(1.00, 0.00, -0.00, -1.00, 102.8, 47.0)">b</text><text xml:space="preserve" font-family="Helvetica-Light" font-size="25.2" fill="#EAEAEA" transform="matrix(1.00, 0.00, -0.00, -1.00, 118.2, 47.0)">s</text><text xml:space="preserve" font-family="Helvetica-Light" font-size="25.2" fill="#EAEAEA" transform="matrix(1.00, 0.00, -0.00, -1.00, 130.8, 47.0)">t</text><text xml:space="preserve" font-family="Helvetica-Light" font-size="25.2" fill="#EAEAEA" transform="matrix(1.00, 0.00, -0.00, -1.00, 137.7, 47.0)">r</text><text xml:space="preserve" font-family="Helvetica-Light" font-size="25.2" fill="#EAEAEA" transform="matrix(1.00, 0.00, -0.00, -1.00, 146.1, 47.0)">a</text><text xml:space="preserve" font-family="Helvetica-Light" font-size="25.2" fill="#EAEAEA" transform="matrix(1.00, 0.00, -0.00, -1.00, 160.1, 47.0)">c</text><text xml:space="preserve" font-family="Helvetica-Light" font-size="25.2" fill="#EAEAEA" transform="matrix(1.00, 0.00, -0.00, -1.00, 174.1, 47.0)">t</text><text xml:space="preserve" font-family="Helvetica-Light" font-size="25.2" fill="#EAEAEA" transform="matrix(1.00, 0.00, -0.00, -1.00, 181.1, 47.0)">i</text><text xml:space="preserve" font-family="Helvetica-Light" font-size="25.2" fill="#EAEAEA" transform="matrix(1.00, 0.00, -0.00, -1.00, 186.7, 47.0)">o</text><text xml:space="preserve" font-family="Helvetica-Light" font-size="25.2" fill="#EAEAEA" transform="matrix(1.00, 0.00, -0.00, -1.00, 200.7, 47.0)">n</text><text xml:space="preserve" font-family="Helvetica-Light" font-size="25.2" fill="#EAEAEA" transform="matrix(1.00, 0.00, -0.00, -1.00, 214.7, 47.0)"> </text><text xml:space="preserve" font-family="Helvetica-Light" font-size="25.2" fill="#EAEAEA" transform="matrix(1.00, 0.00, -0.00, -1.00, 221.7, 47.0)">u</text><text xml:space="preserve" font-family="Helvetica-Light" font-size="25.2" fill="#EAEAEA" transform="matrix(1.00, 0.00, -0.00, -1.00, 235.6, 47.0)">s</text><text xml:space="preserve" font-family="Helvetica-Light" font-size="25.2" fill="#EAEAEA" transform="matrix(1.00, 0.00, -0.00, -1.00, 248.2, 47.0)">i</text><text xml:space="preserve" font-family="Helvetica-Light" font-size="25.2" fill="#EAEAEA" transform="matrix(1.00, 0.00, -0.00, -1.00, 253.8, 47.0)">n</text><text xml:space="preserve" font-family="Helvetica-Light" font-size="25.2" fill="#EAEAEA" transform="matrix(1.00, 0.00, -0.00, -1.00, 267.8, 47.0)">g</text><text xml:space="preserve" font-family="Helvetica-Light" font-size="25.2" fill="#EAEAEA" transform="matrix(1.00, 0.00, -0.00, -1.00, 283.2, 47.0)"> </text><text xml:space="preserve" font-family="Helvetica-Light" font-size="25.2" fill="#EAEAEA" transform="matrix(1.00, 0.00, -0.00, -1.00, 290.2, 47.0)">i</text><text xml:space="preserve" font-family="Helvetica-Light" font-size="25.2" fill="#EAEAEA" transform="matrix(1.00, 0.00, -0.00, -1.00, 295.8, 47.0)">n</text><text xml:space="preserve" font-family="Helvetica-Light" font-size="25.2" fill="#EAEAEA" transform="matrix(1.00, 0.00, -0.00, -1.00, 309.7, 47.0)">t</text><text xml:space="preserve" font-family="Helvetica-Light" font-size="25.2" fill="#EAEAEA" transform="matrix(1.00, 0.00, -0.00, -1.00, 316.7, 47.0)">e</text><text xml:space="preserve" font-family="Helvetica-Light" font-size="25.2" fill="#EAEAEA" transform="matrix(1.00, 0.00, -0.00, -1.00, 330.7, 47.0)">r</text><text xml:space="preserve" font-family="Helvetica-Light" font-size="25.2" fill="#EAEAEA" transform="matrix(1.00, 0.00, -0.00, -1.00, 339.6, 47.0)">f</text><text xml:space="preserve" font-family="Helvetica-Light" font-size="25.2" fill="#EAEAEA" transform="matrix(1.00, 0.00, -0.00, -1.00, 346.6, 47.0)">a</text><text xml:space="preserve" font-family="Helvetica-Light" font-size="25.2" fill="#EAEAEA" transform="matrix(1.00, 0.00, -0.00, -1.00, 360.5, 47.0)">c</text><text xml:space="preserve" font-family="Helvetica-Light" font-size="25.2" fill="#EAEAEA" transform="matrix(1.00, 0.00, -0.00, -1.00, 374.5, 47.0)">e</text><text xml:space="preserve" font-family="Helvetica-Light" font-size="25.2" fill="#EAEAEA" transform="matrix(1.00, 0.00, -0.00, -1.00, 388.5, 47.0)">s</text><text xml:space="preserve" font-family="Helvetica-Light" font-size="25.2" fill="#EAEAEA" transform="matrix(1.00, 0.00, -0.00, -1.00, 401.1, 47.0)"> </text><text xml:space="preserve" font-family="Helvetica-Light" font-size="25.2" fill="#EAEAEA" transform="matrix(1.00, 0.00, -0.00, -1.00, 408.1, 47.0)">i</text><text xml:space="preserve" font-family="Helvetica-Light" font-size="25.2" fill="#EAEAEA" transform="matrix(1.00, 0.00, -0.00, -1.00, 413.7, 47.0)">s</text><text xml:space="preserve" font-family="Helvetica-Light" font-size="25.2" fill="#EAEAEA" transform="matrix(1.00, 0.00, -0.00, -1.00, 426.3, 47.0)">,</text><text xml:space="preserve" font-family="Helvetica-Light" font-size="25.2" fill="#EAEAEA" transform="matrix(1.00, 0.00, -0.00, -1.00, 433.3, 47.0)"> </text><text xml:space="preserve" font-family="Helvetica-Light" font-size="25.2" fill="#EAEAEA" transform="matrix(1.00, 0.00, -0.00, -1.00, 440.2, 47.0)">w</text><text xml:space="preserve" font-family="Helvetica-Light" font-size="25.2" fill="#EAEAEA" transform="matrix(1.00, 0.00, -0.00, -1.00, 458.4, 47.0)">e</text><text xml:space="preserve" font-family="Helvetica-Light" font-size="25.2" fill="#EAEAEA" transform="matrix(1.00, 0.00, -0.00, -1.00, 472.4, 47.0)">l</text><text xml:space="preserve" font-family="Helvetica-Light" font-size="25.2" fill="#EAEAEA" transform="matrix(1.00, 0.00, -0.00, -1.00, 478.0, 47.0)">l</text><text xml:space="preserve" font-family="Helvetica-Light" font-size="25.2" fill="#EAEAEA" transform="matrix(1.00, 0.00, -0.00, -1.00, 483.6, 47.0)">,</text><text xml:space="preserve" font-family="Helvetica-Light" font-size="25.2" fill="#EAEAEA" transform="matrix(1.00, 0.00, -0.00, -1.00, 490.6, 47.0)"> </text><text xml:space="preserve" font-family="Helvetica-Light" font-size="25.2" fill="#EAEAEA" transform="matrix(1.00, 0.00, -0.00, -1.00, 497.6, 47.0)">w</text><text xml:space="preserve" font-family="Helvetica-Light" font-size="25.2" fill="#EAEAEA" transform="matrix(1.00, 0.00, -0.00, -1.00, 515.7, 47.0)">h</text><text xml:space="preserve" font-family="Helvetica-Light" font-size="25.2" fill="#EAEAEA" transform="matrix(1.00, 0.00, -0.00, -1.00, 529.7, 47.0)">a</text><text xml:space="preserve" font-family="Helvetica-Light" font-size="25.2" fill="#EAEAEA" transform="matrix(1.00, 0.00, -0.00, -1.00, 543.7, 47.0)">t</text><text xml:space="preserve" font-family="Helvetica-Light" font-size="25.2" fill="#EAEAEA" transform="matrix(1.00, 0.00, -0.00, -1.00, 550.7, 47.0)"> </text><text xml:space="preserve" font-family="Helvetica-Light" font-size="25.2" fill="#EAEAEA" transform="matrix(1.00, 0.00, -0.00, -1.00, 557.7, 47.0)">y</text><text xml:space="preserve" font-family="Helvetica-Light" font-size="25.2" fill="#EAEAEA" transform="matrix(1.00, 0.00, -0.00, -1.00, 570.3, 47.0)">o</text><text xml:space="preserve" font-family="Helvetica-Light" font-size="25.2" fill="#EAEAEA" transform="matrix(1.00, 0.00, -0.00, -1.00, 584.3, 47.0)">u</text><text xml:space="preserve" font-family="Helvetica-Light" font-size="25.2" fill="#EAEAEA" transform="matrix(1.00, 0.00, -0.00, -1.00, 598.3, 47.0)">'</text><text xml:space="preserve" font-family="Helvetica-Light" font-size="25.2" fill="#EAEAEA" transform="matrix(1.00, 0.00, -0.00, -1.00, 603.8, 47.0)">r</text><text xml:space="preserve" font-family="Helvetica-Light" font-size="25.2" fill="#EAEAEA" transform="matrix(1.00, 0.00, -0.00, -1.00, 611.8, 47.0)">e</text><text xml:space="preserve" font-family="Helvetica-Light" font-size="25.2" fill="#EAEAEA" transform="matrix(1.00, 0.00, -0.00, -1.00, 625.8, 47.0)"> </text><text xml:space="preserve" font-family="Helvetica-Light" font-size="25.2" fill="#EAEAEA" transform="matrix(1.00, 0.00, -0.00, -1.00, 632.7, 47.0)">u</text><text xml:space="preserve" font-family="Helvetica-Light" font-size="25.2" fill="#EAEAEA" transform="matrix(1.00, 0.00, -0.00, -1.00, 646.7, 47.0)">s</text><text xml:space="preserve" font-family="Helvetica-Light" font-size="25.2" fill="#EAEAEA" transform="matrix(1.00, 0.00, -0.00, -1.00, 659.3, 47.0)">e</text><text xml:space="preserve" font-family="Helvetica-Light" font-size="25.2" fill="#EAEAEA" transform="matrix(1.00, 0.00, -0.00, -1.00, 673.3, 47.0)">d</text><text xml:space="preserve" font-family="Helvetica-Light" font-size="25.2" fill="#EAEAEA" transform="matrix(1.00, 0.00, -0.00, -1.00, 688.7, 47.0)"> </text><text xml:space="preserve" font-family="Helvetica-Light" font-size="25.2" fill="#EAEAEA" transform="matrix(1.00, 0.00, -0.00, -1.00, 695.7, 47.0)">t</text><text xml:space="preserve" font-family="Helvetica-Light" font-size="25.2" fill="#EAEAEA" transform="matrix(1.00, 0.00, -0.00, -1.00, 702.7, 47.0)">o</text><text xml:space="preserve" font-family="Helvetica-Light" font-size="25.2" fill="#EAEAEA" transform="matrix(1.00, 0.00, -0.00, -1.00, 716.7, 47.0)"> </text><text xml:space="preserve" font-family="Helvetica-Light" font-size="25.2" fill="#EAEAEA" transform="matrix(1.00, 0.00, -0.00, -1.00, 723.6, 47.0)">i</text><text xml:space="preserve" font-family="Helvetica-Light" font-size="25.2" fill="#EAEAEA" transform="matrix(1.00, 0.00, -0.00, -1.00, 729.2, 47.0)">n</text><text xml:space="preserve" font-family="Helvetica-Light" font-size="25.2" fill="#EAEAEA" transform="matrix(1.00, 0.00, -0.00, -1.00, 743.2, 47.0)"> </text><text xml:space="preserve" font-family="Helvetica-Light" font-size="25.2" fill="#EAEAEA" transform="matrix(1.00, 0.00, -0.00, -1.00, 750.2, 47.0)">a</text><text xml:space="preserve" font-family="Helvetica-Light" font-size="25.2" fill="#EAEAEA" transform="matrix(1.00, 0.00, -0.00, -1.00, 764.2, 47.0)">d</text><text xml:space="preserve" font-family="Helvetica-Light" font-size="25.2" fill="#EAEAEA" transform="matrix(1.00, 0.00, -0.00, -1.00, 779.6, 47.0)">v</text><text xml:space="preserve" font-family="Helvetica-Light" font-size="25.2" fill="#EAEAEA" transform="matrix(1.00, 0.00, -0.00, -1.00, 792.2, 47.0)">a</text><text xml:space="preserve" font-family="Helvetica-Light" font-size="25.2" fill="#EAEAEA" transform="matrix(1.00, 0.00, -0.00, -1.00, 806.1, 47.0)">n</text><text xml:space="preserve" font-family="Helvetica-Light" font-size="25.2" fill="#EAEAEA" transform="matrix(1.00, 0.00, -0.00, -1.00, 820.1, 47.0)">c</text><text xml:space="preserve" font-family="Helvetica-Light" font-size="25.2" fill="#EAEAEA" transform="matrix(1.00, 0.00, -0.00, -1.00, 834.1, 47.0)">e</text><text xml:space="preserve" font-family="Helvetica-Light" font-size="25.2" fill="#EAEAEA" transform="matrix(1.00, 0.00, -0.00, -1.00, 848.1, 47.0)">d</text><text xml:space="preserve" font-family="Helvetica-Light" font-size="25.2" fill="#EAEAEA" transform="matrix(1.00, 0.00, -0.00, -1.00, 863.5, 47.0)"> </text><image xlink:href="../../DF2D54B8-2A0A-4E21-8EBB-66756B817873/assets/5CB769CB9375481A27B73F1A424BCDAE.png" width="256.00" height="39.00" transform="matrix(1.00, 0.00, -0.00, -1.00, 27.0, 40.0)"></image><text xml:space="preserve" font-family="Helvetica-Light" font-size="25.2" fill="#EAEAEA" transform="matrix(1.00, 0.00, -0.00, -1.00, 28.0, 17.0)">l</text><text xml:space="preserve" font-family="Helvetica-Light" font-size="25.2" fill="#EAEAEA" transform="matrix(1.00, 0.00, -0.00, -1.00, 33.6, 17.0)">a</text><text xml:space="preserve" font-family="Helvetica-Light" font-size="25.2" fill="#EAEAEA" transform="matrix(1.00, 0.00, -0.00, -1.00, 47.6, 17.0)">n</text><text xml:space="preserve" font-family="Helvetica-Light" font-size="25.2" fill="#EAEAEA" transform="matrix(1.00, 0.00, -0.00, -1.00, 61.6, 17.0)">g</text><text xml:space="preserve" font-family="Helvetica-Light" font-size="25.2" fill="#EAEAEA" transform="matrix(1.00, 0.00, -0.00, -1.00, 76.9, 17.0)">u</text><text xml:space="preserve" font-family="Helvetica-Light" font-size="25.2" fill="#EAEAEA" transform="matrix(1.00, 0.00, -0.00, -1.00, 90.9, 17.0)">a</text><text xml:space="preserve" font-family="Helvetica-Light" font-size="25.2" fill="#EAEAEA" transform="matrix(1.00, 0.00, -0.00, -1.00, 104.9, 17.0)">g</text><text xml:space="preserve" font-family="Helvetica-Light" font-size="25.2" fill="#EAEAEA" transform="matrix(1.00, 0.00, -0.00, -1.00, 120.3, 17.0)">e</text><text xml:space="preserve" font-family="Helvetica-Light" font-size="25.2" fill="#EAEAEA" transform="matrix(1.00, 0.00, -0.00, -1.00, 134.3, 17.0)">s</text><text xml:space="preserve" font-family="Helvetica-Light" font-size="25.2" fill="#EAEAEA" transform="matrix(1.00, 0.00, -0.00, -1.00, 146.9, 17.0)"> </text><text xml:space="preserve" font-family="Helvetica-Light" font-size="25.2" fill="#EAEAEA" transform="matrix(1.00, 0.00, -0.00, -1.00, 153.9, 17.0)">f</text><text xml:space="preserve" font-family="Helvetica-Light" font-size="25.2" fill="#EAEAEA" transform="matrix(1.00, 0.00, -0.00, -1.00, 160.8, 17.0)">r</text><text xml:space="preserve" font-family="Helvetica-Light" font-size="25.2" fill="#EAEAEA" transform="matrix(1.00, 0.00, -0.00, -1.00, 168.8, 17.0)">o</text><text xml:space="preserve" font-family="Helvetica-Light" font-size="25.2" fill="#EAEAEA" transform="matrix(1.00, 0.00, -0.00, -1.00, 182.8, 17.0)">m</text><text xml:space="preserve" font-family="Helvetica-Light" font-size="25.2" fill="#EAEAEA" transform="matrix(1.00, 0.00, -0.00, -1.00, 203.7, 17.0)"> </text><text xml:space="preserve" font-family="Helvetica-Light" font-size="25.2" fill="#EAEAEA" transform="matrix(1.00, 0.00, -0.00, -1.00, 210.7, 17.0)">1</text><text xml:space="preserve" font-family="Helvetica-Light" font-size="25.2" fill="#EAEAEA" transform="matrix(1.00, 0.00, -0.00, -1.00, 224.7, 17.0)">9</text><text xml:space="preserve" font-family="Helvetica-Light" font-size="25.2" fill="#EAEAEA" transform="matrix(1.00, 0.00, -0.00, -1.00, 238.7, 17.0)">9</text><text xml:space="preserve" font-family="Helvetica-Light" font-size="25.2" fill="#EAEAEA" transform="matrix(1.00, 0.00, -0.00, -1.00, 252.7, 17.0)">5</text><text xml:space="preserve" font-family="Helvetica-Light" font-size="25.2" fill="#EAEAEA" transform="matrix(1.00, 0.00, -0.00, -1.00, 266.7, 17.0)">.</text></g></svg>