<?xml version="1.0" encoding="UTF-8" standalone="no"?><svg xmlns="http://www.w3.org/2000/svg" xmlns:xlink="http://www.w3.org/1999/xlink" clip-rule="evenodd" stroke-miterlimit="4.00" viewBox="0 0 850 120"><desc>SVG generated by Keynote</desc><defs></defs><g transform="matrix(1.00, 0.00, -0.00, -1.00, 0.0, 120.0)"><image xlink:href="C3547F69D3845DE1D1561404ADDDF8CB.png" width="847.00" height="57.00" transform="matrix(1.00, 0.00, -0.00, -1.00, 2.0, 118.0)"></image><text xml:space="preserve" font-family="Helvetica-Bold" font-weight="bold" font-size="25.2" fill="#FF2600" transform="matrix(1.00, 0.00, -0.00, -1.00, 17.0, 83.0)">M</text><text xml:space="preserve" font-family="Helvetica-Bold" font-weight="bold" font-size="25.2" fill="#FF2600" transform="matrix(1.00, 0.00, -0.00, -1.00, 38.0, 83.0)">o</text><text xml:space="preserve" font-family="Helvetica-Bold" font-weight="bold" font-size="25.2" fill="#FF2600" transform="matrix(1.00, 0.00, -0.00, -1.00, 53.3, 83.0)">r</text><text xml:space="preserve" font-family="Helvetica-Bold" font-weight="bold" font-size="25.2" fill="#FF2600" transform="matrix(1.00, 0.00, -0.00, -1.00, 63.1, 83.0)">e</text><text xml:space="preserve" font-family="Helvetica-Bold" font-weight="bold" font-size="25.2" fill="#FF2600" transform="matrix(1.00, 0.00, -0.00, -1.00, 77.1, 83.0)"> </text><text xml:space="preserve" font-family="Helvetica-Bold" font-weight="bold" font-size="25.2" fill="#FF2600" transform="matrix(1.00, 0.00, -0.00, -1.00, 84.1, 83.0)">t</text><text xml:space="preserve" font-family="Helvetica-Bold" font-weight="bold" font-size="25.2" fill="#FF2600" transform="matrix(1.00, 0.00, -0.00, -1.00, 92.5, 83.0)">o</text><text xml:space="preserve" font-family="Helvetica-Bold" font-weight="bold" font-size="25.2" fill="#FF2600" transform="matrix(1.00, 0.00, -0.00, -1.00, 107.8, 83.0)"> </text><text xml:space="preserve" font-family="Helvetica-Bold" font-weight="bold" font-size="25.2" fill="#FF2600" transform="matrix(1.00, 0.00, -0.00, -1.00, 114.8, 83.0)">t</text><text xml:space="preserve" font-family="Helvetica-Bold" font-weight="bold" font-size="25.2" fill="#FF2600" transform="matrix(1.00, 0.00, -0.00, -1.00, 123.2, 83.0)">h</text><text xml:space="preserve" font-family="Helvetica-Bold" font-weight="bold" font-size="25.2" fill="#FF2600" transform="matrix(1.00, 0.00, -0.00, -1.00, 138.6, 83.0)">e</text><text xml:space="preserve" font-family="Helvetica-Bold" font-weight="bold" font-size="25.2" fill="#FF2600" transform="matrix(1.00, 0.00, -0.00, -1.00, 152.6, 83.0)"> </text><text xml:space="preserve" font-family="Helvetica-Bold" font-weight="bold" font-size="25.2" fill="#FF2600" transform="matrix(1.00, 0.00, -0.00, -1.00, 159.6, 83.0)">p</text><text xml:space="preserve" font-family="Helvetica-Bold" font-weight="bold" font-size="25.2" fill="#FF2600" transform="matrix(1.00, 0.00, -0.00, -1.00, 174.9, 83.0)">o</text><text xml:space="preserve" font-family="Helvetica-Bold" font-weight="bold" font-size="25.2" fill="#FF2600" transform="matrix(1.00, 0.00, -0.00, -1.00, 190.3, 83.0)">i</text><text xml:space="preserve" font-family="Helvetica-Bold" font-weight="bold" font-size="25.2" fill="#FF2600" transform="matrix(1.00, 0.00, -0.00, -1.00, 197.3, 83.0)">n</text><text xml:space="preserve" font-family="Helvetica-Bold" font-weight="bold" font-size="25.2" fill="#FF2600" transform="matrix(1.00, 0.00, -0.00, -1.00, 212.6, 83.0)">t</text><text xml:space="preserve" font-family="Helvetica-Bold" font-weight="bold" font-size="25.2" fill="#FF2600" transform="matrix(1.00, 0.00, -0.00, -1.00, 221.0, 83.0)"> </text><text xml:space="preserve" font-family="Helvetica-Bold" font-weight="bold" font-size="25.2" fill="#FF2600" transform="matrix(1.00, 0.00, -0.00, -1.00, 228.0, 83.0)">f</text><text xml:space="preserve" font-family="Helvetica-Bold" font-weight="bold" font-size="25.2" fill="#FF2600" transform="matrix(1.00, 0.00, -0.00, -1.00, 236.4, 83.0)">o</text><text xml:space="preserve" font-family="Helvetica-Bold" font-weight="bold" font-size="25.2" fill="#FF2600" transform="matrix(1.00, 0.00, -0.00, -1.00, 251.7, 83.0)">r</text><text xml:space="preserve" font-family="Helvetica-Bold" font-weight="bold" font-size="25.2" fill="#FF2600" transform="matrix(1.00, 0.00, -0.00, -1.00, 261.5, 83.0)"> </text><text xml:space="preserve" font-family="Helvetica-Bold" font-weight="bold" font-size="25.2" fill="#FF2600" transform="matrix(1.00, 0.00, -0.00, -1.00, 268.5, 83.0)">t</text><text xml:space="preserve" font-family="Helvetica-Bold" font-weight="bold" font-size="25.2" fill="#FF2600" transform="matrix(1.00, 0.00, -0.00, -1.00, 276.9, 83.0)">h</text><text xml:space="preserve" font-family="Helvetica-Bold" font-weight="bold" font-size="25.2" fill="#FF2600" transform="matrix(1.00, 0.00, -0.00, -1.00, 292.3, 83.0)">i</text><text xml:space="preserve" font-family="Helvetica-Bold" font-weight="bold" font-size="25.2" fill="#FF2600" transform="matrix(1.00, 0.00, -0.00, -1.00, 299.2, 83.0)">s</text><text xml:space="preserve" font-family="Helvetica-Bold" font-weight="bold" font-size="25.2" fill="#FF2600" transform="matrix(1.00, 0.00, -0.00, -1.00, 313.2, 83.0)"> </text><text xml:space="preserve" font-family="Helvetica-Bold" font-weight="bold" font-size="25.2" fill="#FF2600" transform="matrix(1.00, 0.00, -0.00, -1.00, 320.2, 83.0)">p</text><text xml:space="preserve" font-family="Helvetica-Bold" font-weight="bold" font-size="25.2" fill="#FF2600" transform="matrix(1.00, 0.00, -0.00, -1.00, 335.6, 83.0)">r</text><text xml:space="preserve" font-family="Helvetica-Bold" font-weight="bold" font-size="25.2" fill="#FF2600" transform="matrix(1.00, 0.00, -0.00, -1.00, 345.4, 83.0)">e</text><text xml:space="preserve" font-family="Helvetica-Bold" font-weight="bold" font-size="25.2" fill="#FF2600" transform="matrix(1.00, 0.00, -0.00, -1.00, 359.4, 83.0)">s</text><text xml:space="preserve" font-family="Helvetica-Bold" font-weight="bold" font-size="25.2" fill="#FF2600" transform="matrix(1.00, 0.00, -0.00, -1.00, 373.4, 83.0)">e</text><text xml:space="preserve" font-family="Helvetica-Bold" font-weight="bold" font-size="25.2" fill="#FF2600" transform="matrix(1.00, 0.00, -0.00, -1.00, 387.4, 83.0)">n</text><text xml:space="preserve" font-family="Helvetica-Bold" font-weight="bold" font-size="25.2" fill="#FF2600" transform="matrix(1.00, 0.00, -0.00, -1.00, 402.7, 83.0)">t</text><text xml:space="preserve" font-family="Helvetica-Bold" font-weight="bold" font-size="25.2" fill="#FF2600" transform="matrix(1.00, 0.00, -0.00, -1.00, 411.1, 83.0)">a</text><text xml:space="preserve" font-family="Helvetica-Bold" font-weight="bold" font-size="25.2" fill="#FF2600" transform="matrix(1.00, 0.00, -0.00, -1.00, 425.1, 83.0)">t</text><text xml:space="preserve" font-family="Helvetica-Bold" font-weight="bold" font-size="25.2" fill="#FF2600" transform="matrix(1.00, 0.00, -0.00, -1.00, 433.5, 83.0)">i</text><text xml:space="preserve" font-family="Helvetica-Bold" font-weight="bold" font-size="25.2" fill="#FF2600" transform="matrix(1.00, 0.00, -0.00, -1.00, 440.5, 83.0)">o</text><text xml:space="preserve" font-family="Helvetica-Bold" font-weight="bold" font-size="25.2" fill="#FF2600" transform="matrix(1.00, 0.00, -0.00, -1.00, 455.8, 83.0)">n</text><text xml:space="preserve" font-family="Helvetica-Bold" font-weight="bold" font-size="25.2" fill="#FF2600" transform="matrix(1.00, 0.00, -0.00, -1.00, 471.2, 83.0)">,</text><text xml:space="preserve" font-family="Helvetica-Bold" font-weight="bold" font-size="25.2" fill="#FF2600" transform="matrix(1.00, 0.00, -0.00, -1.00, 478.2, 83.0)"> </text><text xml:space="preserve" font-family="Helvetica-Bold" font-weight="bold" font-size="25.2" fill="#FF2600" transform="matrix(1.00, 0.00, -0.00, -1.00, 485.2, 83.0)">T</text><text xml:space="preserve" font-family="Helvetica-Bold" font-weight="bold" font-size="25.2" fill="#FF2600" transform="matrix(1.00, 0.00, -0.00, -1.00, 498.7, 83.0)">y</text><text xml:space="preserve" font-family="Helvetica-Bold" font-weight="bold" font-size="25.2" fill="#FF2600" transform="matrix(1.00, 0.00, -0.00, -1.00, 512.7, 83.0)">p</text><text xml:space="preserve" font-family="Helvetica-Bold" font-weight="bold" font-size="25.2" fill="#FF2600" transform="matrix(1.00, 0.00, -0.00, -1.00, 528.1, 83.0)">e</text><text xml:space="preserve" font-family="Helvetica-Bold" font-weight="bold" font-size="25.2" fill="#FF2600" transform="matrix(1.00, 0.00, -0.00, -1.00, 542.1, 83.0)">S</text><text xml:space="preserve" font-family="Helvetica-Bold" font-weight="bold" font-size="25.2" fill="#FF2600" transform="matrix(1.00, 0.00, -0.00, -1.00, 558.8, 83.0)">c</text><text xml:space="preserve" font-family="Helvetica-Bold" font-weight="bold" font-size="25.2" fill="#FF2600" transform="matrix(1.00, 0.00, -0.00, -1.00, 572.8, 83.0)">r</text><text xml:space="preserve" font-family="Helvetica-Bold" font-weight="bold" font-size="25.2" fill="#FF2600" transform="matrix(1.00, 0.00, -0.00, -1.00, 582.6, 83.0)">i</text><text xml:space="preserve" font-family="Helvetica-Bold" font-weight="bold" font-size="25.2" fill="#FF2600" transform="matrix(1.00, 0.00, -0.00, -1.00, 589.6, 83.0)">p</text><text xml:space="preserve" font-family="Helvetica-Bold" font-weight="bold" font-size="25.2" fill="#FF2600" transform="matrix(1.00, 0.00, -0.00, -1.00, 605.0, 83.0)">t</text><text xml:space="preserve" font-family="Helvetica-Bold" font-weight="bold" font-size="25.2" fill="#FF2600" transform="matrix(1.00, 0.00, -0.00, -1.00, 613.4, 83.0)"> </text><text xml:space="preserve" font-family="Helvetica-Bold" font-weight="bold" font-size="25.2" fill="#FF2600" transform="matrix(1.00, 0.00, -0.00, -1.00, 620.3, 83.0)">i</text><text xml:space="preserve" font-family="Helvetica-Bold" font-weight="bold" font-size="25.2" fill="#FF2600" transform="matrix(1.00, 0.00, -0.00, -1.00, 627.3, 83.0)">s</text><text xml:space="preserve" font-family="Helvetica-Bold" font-weight="bold" font-size="25.2" fill="#FF2600" transform="matrix(1.00, 0.00, -0.00, -1.00, 641.3, 83.0)"> </text><text xml:space="preserve" font-family="Helvetica-Bold" font-weight="bold" font-size="25.2" fill="#FF2600" transform="matrix(1.00, 0.00, -0.00, -1.00, 648.3, 83.0)">a</text><text xml:space="preserve" font-family="Helvetica-Bold" font-weight="bold" font-size="25.2" fill="#FF2600" transform="matrix(1.00, 0.00, -0.00, -1.00, 662.3, 83.0)"> </text><text xml:space="preserve" font-family="Helvetica-Bold" font-weight="bold" font-size="25.2" fill="#FF2600" transform="matrix(1.00, 0.00, -0.00, -1.00, 669.3, 83.0)">l</text><text xml:space="preserve" font-family="Helvetica-Bold" font-weight="bold" font-size="25.2" fill="#FF2600" transform="matrix(1.00, 0.00, -0.00, -1.00, 676.3, 83.0)">a</text><text xml:space="preserve" font-family="Helvetica-Bold" font-weight="bold" font-size="25.2" fill="#FF2600" transform="matrix(1.00, 0.00, -0.00, -1.00, 690.3, 83.0)">n</text><text xml:space="preserve" font-family="Helvetica-Bold" font-weight="bold" font-size="25.2" fill="#FF2600" transform="matrix(1.00, 0.00, -0.00, -1.00, 705.6, 83.0)">g</text><text xml:space="preserve" font-family="Helvetica-Bold" font-weight="bold" font-size="25.2" fill="#FF2600" transform="matrix(1.00, 0.00, -0.00, -1.00, 721.0, 83.0)">u</text><text xml:space="preserve" font-family="Helvetica-Bold" font-weight="bold" font-size="25.2" fill="#FF2600" transform="matrix(1.00, 0.00, -0.00, -1.00, 736.4, 83.0)">a</text><text xml:space="preserve" font-family="Helvetica-Bold" font-weight="bold" font-size="25.2" fill="#FF2600" transform="matrix(1.00, 0.00, -0.00, -1.00, 750.4, 83.0)">g</text><text xml:space="preserve" font-family="Helvetica-Bold" font-weight="bold" font-size="25.2" fill="#FF2600" transform="matrix(1.00, 0.00, -0.00, -1.00, 765.7, 83.0)">e</text><text xml:space="preserve" font-family="Helvetica-Bold" font-weight="bold" font-size="25.2" fill="#FF2600" transform="matrix(1.00, 0.00, -0.00, -1.00, 779.7, 83.0)"> </text><text xml:space="preserve" font-family="Helvetica-Bold" font-weight="bold" font-size="25.2" fill="#FF2600" transform="matrix(1.00, 0.00, -0.00, -1.00, 786.7, 83.0)">t</text><text xml:space="preserve" font-family="Helvetica-Bold" font-weight="bold" font-size="25.2" fill="#FF2600" transform="matrix(1.00, 0.00, -0.00, -1.00, 795.1, 83.0)">h</text><text xml:space="preserve" font-family="Helvetica-Bold" font-weight="bold" font-size="25.2" fill="#FF2600" transform="matrix(1.00, 0.00, -0.00, -1.00, 810.5, 83.0)">a</text><text xml:space="preserve" font-family="Helvetica-Bold" font-weight="bold" font-size="25.2" fill="#FF2600" transform="matrix(1.00, 0.00, -0.00, -1.00, 824.5, 83.0)">t</text><text xml:space="preserve" font-family="Helvetica-Bold" font-weight="bold" font-size="25.2" fill="#FF2600" transform="matrix(1.00, 0.00, -0.00, -1.00, 832.8, 83.0)"> </text><image xlink:href="6ECFE83355D1EAC4CE82373C19B57EAA.png" width="836.00" height="57.00" transform="matrix(1.00, 0.00, -0.00, -1.00, 1.0, 88.0)"></image><text xml:space="preserve" font-family="Helvetica-Bold" font-weight="bold" font-size="25.2" fill="#FF2600" transform="matrix(1.00, 0.00, -0.00, -1.00, 17.0, 53.0)">s</text><text xml:space="preserve" font-family="Helvetica-Bold" font-weight="bold" font-size="25.2" fill="#FF2600" transform="matrix(1.00, 0.00, -0.00, -1.00, 31.0, 53.0)">e</text><text xml:space="preserve" font-family="Helvetica-Bold" font-weight="bold" font-size="25.2" fill="#FF2600" transform="matrix(1.00, 0.00, -0.00, -1.00, 45.0, 53.0)">r</text><text xml:space="preserve" font-family="Helvetica-Bold" font-weight="bold" font-size="25.2" fill="#FF2600" transform="matrix(1.00, 0.00, -0.00, -1.00, 54.8, 53.0)">v</text><text xml:space="preserve" font-family="Helvetica-Bold" font-weight="bold" font-size="25.2" fill="#FF2600" transform="matrix(1.00, 0.00, -0.00, -1.00, 68.8, 53.0)">e</text><text xml:space="preserve" font-family="Helvetica-Bold" font-weight="bold" font-size="25.2" fill="#FF2600" transform="matrix(1.00, 0.00, -0.00, -1.00, 82.8, 53.0)">r</text><text xml:space="preserve" font-family="Helvetica-Bold" font-weight="bold" font-size="25.2" fill="#FF2600" transform="matrix(1.00, 0.00, -0.00, -1.00, 92.6, 53.0)"> </text><text xml:space="preserve" font-family="Helvetica-Bold" font-weight="bold" font-size="25.2" fill="#FF2600" transform="matrix(1.00, 0.00, -0.00, -1.00, 99.6, 53.0)">d</text><text xml:space="preserve" font-family="Helvetica-Bold" font-weight="bold" font-size="25.2" fill="#FF2600" transform="matrix(1.00, 0.00, -0.00, -1.00, 114.9, 53.0)">e</text><text xml:space="preserve" font-family="Helvetica-Bold" font-weight="bold" font-size="25.2" fill="#FF2600" transform="matrix(1.00, 0.00, -0.00, -1.00, 128.9, 53.0)">v</text><text xml:space="preserve" font-family="Helvetica-Bold" font-weight="bold" font-size="25.2" fill="#FF2600" transform="matrix(1.00, 0.00, -0.00, -1.00, 142.9, 53.0)">e</text><text xml:space="preserve" font-family="Helvetica-Bold" font-weight="bold" font-size="25.2" fill="#FF2600" transform="matrix(1.00, 0.00, -0.00, -1.00, 156.9, 53.0)">l</text><text xml:space="preserve" font-family="Helvetica-Bold" font-weight="bold" font-size="25.2" fill="#FF2600" transform="matrix(1.00, 0.00, -0.00, -1.00, 163.9, 53.0)">o</text><text xml:space="preserve" font-family="Helvetica-Bold" font-weight="bold" font-size="25.2" fill="#FF2600" transform="matrix(1.00, 0.00, -0.00, -1.00, 179.3, 53.0)">p</text><text xml:space="preserve" font-family="Helvetica-Bold" font-weight="bold" font-size="25.2" fill="#FF2600" transform="matrix(1.00, 0.00, -0.00, -1.00, 194.6, 53.0)">e</text><text xml:space="preserve" font-family="Helvetica-Bold" font-weight="bold" font-size="25.2" fill="#FF2600" transform="matrix(1.00, 0.00, -0.00, -1.00, 208.6, 53.0)">r</text><text xml:space="preserve" font-family="Helvetica-Bold" font-weight="bold" font-size="25.2" fill="#FF2600" transform="matrix(1.00, 0.00, -0.00, -1.00, 218.4, 53.0)">s</text><text xml:space="preserve" font-family="Helvetica-Bold" font-weight="bold" font-size="25.2" fill="#FF2600" transform="matrix(1.00, 0.00, -0.00, -1.00, 232.4, 53.0)"> </text><text xml:space="preserve" font-family="Helvetica-Bold" font-weight="bold" font-size="25.2" fill="#FF2600" transform="matrix(1.00, 0.00, -0.00, -1.00, 239.4, 53.0)">c</text><text xml:space="preserve" font-family="Helvetica-Bold" font-weight="bold" font-size="25.2" fill="#FF2600" transform="matrix(1.00, 0.00, -0.00, -1.00, 253.4, 53.0)">a</text><text xml:space="preserve" font-family="Helvetica-Bold" font-weight="bold" font-size="25.2" fill="#FF2600" transform="matrix(1.00, 0.00, -0.00, -1.00, 267.4, 53.0)">n</text><text xml:space="preserve" font-family="Helvetica-Bold" font-weight="bold" font-size="25.2" fill="#FF2600" transform="matrix(1.00, 0.00, -0.00, -1.00, 282.8, 53.0)"> </text><text xml:space="preserve" font-family="Helvetica-Bold" font-weight="bold" font-size="25.2" fill="#FF2600" transform="matrix(1.00, 0.00, -0.00, -1.00, 289.8, 53.0)">u</text><text xml:space="preserve" font-family="Helvetica-Bold" font-weight="bold" font-size="25.2" fill="#FF2600" transform="matrix(1.00, 0.00, -0.00, -1.00, 305.1, 53.0)">s</text><text xml:space="preserve" font-family="Helvetica-Bold" font-weight="bold" font-size="25.2" fill="#FF2600" transform="matrix(1.00, 0.00, -0.00, -1.00, 319.1, 53.0)">e</text><text xml:space="preserve" font-family="Helvetica-Bold" font-weight="bold" font-size="25.2" fill="#FF2600" transform="matrix(1.00, 0.00, -0.00, -1.00, 333.1, 53.0)"> </text><text xml:space="preserve" font-family="Helvetica-Bold" font-weight="bold" font-size="25.2" fill="#FF2600" transform="matrix(1.00, 0.00, -0.00, -1.00, 340.1, 53.0)">w</text><text xml:space="preserve" font-family="Helvetica-Bold" font-weight="bold" font-size="25.2" fill="#FF2600" transform="matrix(1.00, 0.00, -0.00, -1.00, 359.7, 53.0)">i</text><text xml:space="preserve" font-family="Helvetica-Bold" font-weight="bold" font-size="25.2" fill="#FF2600" transform="matrix(1.00, 0.00, -0.00, -1.00, 366.7, 53.0)">t</text><text xml:space="preserve" font-family="Helvetica-Bold" font-weight="bold" font-size="25.2" fill="#FF2600" transform="matrix(1.00, 0.00, -0.00, -1.00, 375.0, 53.0)">h</text><text xml:space="preserve" font-family="Helvetica-Bold" font-weight="bold" font-size="25.2" fill="#FF2600" transform="matrix(1.00, 0.00, -0.00, -1.00, 390.4, 53.0)">o</text><text xml:space="preserve" font-family="Helvetica-Bold" font-weight="bold" font-size="25.2" fill="#FF2600" transform="matrix(1.00, 0.00, -0.00, -1.00, 405.8, 53.0)">u</text><text xml:space="preserve" font-family="Helvetica-Bold" font-weight="bold" font-size="25.2" fill="#FF2600" transform="matrix(1.00, 0.00, -0.00, -1.00, 421.1, 53.0)">t</text><text xml:space="preserve" font-family="Helvetica-Bold" font-weight="bold" font-size="25.2" fill="#FF2600" transform="matrix(1.00, 0.00, -0.00, -1.00, 429.5, 53.0)"> </text><text xml:space="preserve" font-family="Helvetica-Bold" font-weight="bold" font-size="25.2" fill="#FF2600" transform="matrix(1.00, 0.00, -0.00, -1.00, 436.5, 53.0)">f</text><text xml:space="preserve" font-family="Helvetica-Bold" font-weight="bold" font-size="25.2" fill="#FF2600" transform="matrix(1.00, 0.00, -0.00, -1.00, 444.9, 53.0)">e</text><text xml:space="preserve" font-family="Helvetica-Bold" font-weight="bold" font-size="25.2" fill="#FF2600" transform="matrix(1.00, 0.00, -0.00, -1.00, 458.9, 53.0)">e</text><text xml:space="preserve" font-family="Helvetica-Bold" font-weight="bold" font-size="25.2" fill="#FF2600" transform="matrix(1.00, 0.00, -0.00, -1.00, 472.9, 53.0)">l</text><text xml:space="preserve" font-family="Helvetica-Bold" font-weight="bold" font-size="25.2" fill="#FF2600" transform="matrix(1.00, 0.00, -0.00, -1.00, 479.8, 53.0)">i</text><text xml:space="preserve" font-family="Helvetica-Bold" font-weight="bold" font-size="25.2" fill="#FF2600" transform="matrix(1.00, 0.00, -0.00, -1.00, 486.8, 53.0)">n</text><text xml:space="preserve" font-family="Helvetica-Bold" font-weight="bold" font-size="25.2" fill="#FF2600" transform="matrix(1.00, 0.00, -0.00, -1.00, 502.2, 53.0)">g</text><text xml:space="preserve" font-family="Helvetica-Bold" font-weight="bold" font-size="25.2" fill="#FF2600" transform="matrix(1.00, 0.00, -0.00, -1.00, 517.6, 53.0)"> </text><text xml:space="preserve" font-family="Helvetica-Bold" font-weight="bold" font-size="25.2" fill="#FF2600" transform="matrix(1.00, 0.00, -0.00, -1.00, 524.5, 53.0)">l</text><text xml:space="preserve" font-family="Helvetica-Bold" font-weight="bold" font-size="25.2" fill="#FF2600" transform="matrix(1.00, 0.00, -0.00, -1.00, 531.5, 53.0)">i</text><text xml:space="preserve" font-family="Helvetica-Bold" font-weight="bold" font-size="25.2" fill="#FF2600" transform="matrix(1.00, 0.00, -0.00, -1.00, 538.5, 53.0)">k</text><text xml:space="preserve" font-family="Helvetica-Bold" font-weight="bold" font-size="25.2" fill="#FF2600" transform="matrix(1.00, 0.00, -0.00, -1.00, 552.5, 53.0)">e</text><text xml:space="preserve" font-family="Helvetica-Bold" font-weight="bold" font-size="25.2" fill="#FF2600" transform="matrix(1.00, 0.00, -0.00, -1.00, 566.5, 53.0)"> </text><text xml:space="preserve" font-family="Helvetica-Bold" font-weight="bold" font-size="25.2" fill="#FF2600" transform="matrix(1.00, 0.00, -0.00, -1.00, 573.5, 53.0)">t</text><text xml:space="preserve" font-family="Helvetica-Bold" font-weight="bold" font-size="25.2" fill="#FF2600" transform="matrix(1.00, 0.00, -0.00, -1.00, 581.9, 53.0)">h</text><text xml:space="preserve" font-family="Helvetica-Bold" font-weight="bold" font-size="25.2" fill="#FF2600" transform="matrix(1.00, 0.00, -0.00, -1.00, 597.2, 53.0)">e</text><text xml:space="preserve" font-family="Helvetica-Bold" font-weight="bold" font-size="25.2" fill="#FF2600" transform="matrix(1.00, 0.00, -0.00, -1.00, 611.2, 53.0)">y</text><text xml:space="preserve" font-family="Helvetica-Bold" font-weight="bold" font-size="25.2" fill="#FF2600" transform="matrix(1.00, 0.00, -0.00, -1.00, 625.2, 53.0)"> </text><text xml:space="preserve" font-family="Helvetica-Bold" font-weight="bold" font-size="25.2" fill="#FF2600" transform="matrix(1.00, 0.00, -0.00, -1.00, 632.2, 53.0)">a</text><text xml:space="preserve" font-family="Helvetica-Bold" font-weight="bold" font-size="25.2" fill="#FF2600" transform="matrix(1.00, 0.00, -0.00, -1.00, 646.2, 53.0)">r</text><text xml:space="preserve" font-family="Helvetica-Bold" font-weight="bold" font-size="25.2" fill="#FF2600" transform="matrix(1.00, 0.00, -0.00, -1.00, 656.0, 53.0)">e</text><text xml:space="preserve" font-family="Helvetica-Bold" font-weight="bold" font-size="25.2" fill="#FF2600" transform="matrix(1.00, 0.00, -0.00, -1.00, 670.0, 53.0)"> </text><text xml:space="preserve" font-family="Helvetica-Bold" font-weight="bold" font-size="25.2" fill="#FF2600" transform="matrix(1.00, 0.00, -0.00, -1.00, 677.0, 53.0)">e</text><text xml:space="preserve" font-family="Helvetica-Bold" font-weight="bold" font-size="25.2" fill="#FF2600" transform="matrix(1.00, 0.00, -0.00, -1.00, 691.0, 53.0)">n</text><text xml:space="preserve" font-family="Helvetica-Bold" font-weight="bold" font-size="25.2" fill="#FF2600" transform="matrix(1.00, 0.00, -0.00, -1.00, 706.4, 53.0)">t</text><text xml:space="preserve" font-family="Helvetica-Bold" font-weight="bold" font-size="25.2" fill="#FF2600" transform="matrix(1.00, 0.00, -0.00, -1.00, 714.7, 53.0)">e</text><text xml:space="preserve" font-family="Helvetica-Bold" font-weight="bold" font-size="25.2" fill="#FF2600" transform="matrix(1.00, 0.00, -0.00, -1.00, 728.7, 53.0)">r</text><text xml:space="preserve" font-family="Helvetica-Bold" font-weight="bold" font-size="25.2" fill="#FF2600" transform="matrix(1.00, 0.00, -0.00, -1.00, 738.5, 53.0)">i</text><text xml:space="preserve" font-family="Helvetica-Bold" font-weight="bold" font-size="25.2" fill="#FF2600" transform="matrix(1.00, 0.00, -0.00, -1.00, 745.5, 53.0)">n</text><text xml:space="preserve" font-family="Helvetica-Bold" font-weight="bold" font-size="25.2" fill="#FF2600" transform="matrix(1.00, 0.00, -0.00, -1.00, 760.9, 53.0)">g</text><text xml:space="preserve" font-family="Helvetica-Bold" font-weight="bold" font-size="25.2" fill="#FF2600" transform="matrix(1.00, 0.00, -0.00, -1.00, 776.2, 53.0)"> </text><text xml:space="preserve" font-family="Helvetica-Bold" font-weight="bold" font-size="25.2" fill="#FF2600" transform="matrix(1.00, 0.00, -0.00, -1.00, 783.2, 53.0)">t</text><text xml:space="preserve" font-family="Helvetica-Bold" font-weight="bold" font-size="25.2" fill="#FF2600" transform="matrix(1.00, 0.00, -0.00, -1.00, 791.6, 53.0)">h</text><text xml:space="preserve" font-family="Helvetica-Bold" font-weight="bold" font-size="25.2" fill="#FF2600" transform="matrix(1.00, 0.00, -0.00, -1.00, 807.0, 53.0)">e</text><text xml:space="preserve" font-family="Helvetica-Bold" font-weight="bold" font-size="25.2" fill="#FF2600" transform="matrix(1.00, 0.00, -0.00, -1.00, 821.0, 53.0)"> </text><image xlink:href="4EBDE9B0F659111936AC3F17D9EF679A.png" width="190.00" height="57.00" transform="matrix(1.00, 0.00, -0.00, -1.00, 1.0, 58.0)"></image><text xml:space="preserve" font-family="Helvetica-Bold" font-weight="bold" font-size="25.2" fill="#FF2600" transform="matrix(1.00, 0.00, -0.00, -1.00, 17.0, 23.0)">t</text><text xml:space="preserve" font-family="Helvetica-Bold" font-weight="bold" font-size="25.2" fill="#FF2600" transform="matrix(1.00, 0.00, -0.00, -1.00, 25.4, 23.0)">w</text><text xml:space="preserve" font-family="Helvetica-Bold" font-weight="bold" font-size="25.2" fill="#FF2600" transform="matrix(1.00, 0.00, -0.00, -1.00, 44.9, 23.0)">i</text><text xml:space="preserve" font-family="Helvetica-Bold" font-weight="bold" font-size="25.2" fill="#FF2600" transform="matrix(1.00, 0.00, -0.00, -1.00, 51.9, 23.0)">l</text><text xml:space="preserve" font-family="Helvetica-Bold" font-weight="bold" font-size="25.2" fill="#FF2600" transform="matrix(1.00, 0.00, -0.00, -1.00, 58.9, 23.0)">i</text><text xml:space="preserve" font-family="Helvetica-Bold" font-weight="bold" font-size="25.2" fill="#FF2600" transform="matrix(1.00, 0.00, -0.00, -1.00, 65.9, 23.0)">g</text><text xml:space="preserve" font-family="Helvetica-Bold" font-weight="bold" font-size="25.2" fill="#FF2600" transform="matrix(1.00, 0.00, -0.00, -1.00, 81.3, 23.0)">h</text><text xml:space="preserve" font-family="Helvetica-Bold" font-weight="bold" font-size="25.2" fill="#FF2600" transform="matrix(1.00, 0.00, -0.00, -1.00, 96.6, 23.0)">t</text><text xml:space="preserve" font-family="Helvetica-Bold" font-weight="bold" font-size="25.2" fill="#FF2600" transform="matrix(1.00, 0.00, -0.00, -1.00, 105.0, 23.0)"> </text><text xml:space="preserve" font-family="Helvetica-Bold" font-weight="bold" font-size="25.2" fill="#FF2600" transform="matrix(1.00, 0.00, -0.00, -1.00, 112.0, 23.0)">z</text><text xml:space="preserve" font-family="Helvetica-Bold" font-weight="bold" font-size="25.2" fill="#FF2600" transform="matrix(1.00, 0.00, -0.00, -1.00, 124.6, 23.0)">o</text><text xml:space="preserve" font-family="Helvetica-Bold" font-weight="bold" font-size="25.2" fill="#FF2600" transform="matrix(1.00, 0.00, -0.00, -1.00, 139.9, 23.0)">n</text><text xml:space="preserve" font-family="Helvetica-Bold" font-weight="bold" font-size="25.2" fill="#FF2600" transform="matrix(1.00, 0.00, -0.00, -1.00, 155.3, 23.0)">e</text><text xml:space="preserve" font-family="Helvetica-Bold" font-weight="bold" font-size="25.2" fill="#FF2600" transform="matrix(1.00, 0.00, -0.00, -1.00, 169.3, 23.0)">.</text></g></svg>