<?xml version="1.0" encoding="UTF-8" standalone="no"?><svg xmlns="http://www.w3.org/2000/svg" xmlns:xlink="http://www.w3.org/1999/xlink" clip-rule="evenodd" stroke-miterlimit="4.00" viewBox="0 0 847 72"><desc>SVG generated by Keynote</desc><defs></defs><g transform="matrix(1.00, 0.00, -0.00, -1.00, 0.0, 72.0)"><image xlink:href="../../DF2D54B8-2A0A-4E21-8EBB-66756B817873/assets/38A071EE576464466F2287B454944FB7.png" width="842.00" height="39.00" transform="matrix(1.00, 0.00, -0.00, -1.00, 3.0, 71.0)"></image><text xml:space="preserve" font-family="Helvetica-Light" font-size="25.2" fill="#EAEAEA" transform="matrix(1.00, 0.00, -0.00, -1.00, 5.0, 48.0)">"</text><text xml:space="preserve" font-family="Helvetica-Light" font-size="25.2" fill="#EAEAEA" transform="matrix(1.00, 0.00, -0.00, -1.00, 12.0, 48.0)">T</text><text xml:space="preserve" font-family="Helvetica-Light" font-size="25.2" fill="#EAEAEA" transform="matrix(1.00, 0.00, -0.00, -1.00, 26.0, 48.0)">h</text><text xml:space="preserve" font-family="Helvetica-Light" font-size="25.2" fill="#EAEAEA" transform="matrix(1.00, 0.00, -0.00, -1.00, 40.0, 48.0)">e</text><text xml:space="preserve" font-family="Helvetica-Light" font-size="25.2" fill="#EAEAEA" transform="matrix(1.00, 0.00, -0.00, -1.00, 54.0, 48.0)"> </text><text xml:space="preserve" font-family="Helvetica-Light" font-size="25.2" fill="#EAEAEA" transform="matrix(1.00, 0.00, -0.00, -1.00, 61.0, 48.0)">r</text><text xml:space="preserve" font-family="Helvetica-Light" font-size="25.2" fill="#EAEAEA" transform="matrix(1.00, 0.00, -0.00, -1.00, 68.9, 48.0)">e</text><text xml:space="preserve" font-family="Helvetica-Light" font-size="25.2" fill="#EAEAEA" transform="matrix(1.00, 0.00, -0.00, -1.00, 82.9, 48.0)">a</text><text xml:space="preserve" font-family="Helvetica-Light" font-size="25.2" fill="#EAEAEA" transform="matrix(1.00, 0.00, -0.00, -1.00, 96.9, 48.0)">s</text><text xml:space="preserve" font-family="Helvetica-Light" font-size="25.2" fill="#EAEAEA" transform="matrix(1.00, 0.00, -0.00, -1.00, 109.4, 48.0)">o</text><text xml:space="preserve" font-family="Helvetica-Light" font-size="25.2" fill="#EAEAEA" transform="matrix(1.00, 0.00, -0.00, -1.00, 123.4, 48.0)">n</text><text xml:space="preserve" font-family="Helvetica-Light" font-size="25.2" fill="#EAEAEA" transform="matrix(1.00, 0.00, -0.00, -1.00, 137.4, 48.0)"> </text><text xml:space="preserve" font-family="Helvetica-Light" font-size="25.2" fill="#EAEAEA" transform="matrix(1.00, 0.00, -0.00, -1.00, 144.4, 48.0)">T</text><text xml:space="preserve" font-family="Helvetica-Light" font-size="25.2" fill="#EAEAEA" transform="matrix(1.00, 0.00, -0.00, -1.00, 156.3, 48.0)">y</text><text xml:space="preserve" font-family="Helvetica-Light" font-size="25.2" fill="#EAEAEA" transform="matrix(1.00, 0.00, -0.00, -1.00, 168.9, 48.0)">p</text><text xml:space="preserve" font-family="Helvetica-Light" font-size="25.2" fill="#EAEAEA" transform="matrix(1.00, 0.00, -0.00, -1.00, 184.2, 48.0)">e</text><text xml:space="preserve" font-family="Helvetica-Light" font-size="25.2" fill="#EAEAEA" transform="matrix(1.00, 0.00, -0.00, -1.00, 198.2, 48.0)">S</text><text xml:space="preserve" font-family="Helvetica-Light" font-size="25.2" fill="#EAEAEA" transform="matrix(1.00, 0.00, -0.00, -1.00, 213.6, 48.0)">c</text><text xml:space="preserve" font-family="Helvetica-Light" font-size="25.2" fill="#EAEAEA" transform="matrix(1.00, 0.00, -0.00, -1.00, 227.6, 48.0)">r</text><text xml:space="preserve" font-family="Helvetica-Light" font-size="25.2" fill="#EAEAEA" transform="matrix(1.00, 0.00, -0.00, -1.00, 236.0, 48.0)">i</text><text xml:space="preserve" font-family="Helvetica-Light" font-size="25.2" fill="#EAEAEA" transform="matrix(1.00, 0.00, -0.00, -1.00, 241.6, 48.0)">p</text><text xml:space="preserve" font-family="Helvetica-Light" font-size="25.2" fill="#EAEAEA" transform="matrix(1.00, 0.00, -0.00, -1.00, 256.9, 48.0)">t</text><text xml:space="preserve" font-family="Helvetica-Light" font-size="25.2" fill="#EAEAEA" transform="matrix(1.00, 0.00, -0.00, -1.00, 263.9, 48.0)">’</text><text xml:space="preserve" font-family="Helvetica-Light" font-size="25.2" fill="#EAEAEA" transform="matrix(1.00, 0.00, -0.00, -1.00, 267.6, 48.0)">s</text><text xml:space="preserve" font-family="Helvetica-Light" font-size="25.2" fill="#EAEAEA" transform="matrix(1.00, 0.00, -0.00, -1.00, 280.2, 48.0)"> </text><text xml:space="preserve" font-family="Helvetica-Light" font-size="25.2" fill="#EAEAEA" transform="matrix(1.00, 0.00, -0.00, -1.00, 287.2, 48.0)">c</text><text xml:space="preserve" font-family="Helvetica-Light" font-size="25.2" fill="#EAEAEA" transform="matrix(1.00, 0.00, -0.00, -1.00, 301.2, 48.0)">l</text><text xml:space="preserve" font-family="Helvetica-Light" font-size="25.2" fill="#EAEAEA" transform="matrix(1.00, 0.00, -0.00, -1.00, 306.8, 48.0)">a</text><text xml:space="preserve" font-family="Helvetica-Light" font-size="25.2" fill="#EAEAEA" transform="matrix(1.00, 0.00, -0.00, -1.00, 320.8, 48.0)">s</text><text xml:space="preserve" font-family="Helvetica-Light" font-size="25.2" fill="#EAEAEA" transform="matrix(1.00, 0.00, -0.00, -1.00, 333.4, 48.0)">s</text><text xml:space="preserve" font-family="Helvetica-Light" font-size="25.2" fill="#EAEAEA" transform="matrix(1.00, 0.00, -0.00, -1.00, 345.9, 48.0)">e</text><text xml:space="preserve" font-family="Helvetica-Light" font-size="25.2" fill="#EAEAEA" transform="matrix(1.00, 0.00, -0.00, -1.00, 359.9, 48.0)">s</text><text xml:space="preserve" font-family="Helvetica-Light" font-size="25.2" fill="#EAEAEA" transform="matrix(1.00, 0.00, -0.00, -1.00, 372.5, 48.0)"> </text><text xml:space="preserve" font-family="Helvetica-Light" font-size="25.2" fill="#EAEAEA" transform="matrix(1.00, 0.00, -0.00, -1.00, 379.5, 48.0)">a</text><text xml:space="preserve" font-family="Helvetica-Light" font-size="25.2" fill="#EAEAEA" transform="matrix(1.00, 0.00, -0.00, -1.00, 393.5, 48.0)">r</text><text xml:space="preserve" font-family="Helvetica-Light" font-size="25.2" fill="#EAEAEA" transform="matrix(1.00, 0.00, -0.00, -1.00, 401.4, 48.0)">e</text><text xml:space="preserve" font-family="Helvetica-Light" font-size="25.2" fill="#EAEAEA" transform="matrix(1.00, 0.00, -0.00, -1.00, 415.4, 48.0)"> </text><text xml:space="preserve" font-family="Helvetica-Light" font-size="25.2" fill="#EAEAEA" transform="matrix(1.00, 0.00, -0.00, -1.00, 422.4, 48.0)">v</text><text xml:space="preserve" font-family="Helvetica-Light" font-size="25.2" fill="#EAEAEA" transform="matrix(1.00, 0.00, -0.00, -1.00, 435.0, 48.0)">a</text><text xml:space="preserve" font-family="Helvetica-Light" font-size="25.2" fill="#EAEAEA" transform="matrix(1.00, 0.00, -0.00, -1.00, 449.0, 48.0)">l</text><text xml:space="preserve" font-family="Helvetica-Light" font-size="25.2" fill="#EAEAEA" transform="matrix(1.00, 0.00, -0.00, -1.00, 454.6, 48.0)">u</text><text xml:space="preserve" font-family="Helvetica-Light" font-size="25.2" fill="#EAEAEA" transform="matrix(1.00, 0.00, -0.00, -1.00, 468.5, 48.0)">a</text><text xml:space="preserve" font-family="Helvetica-Light" font-size="25.2" fill="#EAEAEA" transform="matrix(1.00, 0.00, -0.00, -1.00, 482.5, 48.0)">b</text><text xml:space="preserve" font-family="Helvetica-Light" font-size="25.2" fill="#EAEAEA" transform="matrix(1.00, 0.00, -0.00, -1.00, 497.9, 48.0)">l</text><text xml:space="preserve" font-family="Helvetica-Light" font-size="25.2" fill="#EAEAEA" transform="matrix(1.00, 0.00, -0.00, -1.00, 503.5, 48.0)">e</text><text xml:space="preserve" font-family="Helvetica-Light" font-size="25.2" fill="#EAEAEA" transform="matrix(1.00, 0.00, -0.00, -1.00, 517.5, 48.0)"> </text><text xml:space="preserve" font-family="Helvetica-Light" font-size="25.2" fill="#EAEAEA" transform="matrix(1.00, 0.00, -0.00, -1.00, 524.5, 48.0)">i</text><text xml:space="preserve" font-family="Helvetica-Light" font-size="25.2" fill="#EAEAEA" transform="matrix(1.00, 0.00, -0.00, -1.00, 530.1, 48.0)">s</text><text xml:space="preserve" font-family="Helvetica-Light" font-size="25.2" fill="#EAEAEA" transform="matrix(1.00, 0.00, -0.00, -1.00, 542.6, 48.0)"> </text><text xml:space="preserve" font-family="Helvetica-Light" font-size="25.2" fill="#EAEAEA" transform="matrix(1.00, 0.00, -0.00, -1.00, 549.6, 48.0)">n</text><text xml:space="preserve" font-family="Helvetica-Light" font-size="25.2" fill="#EAEAEA" transform="matrix(1.00, 0.00, -0.00, -1.00, 563.6, 48.0)">o</text><text xml:space="preserve" font-family="Helvetica-Light" font-size="25.2" fill="#EAEAEA" transform="matrix(1.00, 0.00, -0.00, -1.00, 577.6, 48.0)">t</text><text xml:space="preserve" font-family="Helvetica-Light" font-size="25.2" fill="#EAEAEA" transform="matrix(1.00, 0.00, -0.00, -1.00, 584.6, 48.0)"> </text><text xml:space="preserve" font-family="Helvetica-Light" font-size="25.2" fill="#EAEAEA" transform="matrix(1.00, 0.00, -0.00, -1.00, 591.6, 48.0)">b</text><text xml:space="preserve" font-family="Helvetica-Light" font-size="25.2" fill="#EAEAEA" transform="matrix(1.00, 0.00, -0.00, -1.00, 607.0, 48.0)">e</text><text xml:space="preserve" font-family="Helvetica-Light" font-size="25.2" fill="#EAEAEA" transform="matrix(1.00, 0.00, -0.00, -1.00, 621.0, 48.0)">c</text><text xml:space="preserve" font-family="Helvetica-Light" font-size="25.2" fill="#EAEAEA" transform="matrix(1.00, 0.00, -0.00, -1.00, 635.0, 48.0)">a</text><text xml:space="preserve" font-family="Helvetica-Light" font-size="25.2" fill="#EAEAEA" transform="matrix(1.00, 0.00, -0.00, -1.00, 648.9, 48.0)">u</text><text xml:space="preserve" font-family="Helvetica-Light" font-size="25.2" fill="#EAEAEA" transform="matrix(1.00, 0.00, -0.00, -1.00, 662.9, 48.0)">s</text><text xml:space="preserve" font-family="Helvetica-Light" font-size="25.2" fill="#EAEAEA" transform="matrix(1.00, 0.00, -0.00, -1.00, 675.5, 48.0)">e</text><text xml:space="preserve" font-family="Helvetica-Light" font-size="25.2" fill="#EAEAEA" transform="matrix(1.00, 0.00, -0.00, -1.00, 689.5, 48.0)"> </text><text xml:space="preserve" font-family="Helvetica-Light" font-size="25.2" fill="#EAEAEA" transform="matrix(1.00, 0.00, -0.00, -1.00, 696.5, 48.0)">y</text><text xml:space="preserve" font-family="Helvetica-Light" font-size="25.2" fill="#EAEAEA" transform="matrix(1.00, 0.00, -0.00, -1.00, 709.1, 48.0)">o</text><text xml:space="preserve" font-family="Helvetica-Light" font-size="25.2" fill="#EAEAEA" transform="matrix(1.00, 0.00, -0.00, -1.00, 723.1, 48.0)">u</text><text xml:space="preserve" font-family="Helvetica-Light" font-size="25.2" fill="#EAEAEA" transform="matrix(1.00, 0.00, -0.00, -1.00, 737.1, 48.0)"> </text><text xml:space="preserve" font-family="Helvetica-Light" font-size="25.2" fill="#EAEAEA" transform="matrix(1.00, 0.00, -0.00, -1.00, 744.0, 48.0)">c</text><text xml:space="preserve" font-family="Helvetica-Light" font-size="25.2" fill="#EAEAEA" transform="matrix(1.00, 0.00, -0.00, -1.00, 758.0, 48.0)">a</text><text xml:space="preserve" font-family="Helvetica-Light" font-size="25.2" fill="#EAEAEA" transform="matrix(1.00, 0.00, -0.00, -1.00, 772.0, 48.0)">n</text><text xml:space="preserve" font-family="Helvetica-Light" font-size="25.2" fill="#EAEAEA" transform="matrix(1.00, 0.00, -0.00, -1.00, 786.0, 48.0)">’</text><text xml:space="preserve" font-family="Helvetica-Light" font-size="25.2" fill="#EAEAEA" transform="matrix(1.00, 0.00, -0.00, -1.00, 791.1, 48.0)">t</text><text xml:space="preserve" font-family="Helvetica-Light" font-size="25.2" fill="#EAEAEA" transform="matrix(1.00, 0.00, -0.00, -1.00, 798.1, 48.0)"> </text><text xml:space="preserve" font-family="Helvetica-Light" font-size="25.2" fill="#EAEAEA" transform="matrix(1.00, 0.00, -0.00, -1.00, 805.1, 48.0)">d</text><text xml:space="preserve" font-family="Helvetica-Light" font-size="25.2" fill="#EAEAEA" transform="matrix(1.00, 0.00, -0.00, -1.00, 820.5, 48.0)">o</text><text xml:space="preserve" font-family="Helvetica-Light" font-size="25.2" fill="#EAEAEA" transform="matrix(1.00, 0.00, -0.00, -1.00, 834.5, 48.0)"> </text><image xlink:href="../../DF2D54B8-2A0A-4E21-8EBB-66756B817873/assets/E5274A5BBFCB66C2AD51D12A59FEE9B4.png" width="815.00" height="39.00" transform="matrix(1.00, 0.00, -0.00, -1.00, 2.0, 41.0)"></image><text xml:space="preserve" font-family="Helvetica-Light" font-size="25.2" fill="#EAEAEA" transform="matrix(1.00, 0.00, -0.00, -1.00, 5.0, 18.0)">t</text><text xml:space="preserve" font-family="Helvetica-Light" font-size="25.2" fill="#EAEAEA" transform="matrix(1.00, 0.00, -0.00, -1.00, 12.0, 18.0)">h</text><text xml:space="preserve" font-family="Helvetica-Light" font-size="25.2" fill="#EAEAEA" transform="matrix(1.00, 0.00, -0.00, -1.00, 26.0, 18.0)">e</text><text xml:space="preserve" font-family="Helvetica-Light" font-size="25.2" fill="#EAEAEA" transform="matrix(1.00, 0.00, -0.00, -1.00, 40.0, 18.0)">m</text><text xml:space="preserve" font-family="Helvetica-Light" font-size="25.2" fill="#EAEAEA" transform="matrix(1.00, 0.00, -0.00, -1.00, 60.9, 18.0)"> </text><text xml:space="preserve" font-family="Helvetica-Light" font-size="25.2" fill="#EAEAEA" transform="matrix(1.00, 0.00, -0.00, -1.00, 67.9, 18.0)">t</text><text xml:space="preserve" font-family="Helvetica-Light" font-size="25.2" fill="#EAEAEA" transform="matrix(1.00, 0.00, -0.00, -1.00, 74.9, 18.0)">o</text><text xml:space="preserve" font-family="Helvetica-Light" font-size="25.2" fill="#EAEAEA" transform="matrix(1.00, 0.00, -0.00, -1.00, 88.9, 18.0)">d</text><text xml:space="preserve" font-family="Helvetica-Light" font-size="25.2" fill="#EAEAEA" transform="matrix(1.00, 0.00, -0.00, -1.00, 104.3, 18.0)">a</text><text xml:space="preserve" font-family="Helvetica-Light" font-size="25.2" fill="#EAEAEA" transform="matrix(1.00, 0.00, -0.00, -1.00, 118.3, 18.0)">y</text><text xml:space="preserve" font-family="Helvetica-Light" font-size="25.2" fill="#EAEAEA" transform="matrix(1.00, 0.00, -0.00, -1.00, 128.5, 18.0)">,</text><text xml:space="preserve" font-family="Helvetica-Light" font-size="25.2" fill="#EAEAEA" transform="matrix(1.00, 0.00, -0.00, -1.00, 135.5, 18.0)"> </text><text xml:space="preserve" font-family="Helvetica-Light" font-size="25.2" fill="#EAEAEA" transform="matrix(1.00, 0.00, -0.00, -1.00, 142.5, 18.0)">i</text><text xml:space="preserve" font-family="Helvetica-Light" font-size="25.2" fill="#EAEAEA" transform="matrix(1.00, 0.00, -0.00, -1.00, 148.1, 18.0)">t</text><text xml:space="preserve" font-family="Helvetica-Light" font-size="25.2" fill="#EAEAEA" transform="matrix(1.00, 0.00, -0.00, -1.00, 155.1, 18.0)">’</text><text xml:space="preserve" font-family="Helvetica-Light" font-size="25.2" fill="#EAEAEA" transform="matrix(1.00, 0.00, -0.00, -1.00, 158.8, 18.0)">s</text><text xml:space="preserve" font-family="Helvetica-Light" font-size="25.2" fill="#EAEAEA" transform="matrix(1.00, 0.00, -0.00, -1.00, 171.4, 18.0)"> </text><text xml:space="preserve" font-family="Helvetica-Light" font-size="25.2" fill="#EAEAEA" transform="matrix(1.00, 0.00, -0.00, -1.00, 178.4, 18.0)">b</text><text xml:space="preserve" font-family="Helvetica-Light" font-size="25.2" fill="#EAEAEA" transform="matrix(1.00, 0.00, -0.00, -1.00, 193.8, 18.0)">e</text><text xml:space="preserve" font-family="Helvetica-Light" font-size="25.2" fill="#EAEAEA" transform="matrix(1.00, 0.00, -0.00, -1.00, 207.8, 18.0)">c</text><text xml:space="preserve" font-family="Helvetica-Light" font-size="25.2" fill="#EAEAEA" transform="matrix(1.00, 0.00, -0.00, -1.00, 221.8, 18.0)">a</text><text xml:space="preserve" font-family="Helvetica-Light" font-size="25.2" fill="#EAEAEA" transform="matrix(1.00, 0.00, -0.00, -1.00, 235.7, 18.0)">u</text><text xml:space="preserve" font-family="Helvetica-Light" font-size="25.2" fill="#EAEAEA" transform="matrix(1.00, 0.00, -0.00, -1.00, 249.7, 18.0)">s</text><text xml:space="preserve" font-family="Helvetica-Light" font-size="25.2" fill="#EAEAEA" transform="matrix(1.00, 0.00, -0.00, -1.00, 262.3, 18.0)">e</text><text xml:space="preserve" font-family="Helvetica-Light" font-size="25.2" fill="#EAEAEA" transform="matrix(1.00, 0.00, -0.00, -1.00, 276.3, 18.0)"> </text><text xml:space="preserve" font-family="Helvetica-Light" font-size="25.2" fill="#EAEAEA" transform="matrix(1.00, 0.00, -0.00, -1.00, 283.3, 18.0)">t</text><text xml:space="preserve" font-family="Helvetica-Light" font-size="25.2" fill="#EAEAEA" transform="matrix(1.00, 0.00, -0.00, -1.00, 290.3, 18.0)">h</text><text xml:space="preserve" font-family="Helvetica-Light" font-size="25.2" fill="#EAEAEA" transform="matrix(1.00, 0.00, -0.00, -1.00, 304.3, 18.0)">e</text><text xml:space="preserve" font-family="Helvetica-Light" font-size="25.2" fill="#EAEAEA" transform="matrix(1.00, 0.00, -0.00, -1.00, 318.3, 18.0)">y</text><text xml:space="preserve" font-family="Helvetica-Light" font-size="25.2" fill="#EAEAEA" transform="matrix(1.00, 0.00, -0.00, -1.00, 330.8, 18.0)"> </text><text xml:space="preserve" font-family="Helvetica-Light" font-size="25.2" fill="#EAEAEA" transform="matrix(1.00, 0.00, -0.00, -1.00, 337.8, 18.0)">m</text><text xml:space="preserve" font-family="Helvetica-Light" font-size="25.2" fill="#EAEAEA" transform="matrix(1.00, 0.00, -0.00, -1.00, 358.8, 18.0)">a</text><text xml:space="preserve" font-family="Helvetica-Light" font-size="25.2" fill="#EAEAEA" transform="matrix(1.00, 0.00, -0.00, -1.00, 372.8, 18.0)">k</text><text xml:space="preserve" font-family="Helvetica-Light" font-size="25.2" fill="#EAEAEA" transform="matrix(1.00, 0.00, -0.00, -1.00, 385.4, 18.0)">e</text><text xml:space="preserve" font-family="Helvetica-Light" font-size="25.2" fill="#EAEAEA" transform="matrix(1.00, 0.00, -0.00, -1.00, 399.4, 18.0)"> </text><text xml:space="preserve" font-family="Helvetica-Light" font-size="25.2" fill="#EAEAEA" transform="matrix(1.00, 0.00, -0.00, -1.00, 406.4, 18.0)">i</text><text xml:space="preserve" font-family="Helvetica-Light" font-size="25.2" fill="#EAEAEA" transform="matrix(1.00, 0.00, -0.00, -1.00, 411.9, 18.0)">t</text><text xml:space="preserve" font-family="Helvetica-Light" font-size="25.2" fill="#EAEAEA" transform="matrix(1.00, 0.00, -0.00, -1.00, 418.9, 18.0)"> </text><text xml:space="preserve" font-family="Helvetica-Light" font-size="25.2" fill="#EAEAEA" transform="matrix(1.00, 0.00, -0.00, -1.00, 425.9, 18.0)">s</text><text xml:space="preserve" font-family="Helvetica-Light" font-size="25.2" fill="#EAEAEA" transform="matrix(1.00, 0.00, -0.00, -1.00, 438.5, 18.0)">o</text><text xml:space="preserve" font-family="Helvetica-Light" font-size="25.2" fill="#EAEAEA" transform="matrix(1.00, 0.00, -0.00, -1.00, 452.5, 18.0)"> </text><text xml:space="preserve" font-family="Helvetica-Light" font-size="25.2" fill="#EAEAEA" transform="matrix(1.00, 0.00, -0.00, -1.00, 459.5, 18.0)">m</text><text xml:space="preserve" font-family="Helvetica-Light" font-size="25.2" fill="#EAEAEA" transform="matrix(1.00, 0.00, -0.00, -1.00, 480.4, 18.0)">u</text><text xml:space="preserve" font-family="Helvetica-Light" font-size="25.2" fill="#EAEAEA" transform="matrix(1.00, 0.00, -0.00, -1.00, 494.4, 18.0)">c</text><text xml:space="preserve" font-family="Helvetica-Light" font-size="25.2" fill="#EAEAEA" transform="matrix(1.00, 0.00, -0.00, -1.00, 508.4, 18.0)">h</text><text xml:space="preserve" font-family="Helvetica-Light" font-size="25.2" fill="#EAEAEA" transform="matrix(1.00, 0.00, -0.00, -1.00, 522.4, 18.0)"> </text><text xml:space="preserve" font-family="Helvetica-Light" font-size="25.2" fill="#EAEAEA" transform="matrix(1.00, 0.00, -0.00, -1.00, 529.4, 18.0)">e</text><text xml:space="preserve" font-family="Helvetica-Light" font-size="25.2" fill="#EAEAEA" transform="matrix(1.00, 0.00, -0.00, -1.00, 543.4, 18.0)">a</text><text xml:space="preserve" font-family="Helvetica-Light" font-size="25.2" fill="#EAEAEA" transform="matrix(1.00, 0.00, -0.00, -1.00, 557.4, 18.0)">s</text><text xml:space="preserve" font-family="Helvetica-Light" font-size="25.2" fill="#EAEAEA" transform="matrix(1.00, 0.00, -0.00, -1.00, 570.0, 18.0)">i</text><text xml:space="preserve" font-family="Helvetica-Light" font-size="25.2" fill="#EAEAEA" transform="matrix(1.00, 0.00, -0.00, -1.00, 575.6, 18.0)">e</text><text xml:space="preserve" font-family="Helvetica-Light" font-size="25.2" fill="#EAEAEA" transform="matrix(1.00, 0.00, -0.00, -1.00, 589.5, 18.0)">r</text><text xml:space="preserve" font-family="Helvetica-Light" font-size="25.2" fill="#EAEAEA" transform="matrix(1.00, 0.00, -0.00, -1.00, 597.9, 18.0)"> </text><text xml:space="preserve" font-family="Helvetica-Light" font-size="25.2" fill="#EAEAEA" transform="matrix(1.00, 0.00, -0.00, -1.00, 604.9, 18.0)">t</text><text xml:space="preserve" font-family="Helvetica-Light" font-size="25.2" fill="#EAEAEA" transform="matrix(1.00, 0.00, -0.00, -1.00, 611.9, 18.0)">o</text><text xml:space="preserve" font-family="Helvetica-Light" font-size="25.2" fill="#EAEAEA" transform="matrix(1.00, 0.00, -0.00, -1.00, 625.9, 18.0)"> </text><text xml:space="preserve" font-family="Helvetica-Light" font-size="25.2" fill="#EAEAEA" transform="matrix(1.00, 0.00, -0.00, -1.00, 632.9, 18.0)">d</text><text xml:space="preserve" font-family="Helvetica-Light" font-size="25.2" fill="#EAEAEA" transform="matrix(1.00, 0.00, -0.00, -1.00, 648.3, 18.0)">o</text><text xml:space="preserve" font-family="Helvetica-Light" font-size="25.2" fill="#EAEAEA" transform="matrix(1.00, 0.00, -0.00, -1.00, 662.3, 18.0)"> </text><text xml:space="preserve" font-family="Helvetica-Light" font-size="25.2" fill="#EAEAEA" transform="matrix(1.00, 0.00, -0.00, -1.00, 669.2, 18.0)">t</text><text xml:space="preserve" font-family="Helvetica-Light" font-size="25.2" fill="#EAEAEA" transform="matrix(1.00, 0.00, -0.00, -1.00, 676.2, 18.0)">h</text><text xml:space="preserve" font-family="Helvetica-Light" font-size="25.2" fill="#EAEAEA" transform="matrix(1.00, 0.00, -0.00, -1.00, 690.2, 18.0)">e</text><text xml:space="preserve" font-family="Helvetica-Light" font-size="25.2" fill="#EAEAEA" transform="matrix(1.00, 0.00, -0.00, -1.00, 704.2, 18.0)">s</text><text xml:space="preserve" font-family="Helvetica-Light" font-size="25.2" fill="#EAEAEA" transform="matrix(1.00, 0.00, -0.00, -1.00, 716.8, 18.0)">e</text><text xml:space="preserve" font-family="Helvetica-Light" font-size="25.2" fill="#EAEAEA" transform="matrix(1.00, 0.00, -0.00, -1.00, 730.8, 18.0)"> </text><text xml:space="preserve" font-family="Helvetica-Light" font-size="25.2" fill="#EAEAEA" transform="matrix(1.00, 0.00, -0.00, -1.00, 737.8, 18.0)">t</text><text xml:space="preserve" font-family="Helvetica-Light" font-size="25.2" fill="#EAEAEA" transform="matrix(1.00, 0.00, -0.00, -1.00, 744.8, 18.0)">h</text><text xml:space="preserve" font-family="Helvetica-Light" font-size="25.2" fill="#EAEAEA" transform="matrix(1.00, 0.00, -0.00, -1.00, 758.8, 18.0)">i</text><text xml:space="preserve" font-family="Helvetica-Light" font-size="25.2" fill="#EAEAEA" transform="matrix(1.00, 0.00, -0.00, -1.00, 764.4, 18.0)">n</text><text xml:space="preserve" font-family="Helvetica-Light" font-size="25.2" fill="#EAEAEA" transform="matrix(1.00, 0.00, -0.00, -1.00, 778.3, 18.0)">g</text><text xml:space="preserve" font-family="Helvetica-Light" font-size="25.2" fill="#EAEAEA" transform="matrix(1.00, 0.00, -0.00, -1.00, 793.7, 18.0)">s</text><image xlink:href="../../DF2D54B8-2A0A-4E21-8EBB-66756B817873/assets/93C8F8DE3ABFBC754725C5A7B90B36B1.png" width="25.00" height="33.00" transform="matrix(1.00, 0.00, -0.00, -1.00, 805.0, 41.0)"></image><text xml:space="preserve" font-family="Helvetica-Light" font-size="25.2" fill="#EAEAEA" transform="matrix(1.00, 0.00, -0.00, -1.00, 806.3, 18.0)">.</text><text xml:space="preserve" font-family="Helvetica-Light" font-size="25.2" fill="#EAEAEA" transform="matrix(1.00, 0.00, -0.00, -1.00, 813.3, 18.0)">"</text></g></svg>