<?xml version="1.0" encoding="UTF-8" standalone="no"?><svg xmlns="http://www.w3.org/2000/svg" xmlns:xlink="http://www.w3.org/1999/xlink" clip-rule="evenodd" stroke-miterlimit="4.00" viewBox="0 0 795 69"><desc>SVG generated by Keynote</desc><defs></defs><g transform="matrix(1.00, 0.00, -0.00, -1.00, 0.0, 69.0)"><image xlink:href="7551952B9CDEE0DA0E78D55D8269A48C.png" width="70.00" height="32.00" transform="matrix(1.00, 0.00, -0.00, -1.00, 2.0, 66.0)"></image><text xml:space="preserve" font-family="Helvetica-Light" font-size="23.8" fill="#EAEAEA" transform="matrix(1.00, 0.00, -0.00, -1.00, 3.0, 45.0)">1</text><text xml:space="preserve" font-family="Helvetica-Light" font-size="23.8" fill="#EAEAEA" transform="matrix(1.00, 0.00, -0.00, -1.00, 16.2, 45.0)">9</text><text xml:space="preserve" font-family="Helvetica-Light" font-size="23.8" fill="#EAEAEA" transform="matrix(1.00, 0.00, -0.00, -1.00, 29.5, 45.0)">9</text><text xml:space="preserve" font-family="Helvetica-Light" font-size="23.8" fill="#EAEAEA" transform="matrix(1.00, 0.00, -0.00, -1.00, 42.7, 45.0)">3</text><text xml:space="preserve" font-family="Helvetica-Light" font-size="23.8" fill="#EAEAEA" transform="matrix(1.00, 0.00, -0.00, -1.00, 55.9, 45.0)">:</text><text xml:space="preserve" font-family="Helvetica-Light" font-size="23.8" fill="#EAEAEA" transform="matrix(1.00, 0.00, -0.00, -1.00, 62.5, 45.0)"> </text><image xlink:href="78CE04333D94985CF87782A5CE055BED.png" width="727.00" height="33.00" transform="matrix(1.00, 0.00, -0.00, -1.00, 67.0, 67.0)"></image><text xml:space="preserve" font-family="Helvetica-Light" font-size="23.8" fill="#EAEAEA" transform="matrix(1.00, 0.00, -0.00, -1.00, 69.2, 45.0)">S</text><text xml:space="preserve" font-family="Helvetica-Light" font-size="23.8" fill="#EAEAEA" transform="matrix(1.00, 0.00, -0.00, -1.00, 83.7, 45.0)">o</text><text xml:space="preserve" font-family="Helvetica-Light" font-size="23.8" fill="#EAEAEA" transform="matrix(1.00, 0.00, -0.00, -1.00, 96.9, 45.0)">m</text><text xml:space="preserve" font-family="Helvetica-Light" font-size="23.8" fill="#EAEAEA" transform="matrix(1.00, 0.00, -0.00, -1.00, 116.8, 45.0)">e</text><text xml:space="preserve" font-family="Helvetica-Light" font-size="23.8" fill="#EAEAEA" transform="matrix(1.00, 0.00, -0.00, -1.00, 130.0, 45.0)">o</text><text xml:space="preserve" font-family="Helvetica-Light" font-size="23.8" fill="#EAEAEA" transform="matrix(1.00, 0.00, -0.00, -1.00, 143.2, 45.0)">n</text><text xml:space="preserve" font-family="Helvetica-Light" font-size="23.8" fill="#EAEAEA" transform="matrix(1.00, 0.00, -0.00, -1.00, 156.5, 45.0)">e</text><text xml:space="preserve" font-family="Helvetica-Light" font-size="23.8" fill="#EAEAEA" transform="matrix(1.00, 0.00, -0.00, -1.00, 169.7, 45.0)"> </text><text xml:space="preserve" font-family="Helvetica-Light" font-size="23.8" fill="#EAEAEA" transform="matrix(1.00, 0.00, -0.00, -1.00, 176.3, 45.0)">s</text><text xml:space="preserve" font-family="Helvetica-Light" font-size="23.8" fill="#EAEAEA" transform="matrix(1.00, 0.00, -0.00, -1.00, 188.2, 45.0)">o</text><text xml:space="preserve" font-family="Helvetica-Light" font-size="23.8" fill="#EAEAEA" transform="matrix(1.00, 0.00, -0.00, -1.00, 201.4, 45.0)">m</text><text xml:space="preserve" font-family="Helvetica-Light" font-size="23.8" fill="#EAEAEA" transform="matrix(1.00, 0.00, -0.00, -1.00, 221.3, 45.0)">e</text><text xml:space="preserve" font-family="Helvetica-Light" font-size="23.8" fill="#EAEAEA" transform="matrix(1.00, 0.00, -0.00, -1.00, 234.5, 45.0)">w</text><text xml:space="preserve" font-family="Helvetica-Light" font-size="23.8" fill="#EAEAEA" transform="matrix(1.00, 0.00, -0.00, -1.00, 251.7, 45.0)">h</text><text xml:space="preserve" font-family="Helvetica-Light" font-size="23.8" fill="#EAEAEA" transform="matrix(1.00, 0.00, -0.00, -1.00, 264.9, 45.0)">e</text><text xml:space="preserve" font-family="Helvetica-Light" font-size="23.8" fill="#EAEAEA" transform="matrix(1.00, 0.00, -0.00, -1.00, 278.2, 45.0)">r</text><text xml:space="preserve" font-family="Helvetica-Light" font-size="23.8" fill="#EAEAEA" transform="matrix(1.00, 0.00, -0.00, -1.00, 285.6, 45.0)">e</text><text xml:space="preserve" font-family="Helvetica-Light" font-size="23.8" fill="#EAEAEA" transform="matrix(1.00, 0.00, -0.00, -1.00, 298.9, 45.0)"> </text><text xml:space="preserve" font-family="Helvetica-Light" font-size="23.8" fill="#EAEAEA" transform="matrix(1.00, 0.00, -0.00, -1.00, 305.5, 45.0)">u</text><text xml:space="preserve" font-family="Helvetica-Light" font-size="23.8" fill="#EAEAEA" transform="matrix(1.00, 0.00, -0.00, -1.00, 318.7, 45.0)">s</text><text xml:space="preserve" font-family="Helvetica-Light" font-size="23.8" fill="#EAEAEA" transform="matrix(1.00, 0.00, -0.00, -1.00, 330.6, 45.0)">e</text><text xml:space="preserve" font-family="Helvetica-Light" font-size="23.8" fill="#EAEAEA" transform="matrix(1.00, 0.00, -0.00, -1.00, 343.9, 45.0)">s</text><text xml:space="preserve" font-family="Helvetica-Light" font-size="23.8" fill="#EAEAEA" transform="matrix(1.00, 0.00, -0.00, -1.00, 355.8, 45.0)"> </text><text xml:space="preserve" font-family="Helvetica-Light" font-size="23.8" fill="#EAEAEA" transform="matrix(1.00, 0.00, -0.00, -1.00, 362.4, 45.0)">C</text><text xml:space="preserve" font-family="Helvetica-Light" font-size="23.8" fill="#EAEAEA" transform="matrix(1.00, 0.00, -0.00, -1.00, 379.6, 45.0)"> </text><text xml:space="preserve" font-family="Helvetica-Light" font-size="23.8" fill="#EAEAEA" transform="matrix(1.00, 0.00, -0.00, -1.00, 386.2, 45.0)">t</text><text xml:space="preserve" font-family="Helvetica-Light" font-size="23.8" fill="#EAEAEA" transform="matrix(1.00, 0.00, -0.00, -1.00, 392.8, 45.0)">o</text><text xml:space="preserve" font-family="Helvetica-Light" font-size="23.8" fill="#EAEAEA" transform="matrix(1.00, 0.00, -0.00, -1.00, 406.0, 45.0)"> </text><text xml:space="preserve" font-family="Helvetica-Light" font-size="23.8" fill="#EAEAEA" transform="matrix(1.00, 0.00, -0.00, -1.00, 412.6, 45.0)">c</text><text xml:space="preserve" font-family="Helvetica-Light" font-size="23.8" fill="#EAEAEA" transform="matrix(1.00, 0.00, -0.00, -1.00, 425.9, 45.0)">u</text><text xml:space="preserve" font-family="Helvetica-Light" font-size="23.8" fill="#EAEAEA" transform="matrix(1.00, 0.00, -0.00, -1.00, 439.1, 45.0)">s</text><text xml:space="preserve" font-family="Helvetica-Light" font-size="23.8" fill="#EAEAEA" transform="matrix(1.00, 0.00, -0.00, -1.00, 451.0, 45.0)">t</text><text xml:space="preserve" font-family="Helvetica-Light" font-size="23.8" fill="#EAEAEA" transform="matrix(1.00, 0.00, -0.00, -1.00, 457.6, 45.0)">o</text><text xml:space="preserve" font-family="Helvetica-Light" font-size="23.8" fill="#EAEAEA" transform="matrix(1.00, 0.00, -0.00, -1.00, 470.9, 45.0)">m</text><text xml:space="preserve" font-family="Helvetica-Light" font-size="23.8" fill="#EAEAEA" transform="matrix(1.00, 0.00, -0.00, -1.00, 490.7, 45.0)">i</text><text xml:space="preserve" font-family="Helvetica-Light" font-size="23.8" fill="#EAEAEA" transform="matrix(1.00, 0.00, -0.00, -1.00, 496.0, 45.0)">z</text><text xml:space="preserve" font-family="Helvetica-Light" font-size="23.8" fill="#EAEAEA" transform="matrix(1.00, 0.00, -0.00, -1.00, 507.9, 45.0)">e</text><text xml:space="preserve" font-family="Helvetica-Light" font-size="23.8" fill="#EAEAEA" transform="matrix(1.00, 0.00, -0.00, -1.00, 521.1, 45.0)"> </text><text xml:space="preserve" font-family="Helvetica-Light" font-size="23.8" fill="#EAEAEA" transform="matrix(1.00, 0.00, -0.00, -1.00, 527.7, 45.0)">t</text><text xml:space="preserve" font-family="Helvetica-Light" font-size="23.8" fill="#EAEAEA" transform="matrix(1.00, 0.00, -0.00, -1.00, 534.3, 45.0)">h</text><text xml:space="preserve" font-family="Helvetica-Light" font-size="23.8" fill="#EAEAEA" transform="matrix(1.00, 0.00, -0.00, -1.00, 547.6, 45.0)">e</text><text xml:space="preserve" font-family="Helvetica-Light" font-size="23.8" fill="#EAEAEA" transform="matrix(1.00, 0.00, -0.00, -1.00, 560.8, 45.0)"> </text><text xml:space="preserve" font-family="Helvetica-Light" font-size="23.8" fill="#EAEAEA" transform="matrix(1.00, 0.00, -0.00, -1.00, 567.4, 45.0)">H</text><text xml:space="preserve" font-family="Helvetica-Light" font-size="23.8" fill="#EAEAEA" transform="matrix(1.00, 0.00, -0.00, -1.00, 584.6, 45.0)">T</text><text xml:space="preserve" font-family="Helvetica-Light" font-size="23.8" fill="#EAEAEA" transform="matrix(1.00, 0.00, -0.00, -1.00, 597.8, 45.0)">M</text><text xml:space="preserve" font-family="Helvetica-Light" font-size="23.8" fill="#EAEAEA" transform="matrix(1.00, 0.00, -0.00, -1.00, 617.7, 45.0)">L</text><text xml:space="preserve" font-family="Helvetica-Light" font-size="23.8" fill="#EAEAEA" transform="matrix(1.00, 0.00, -0.00, -1.00, 630.9, 45.0)"> </text><text xml:space="preserve" font-family="Helvetica-Light" font-size="23.8" fill="#EAEAEA" transform="matrix(1.00, 0.00, -0.00, -1.00, 637.5, 45.0)">d</text><text xml:space="preserve" font-family="Helvetica-Light" font-size="23.8" fill="#EAEAEA" transform="matrix(1.00, 0.00, -0.00, -1.00, 652.0, 45.0)">e</text><text xml:space="preserve" font-family="Helvetica-Light" font-size="23.8" fill="#EAEAEA" transform="matrix(1.00, 0.00, -0.00, -1.00, 665.3, 45.0)">l</text><text xml:space="preserve" font-family="Helvetica-Light" font-size="23.8" fill="#EAEAEA" transform="matrix(1.00, 0.00, -0.00, -1.00, 670.6, 45.0)">i</text><text xml:space="preserve" font-family="Helvetica-Light" font-size="23.8" fill="#EAEAEA" transform="matrix(1.00, 0.00, -0.00, -1.00, 675.8, 45.0)">v</text><text xml:space="preserve" font-family="Helvetica-Light" font-size="23.8" fill="#EAEAEA" transform="matrix(1.00, 0.00, -0.00, -1.00, 687.7, 45.0)">e</text><text xml:space="preserve" font-family="Helvetica-Light" font-size="23.8" fill="#EAEAEA" transform="matrix(1.00, 0.00, -0.00, -1.00, 701.0, 45.0)">r</text><text xml:space="preserve" font-family="Helvetica-Light" font-size="23.8" fill="#EAEAEA" transform="matrix(1.00, 0.00, -0.00, -1.00, 708.5, 45.0)">e</text><text xml:space="preserve" font-family="Helvetica-Light" font-size="23.8" fill="#EAEAEA" transform="matrix(1.00, 0.00, -0.00, -1.00, 721.7, 45.0)">d</text><text xml:space="preserve" font-family="Helvetica-Light" font-size="23.8" fill="#EAEAEA" transform="matrix(1.00, 0.00, -0.00, -1.00, 736.3, 45.0)"> </text><text xml:space="preserve" font-family="Helvetica-Light" font-size="23.8" fill="#EAEAEA" transform="matrix(1.00, 0.00, -0.00, -1.00, 742.9, 45.0)">t</text><text xml:space="preserve" font-family="Helvetica-Light" font-size="23.8" fill="#EAEAEA" transform="matrix(1.00, 0.00, -0.00, -1.00, 749.5, 45.0)">o</text><text xml:space="preserve" font-family="Helvetica-Light" font-size="23.8" fill="#EAEAEA" transform="matrix(1.00, 0.00, -0.00, -1.00, 762.7, 45.0)"> </text><text xml:space="preserve" font-family="Helvetica-Light" font-size="23.8" fill="#EAEAEA" transform="matrix(1.00, 0.00, -0.00, -1.00, 769.3, 45.0)">a</text><text xml:space="preserve" font-family="Helvetica-Light" font-size="23.8" fill="#EAEAEA" transform="matrix(1.00, 0.00, -0.00, -1.00, 782.6, 45.0)"> </text><image xlink:href="8C8E73746A6833DCE2E2089FF90E06BC.png" width="705.00" height="37.00" transform="matrix(1.00, 0.00, -0.00, -1.00, 69.0, 39.0)"></image><text xml:space="preserve" font-family="Helvetica-Light" font-size="23.8" fill="#EAEAEA" transform="matrix(1.00, 0.00, -0.00, -1.00, 71.0, 17.0)">b</text><text xml:space="preserve" font-family="Helvetica-Light" font-size="23.8" fill="#EAEAEA" transform="matrix(1.00, 0.00, -0.00, -1.00, 85.5, 17.0)">r</text><text xml:space="preserve" font-family="Helvetica-Light" font-size="23.8" fill="#EAEAEA" transform="matrix(1.00, 0.00, -0.00, -1.00, 93.0, 17.0)">o</text><text xml:space="preserve" font-family="Helvetica-Light" font-size="23.8" fill="#EAEAEA" transform="matrix(1.00, 0.00, -0.00, -1.00, 106.3, 17.0)">w</text><text xml:space="preserve" font-family="Helvetica-Light" font-size="23.8" fill="#EAEAEA" transform="matrix(1.00, 0.00, -0.00, -1.00, 123.5, 17.0)">s</text><text xml:space="preserve" font-family="Helvetica-Light" font-size="23.8" fill="#EAEAEA" transform="matrix(1.00, 0.00, -0.00, -1.00, 135.4, 17.0)">e</text><text xml:space="preserve" font-family="Helvetica-Light" font-size="23.8" fill="#EAEAEA" transform="matrix(1.00, 0.00, -0.00, -1.00, 148.6, 17.0)">r</text><text xml:space="preserve" font-family="Helvetica-Light" font-size="23.8" fill="#EAEAEA" transform="matrix(1.00, 0.00, -0.00, -1.00, 154.3, 17.0)">.</text><text xml:space="preserve" font-family="Helvetica-Light" font-size="23.8" fill="#EAEAEA" transform="matrix(1.00, 0.00, -0.00, -1.00, 160.9, 17.0)"> </text><text xml:space="preserve" font-family="Helvetica-Light" font-size="23.8" fill="#EAEAEA" transform="matrix(1.00, 0.00, -0.00, -1.00, 167.6, 17.0)">Y</text><text xml:space="preserve" font-family="Helvetica-Light" font-size="23.8" fill="#EAEAEA" transform="matrix(1.00, 0.00, -0.00, -1.00, 179.9, 17.0)">a</text><text xml:space="preserve" font-family="Helvetica-Light" font-size="23.8" fill="#EAEAEA" transform="matrix(1.00, 0.00, -0.00, -1.00, 193.1, 17.0)">h</text><text xml:space="preserve" font-family="Helvetica-Light" font-size="23.8" fill="#EAEAEA" transform="matrix(1.00, 0.00, -0.00, -1.00, 206.4, 17.0)">o</text><text xml:space="preserve" font-family="Helvetica-Light" font-size="23.8" fill="#EAEAEA" transform="matrix(1.00, 0.00, -0.00, -1.00, 219.6, 17.0)">o</text><text xml:space="preserve" font-family="Helvetica-Light" font-size="23.8" fill="#EAEAEA" transform="matrix(1.00, 0.00, -0.00, -1.00, 232.8, 17.0)"> </text><text xml:space="preserve" font-family="Helvetica-Light" font-size="23.8" fill="#EAEAEA" transform="matrix(1.00, 0.00, -0.00, -1.00, 239.5, 17.0)">i</text><text xml:space="preserve" font-family="Helvetica-Light" font-size="23.8" fill="#EAEAEA" transform="matrix(1.00, 0.00, -0.00, -1.00, 244.7, 17.0)">s</text><text xml:space="preserve" font-family="Helvetica-Light" font-size="23.8" fill="#EAEAEA" transform="matrix(1.00, 0.00, -0.00, -1.00, 256.6, 17.0)"> </text><text xml:space="preserve" font-family="Helvetica-Light" font-size="23.8" fill="#EAEAEA" transform="matrix(1.00, 0.00, -0.00, -1.00, 263.3, 17.0)">b</text><text xml:space="preserve" font-family="Helvetica-Light" font-size="23.8" fill="#EAEAEA" transform="matrix(1.00, 0.00, -0.00, -1.00, 277.8, 17.0)">o</text><text xml:space="preserve" font-family="Helvetica-Light" font-size="23.8" fill="#EAEAEA" transform="matrix(1.00, 0.00, -0.00, -1.00, 291.0, 17.0)">r</text><text xml:space="preserve" font-family="Helvetica-Light" font-size="23.8" fill="#EAEAEA" transform="matrix(1.00, 0.00, -0.00, -1.00, 299.4, 17.0)">n</text><text xml:space="preserve" font-family="Helvetica-Light" font-size="23.8" fill="#EAEAEA" transform="matrix(1.00, 0.00, -0.00, -1.00, 312.6, 17.0)">.</text><text xml:space="preserve" font-family="Helvetica-Light" font-size="23.8" fill="#EAEAEA" transform="matrix(1.00, 0.00, -0.00, -1.00, 319.2, 17.0)"> </text><text xml:space="preserve" font-family="Helvetica-Light" font-size="23.8" fill="#EAEAEA" transform="matrix(1.00, 0.00, -0.00, -1.00, 325.9, 17.0)">P</text><text xml:space="preserve" font-family="Helvetica-Light" font-size="23.8" fill="#EAEAEA" transform="matrix(1.00, 0.00, -0.00, -1.00, 340.4, 17.0)">e</text><text xml:space="preserve" font-family="Helvetica-Light" font-size="23.8" fill="#EAEAEA" transform="matrix(1.00, 0.00, -0.00, -1.00, 353.6, 17.0)">r</text><text xml:space="preserve" font-family="Helvetica-Light" font-size="23.8" fill="#EAEAEA" transform="matrix(1.00, 0.00, -0.00, -1.00, 361.6, 17.0)">l</text><text xml:space="preserve" font-family="Helvetica-Light" font-size="23.8" fill="#EAEAEA" transform="matrix(1.00, 0.00, -0.00, -1.00, 366.8, 17.0)">,</text><text xml:space="preserve" font-family="Helvetica-Light" font-size="23.8" fill="#EAEAEA" transform="matrix(1.00, 0.00, -0.00, -1.00, 373.5, 17.0)"> </text><text xml:space="preserve" font-family="Helvetica-Light" font-size="23.8" fill="#EAEAEA" transform="matrix(1.00, 0.00, -0.00, -1.00, 380.1, 17.0)">C</text><text xml:space="preserve" font-family="Helvetica-Light" font-size="23.8" fill="#EAEAEA" transform="matrix(1.00, 0.00, -0.00, -1.00, 397.3, 17.0)">o</text><text xml:space="preserve" font-family="Helvetica-Light" font-size="23.8" fill="#EAEAEA" transform="matrix(1.00, 0.00, -0.00, -1.00, 410.5, 17.0)">l</text><text xml:space="preserve" font-family="Helvetica-Light" font-size="23.8" fill="#EAEAEA" transform="matrix(1.00, 0.00, -0.00, -1.00, 415.8, 17.0)">d</text><text xml:space="preserve" font-family="Helvetica-Light" font-size="23.8" fill="#EAEAEA" transform="matrix(1.00, 0.00, -0.00, -1.00, 430.3, 17.0)">F</text><text xml:space="preserve" font-family="Helvetica-Light" font-size="23.8" fill="#EAEAEA" transform="matrix(1.00, 0.00, -0.00, -1.00, 443.5, 17.0)">u</text><text xml:space="preserve" font-family="Helvetica-Light" font-size="23.8" fill="#EAEAEA" transform="matrix(1.00, 0.00, -0.00, -1.00, 456.8, 17.0)">s</text><text xml:space="preserve" font-family="Helvetica-Light" font-size="23.8" fill="#EAEAEA" transform="matrix(1.00, 0.00, -0.00, -1.00, 468.7, 17.0)">i</text><text xml:space="preserve" font-family="Helvetica-Light" font-size="23.8" fill="#EAEAEA" transform="matrix(1.00, 0.00, -0.00, -1.00, 474.0, 17.0)">o</text><text xml:space="preserve" font-family="Helvetica-Light" font-size="23.8" fill="#EAEAEA" transform="matrix(1.00, 0.00, -0.00, -1.00, 487.2, 17.0)">n</text><text xml:space="preserve" font-family="Helvetica-Light" font-size="23.8" fill="#EAEAEA" transform="matrix(1.00, 0.00, -0.00, -1.00, 500.4, 17.0)">,</text><text xml:space="preserve" font-family="Helvetica-Light" font-size="23.8" fill="#EAEAEA" transform="matrix(1.00, 0.00, -0.00, -1.00, 507.0, 17.0)"> </text><text xml:space="preserve" font-family="Helvetica-Light" font-size="23.8" fill="#EAEAEA" transform="matrix(1.00, 0.00, -0.00, -1.00, 513.7, 17.0)">P</text><text xml:space="preserve" font-family="Helvetica-Light" font-size="23.8" fill="#EAEAEA" transform="matrix(1.00, 0.00, -0.00, -1.00, 528.2, 17.0)">H</text><text xml:space="preserve" font-family="Helvetica-Light" font-size="23.8" fill="#EAEAEA" transform="matrix(1.00, 0.00, -0.00, -1.00, 545.4, 17.0)">P</text><text xml:space="preserve" font-family="Helvetica-Light" font-size="23.8" fill="#EAEAEA" transform="matrix(1.00, 0.00, -0.00, -1.00, 559.9, 17.0)"> </text><text xml:space="preserve" font-family="Helvetica-Light" font-size="23.8" fill="#EAEAEA" transform="matrix(1.00, 0.00, -0.00, -1.00, 566.5, 17.0)">(</text><text xml:space="preserve" font-family="Helvetica-Light" font-size="23.8" fill="#EAEAEA" transform="matrix(1.00, 0.00, -0.00, -1.00, 574.5, 17.0)">a</text><text xml:space="preserve" font-family="Helvetica-Light" font-size="23.8" fill="#EAEAEA" transform="matrix(1.00, 0.00, -0.00, -1.00, 587.7, 17.0)">l</text><text xml:space="preserve" font-family="Helvetica-Light" font-size="23.8" fill="#EAEAEA" transform="matrix(1.00, 0.00, -0.00, -1.00, 593.0, 17.0)">l</text><text xml:space="preserve" font-family="Helvetica-Light" font-size="23.8" fill="#EAEAEA" transform="matrix(1.00, 0.00, -0.00, -1.00, 598.3, 17.0)"> </text><text xml:space="preserve" font-family="Helvetica-Light" font-size="23.8" fill="#EAEAEA" transform="matrix(1.00, 0.00, -0.00, -1.00, 604.9, 17.0)">v</text><text xml:space="preserve" font-family="Helvetica-Light" font-size="23.8" fill="#EAEAEA" transform="matrix(1.00, 0.00, -0.00, -1.00, 616.8, 17.0)">i</text><text xml:space="preserve" font-family="Helvetica-Light" font-size="23.8" fill="#EAEAEA" transform="matrix(1.00, 0.00, -0.00, -1.00, 622.1, 17.0)">a</text><text xml:space="preserve" font-family="Helvetica-Light" font-size="23.8" fill="#EAEAEA" transform="matrix(1.00, 0.00, -0.00, -1.00, 635.3, 17.0)"> </text><text xml:space="preserve" font-family="Helvetica-Light" font-size="23.8" fill="#EAEAEA" transform="matrix(1.00, 0.00, -0.00, -1.00, 641.9, 17.0)">C</text><text xml:space="preserve" font-family="Helvetica-Light" font-size="23.8" fill="#EAEAEA" transform="matrix(1.00, 0.00, -0.00, -1.00, 659.1, 17.0)">G</text><text xml:space="preserve" font-family="Helvetica-Light" font-size="23.8" fill="#EAEAEA" transform="matrix(1.00, 0.00, -0.00, -1.00, 677.6, 17.0)">I</text><text xml:space="preserve" font-family="Helvetica-Light" font-size="23.8" fill="#EAEAEA" transform="matrix(1.00, 0.00, -0.00, -1.00, 684.2, 17.0)">)</text><text xml:space="preserve" font-family="Helvetica-Light" font-size="23.8" fill="#EAEAEA" transform="matrix(1.00, 0.00, -0.00, -1.00, 692.2, 17.0)"> </text><text xml:space="preserve" font-family="Helvetica-Light" font-size="23.8" fill="#EAEAEA" transform="matrix(1.00, 0.00, -0.00, -1.00, 698.8, 17.0)">f</text><text xml:space="preserve" font-family="Helvetica-Light" font-size="23.8" fill="#EAEAEA" transform="matrix(1.00, 0.00, -0.00, -1.00, 705.4, 17.0)">o</text><text xml:space="preserve" font-family="Helvetica-Light" font-size="23.8" fill="#EAEAEA" transform="matrix(1.00, 0.00, -0.00, -1.00, 718.6, 17.0)">l</text><text xml:space="preserve" font-family="Helvetica-Light" font-size="23.8" fill="#EAEAEA" transform="matrix(1.00, 0.00, -0.00, -1.00, 723.9, 17.0)">l</text><text xml:space="preserve" font-family="Helvetica-Light" font-size="23.8" fill="#EAEAEA" transform="matrix(1.00, 0.00, -0.00, -1.00, 729.2, 17.0)">o</text><text xml:space="preserve" font-family="Helvetica-Light" font-size="23.8" fill="#EAEAEA" transform="matrix(1.00, 0.00, -0.00, -1.00, 742.4, 17.0)">w</text><text xml:space="preserve" font-family="Helvetica-Light" font-size="23.8" fill="#EAEAEA" transform="matrix(1.00, 0.00, -0.00, -1.00, 758.3, 17.0)">.</text></g></svg>