<?xml version="1.0" encoding="UTF-8" standalone="no"?><svg xmlns="http://www.w3.org/2000/svg" xmlns:xlink="http://www.w3.org/1999/xlink" clip-rule="evenodd" stroke-miterlimit="4.00" viewBox="0 0 718 147"><desc>SVG generated by Keynote</desc><defs></defs><g transform="matrix(1.00, 0.00, -0.00, -1.00, 0.0, 147.0)"><image xlink:href="../../A4E6B5CB-5F29-41B1-8A74-E12AFF68BB74/assets/CEE42D1C742C2D07118527F7AFAFC242.png" width="712.00" height="77.00" transform="matrix(1.00, 0.00, -0.00, -1.00, 2.0, 145.0)"></image><text xml:space="preserve" font-family="Helvetica-Light" font-size="66.4" fill="#FEFFFF" transform="matrix(1.00, 0.00, -0.00, -1.00, 0.0, 92.0)">B</text><text xml:space="preserve" font-family="Helvetica-Light" font-size="66.4" fill="#FEFFFF" transform="matrix(1.00, 0.00, -0.00, -1.00, 44.3, 92.0)">r</text><text xml:space="preserve" font-family="Helvetica-Light" font-size="66.4" fill="#FEFFFF" transform="matrix(1.00, 0.00, -0.00, -1.00, 66.4, 92.0)">i</text><text xml:space="preserve" font-family="Helvetica-Light" font-size="66.4" fill="#FEFFFF" transform="matrix(1.00, 0.00, -0.00, -1.00, 81.1, 92.0)">e</text><text xml:space="preserve" font-family="Helvetica-Light" font-size="66.4" fill="#FEFFFF" transform="matrix(1.00, 0.00, -0.00, -1.00, 118.1, 92.0)">f</text><text xml:space="preserve" font-family="Helvetica-Light" font-size="66.4" fill="#FEFFFF" transform="matrix(1.00, 0.00, -0.00, -1.00, 136.5, 92.0)"> </text><text xml:space="preserve" font-family="Helvetica-Light" font-size="66.4" fill="#FEFFFF" transform="matrix(1.00, 0.00, -0.00, -1.00, 155.0, 92.0)">h</text><text xml:space="preserve" font-family="Helvetica-Light" font-size="66.4" fill="#FEFFFF" transform="matrix(1.00, 0.00, -0.00, -1.00, 191.9, 92.0)">i</text><text xml:space="preserve" font-family="Helvetica-Light" font-size="66.4" fill="#FEFFFF" transform="matrix(1.00, 0.00, -0.00, -1.00, 206.6, 92.0)">s</text><text xml:space="preserve" font-family="Helvetica-Light" font-size="66.4" fill="#FEFFFF" transform="matrix(1.00, 0.00, -0.00, -1.00, 239.8, 92.0)">t</text><text xml:space="preserve" font-family="Helvetica-Light" font-size="66.4" fill="#FEFFFF" transform="matrix(1.00, 0.00, -0.00, -1.00, 258.3, 92.0)">o</text><text xml:space="preserve" font-family="Helvetica-Light" font-size="66.4" fill="#FEFFFF" transform="matrix(1.00, 0.00, -0.00, -1.00, 295.2, 92.0)">r</text><text xml:space="preserve" font-family="Helvetica-Light" font-size="66.4" fill="#FEFFFF" transform="matrix(1.00, 0.00, -0.00, -1.00, 318.5, 92.0)">y</text><text xml:space="preserve" font-family="Helvetica-Light" font-size="66.4" fill="#FEFFFF" transform="matrix(1.00, 0.00, -0.00, -1.00, 351.7, 92.0)"> </text><text xml:space="preserve" font-family="Helvetica-Light" font-size="66.4" fill="#FEFFFF" transform="matrix(1.00, 0.00, -0.00, -1.00, 370.2, 92.0)">o</text><text xml:space="preserve" font-family="Helvetica-Light" font-size="66.4" fill="#FEFFFF" transform="matrix(1.00, 0.00, -0.00, -1.00, 407.1, 92.0)">f</text><text xml:space="preserve" font-family="Helvetica-Light" font-size="66.4" fill="#FEFFFF" transform="matrix(1.00, 0.00, -0.00, -1.00, 425.6, 92.0)"> </text><text xml:space="preserve" font-family="Helvetica-Light" font-size="66.4" fill="#FEFFFF" transform="matrix(1.00, 0.00, -0.00, -1.00, 444.0, 92.0)">D</text><text xml:space="preserve" font-family="Helvetica-Light" font-size="66.4" fill="#FEFFFF" transform="matrix(1.00, 0.00, -0.00, -1.00, 492.0, 92.0)">y</text><text xml:space="preserve" font-family="Helvetica-Light" font-size="66.4" fill="#FEFFFF" transform="matrix(1.00, 0.00, -0.00, -1.00, 525.2, 92.0)">n</text><text xml:space="preserve" font-family="Helvetica-Light" font-size="66.4" fill="#FEFFFF" transform="matrix(1.00, 0.00, -0.00, -1.00, 562.1, 92.0)">a</text><text xml:space="preserve" font-family="Helvetica-Light" font-size="66.4" fill="#FEFFFF" transform="matrix(1.00, 0.00, -0.00, -1.00, 599.0, 92.0)">m</text><text xml:space="preserve" font-family="Helvetica-Light" font-size="66.4" fill="#FEFFFF" transform="matrix(1.00, 0.00, -0.00, -1.00, 654.3, 92.0)">i</text><text xml:space="preserve" font-family="Helvetica-Light" font-size="66.4" fill="#FEFFFF" transform="matrix(1.00, 0.00, -0.00, -1.00, 669.0, 92.0)">c</text><text xml:space="preserve" font-family="Helvetica-Light" font-size="66.4" fill="#FEFFFF" transform="matrix(1.00, 0.00, -0.00, -1.00, 706.0, 92.0)"> </text><image xlink:href="../../A4E6B5CB-5F29-41B1-8A74-E12AFF68BB74/assets/C5F90E33207C5BE385A5A3E10C7B3CFE.png" width="146.00" height="63.00" transform="matrix(1.00, 0.00, -0.00, -1.00, 282.0, 65.0)"></image><text xml:space="preserve" font-family="Helvetica-Light" font-size="66.4" fill="#FEFFFF" transform="matrix(1.00, 0.00, -0.00, -1.00, 285.0, 13.0)">W</text><text xml:space="preserve" font-family="Helvetica-Light" font-size="66.4" fill="#FEFFFF" transform="matrix(1.00, 0.00, -0.00, -1.00, 342.8, 13.0)">e</text><text xml:space="preserve" font-family="Helvetica-Light" font-size="66.4" fill="#FEFFFF" transform="matrix(1.00, 0.00, -0.00, -1.00, 379.8, 13.0)">b</text></g></svg>