<?xml version="1.0" encoding="UTF-8" standalone="no"?><svg xmlns="http://www.w3.org/2000/svg" xmlns:xlink="http://www.w3.org/1999/xlink" clip-rule="evenodd" stroke-miterlimit="4.00" viewBox="0 0 810 41"><desc>SVG generated by Keynote</desc><defs></defs><g transform="matrix(1.00, 0.00, -0.00, -1.00, 0.0, 41.0)"><image xlink:href="112B425C8A0DCF1031BEEC7F34DC0B6C.png" width="804.00" height="38.00" transform="matrix(1.00, 0.00, -0.00, -1.00, 2.0, 39.0)"></image><text xml:space="preserve" font-family="Helvetica-Light" font-size="23.8" fill="#EAEAEA" transform="matrix(1.00, 0.00, -0.00, -1.00, 4.0, 17.0)">2</text><text xml:space="preserve" font-family="Helvetica-Light" font-size="23.8" fill="#EAEAEA" transform="matrix(1.00, 0.00, -0.00, -1.00, 17.2, 17.0)">0</text><text xml:space="preserve" font-family="Helvetica-Light" font-size="23.8" fill="#EAEAEA" transform="matrix(1.00, 0.00, -0.00, -1.00, 30.5, 17.0)">0</text><text xml:space="preserve" font-family="Helvetica-Light" font-size="23.8" fill="#EAEAEA" transform="matrix(1.00, 0.00, -0.00, -1.00, 43.7, 17.0)">6</text><text xml:space="preserve" font-family="Helvetica-Light" font-size="23.8" fill="#EAEAEA" transform="matrix(1.00, 0.00, -0.00, -1.00, 56.9, 17.0)">:</text><text xml:space="preserve" font-family="Helvetica-Light" font-size="23.8" fill="#EAEAEA" transform="matrix(1.00, 0.00, -0.00, -1.00, 63.5, 17.0)"> </text><text xml:space="preserve" font-family="Helvetica-Light" font-size="23.8" fill="#EAEAEA" transform="matrix(1.00, 0.00, -0.00, -1.00, 70.2, 17.0)">J</text><text xml:space="preserve" font-family="Helvetica-Light" font-size="23.8" fill="#EAEAEA" transform="matrix(1.00, 0.00, -0.00, -1.00, 82.1, 17.0)">S</text><text xml:space="preserve" font-family="Helvetica-Light" font-size="23.8" fill="#EAEAEA" transform="matrix(1.00, 0.00, -0.00, -1.00, 96.6, 17.0)"> </text><text xml:space="preserve" font-family="Helvetica-Light" font-size="23.8" fill="#EAEAEA" transform="matrix(1.00, 0.00, -0.00, -1.00, 103.2, 17.0)">&amp;</text><text xml:space="preserve" font-family="Helvetica-Light" font-size="23.8" fill="#EAEAEA" transform="matrix(1.00, 0.00, -0.00, -1.00, 119.1, 17.0)"> </text><text xml:space="preserve" font-family="Helvetica-Light" font-size="23.8" fill="#EAEAEA" transform="matrix(1.00, 0.00, -0.00, -1.00, 125.7, 17.0)">C</text><text xml:space="preserve" font-family="Helvetica-Light" font-size="23.8" fill="#EAEAEA" transform="matrix(1.00, 0.00, -0.00, -1.00, 142.9, 17.0)">S</text><text xml:space="preserve" font-family="Helvetica-Light" font-size="23.8" fill="#EAEAEA" transform="matrix(1.00, 0.00, -0.00, -1.00, 157.4, 17.0)">S</text><text xml:space="preserve" font-family="Helvetica-Light" font-size="23.8" fill="#EAEAEA" transform="matrix(1.00, 0.00, -0.00, -1.00, 172.0, 17.0)"> </text><text xml:space="preserve" font-family="Helvetica-Light" font-size="23.8" fill="#EAEAEA" transform="matrix(1.00, 0.00, -0.00, -1.00, 178.6, 17.0)">f</text><text xml:space="preserve" font-family="Helvetica-Light" font-size="23.8" fill="#EAEAEA" transform="matrix(1.00, 0.00, -0.00, -1.00, 185.2, 17.0)">r</text><text xml:space="preserve" font-family="Helvetica-Light" font-size="23.8" fill="#EAEAEA" transform="matrix(1.00, 0.00, -0.00, -1.00, 193.1, 17.0)">a</text><text xml:space="preserve" font-family="Helvetica-Light" font-size="23.8" fill="#EAEAEA" transform="matrix(1.00, 0.00, -0.00, -1.00, 206.4, 17.0)">m</text><text xml:space="preserve" font-family="Helvetica-Light" font-size="23.8" fill="#EAEAEA" transform="matrix(1.00, 0.00, -0.00, -1.00, 226.2, 17.0)">e</text><text xml:space="preserve" font-family="Helvetica-Light" font-size="23.8" fill="#EAEAEA" transform="matrix(1.00, 0.00, -0.00, -1.00, 239.4, 17.0)">w</text><text xml:space="preserve" font-family="Helvetica-Light" font-size="23.8" fill="#EAEAEA" transform="matrix(1.00, 0.00, -0.00, -1.00, 256.6, 17.0)">o</text><text xml:space="preserve" font-family="Helvetica-Light" font-size="23.8" fill="#EAEAEA" transform="matrix(1.00, 0.00, -0.00, -1.00, 269.8, 17.0)">r</text><text xml:space="preserve" font-family="Helvetica-Light" font-size="23.8" fill="#EAEAEA" transform="matrix(1.00, 0.00, -0.00, -1.00, 277.8, 17.0)">k</text><text xml:space="preserve" font-family="Helvetica-Light" font-size="23.8" fill="#EAEAEA" transform="matrix(1.00, 0.00, -0.00, -1.00, 289.7, 17.0)">s</text><text xml:space="preserve" font-family="Helvetica-Light" font-size="23.8" fill="#EAEAEA" transform="matrix(1.00, 0.00, -0.00, -1.00, 301.6, 17.0)"> </text><text xml:space="preserve" font-family="Helvetica-Light" font-size="23.8" fill="#EAEAEA" transform="matrix(1.00, 0.00, -0.00, -1.00, 308.2, 17.0)">e</text><text xml:space="preserve" font-family="Helvetica-Light" font-size="23.8" fill="#EAEAEA" transform="matrix(1.00, 0.00, -0.00, -1.00, 321.4, 17.0)">m</text><text xml:space="preserve" font-family="Helvetica-Light" font-size="23.8" fill="#EAEAEA" transform="matrix(1.00, 0.00, -0.00, -1.00, 341.2, 17.0)">e</text><text xml:space="preserve" font-family="Helvetica-Light" font-size="23.8" fill="#EAEAEA" transform="matrix(1.00, 0.00, -0.00, -1.00, 354.5, 17.0)">r</text><text xml:space="preserve" font-family="Helvetica-Light" font-size="23.8" fill="#EAEAEA" transform="matrix(1.00, 0.00, -0.00, -1.00, 362.4, 17.0)">g</text><text xml:space="preserve" font-family="Helvetica-Light" font-size="23.8" fill="#EAEAEA" transform="matrix(1.00, 0.00, -0.00, -1.00, 376.9, 17.0)">e</text><text xml:space="preserve" font-family="Helvetica-Light" font-size="23.8" fill="#EAEAEA" transform="matrix(1.00, 0.00, -0.00, -1.00, 390.2, 17.0)">,</text><text xml:space="preserve" font-family="Helvetica-Light" font-size="23.8" fill="#EAEAEA" transform="matrix(1.00, 0.00, -0.00, -1.00, 396.8, 17.0)"> </text><text xml:space="preserve" font-family="Helvetica-Light" font-size="23.8" fill="#EAEAEA" transform="matrix(1.00, 0.00, -0.00, -1.00, 403.4, 17.0)">l</text><text xml:space="preserve" font-family="Helvetica-Light" font-size="23.8" fill="#EAEAEA" transform="matrix(1.00, 0.00, -0.00, -1.00, 408.7, 17.0)">a</text><text xml:space="preserve" font-family="Helvetica-Light" font-size="23.8" fill="#EAEAEA" transform="matrix(1.00, 0.00, -0.00, -1.00, 421.9, 17.0)">r</text><text xml:space="preserve" font-family="Helvetica-Light" font-size="23.8" fill="#EAEAEA" transform="matrix(1.00, 0.00, -0.00, -1.00, 429.9, 17.0)">g</text><text xml:space="preserve" font-family="Helvetica-Light" font-size="23.8" fill="#EAEAEA" transform="matrix(1.00, 0.00, -0.00, -1.00, 444.4, 17.0)">e</text><text xml:space="preserve" font-family="Helvetica-Light" font-size="23.8" fill="#EAEAEA" transform="matrix(1.00, 0.00, -0.00, -1.00, 457.6, 17.0)"> </text><text xml:space="preserve" font-family="Helvetica-Light" font-size="23.8" fill="#EAEAEA" transform="matrix(1.00, 0.00, -0.00, -1.00, 464.2, 17.0)">a</text><text xml:space="preserve" font-family="Helvetica-Light" font-size="23.8" fill="#EAEAEA" transform="matrix(1.00, 0.00, -0.00, -1.00, 477.5, 17.0)">p</text><text xml:space="preserve" font-family="Helvetica-Light" font-size="23.8" fill="#EAEAEA" transform="matrix(1.00, 0.00, -0.00, -1.00, 492.0, 17.0)">p</text><text xml:space="preserve" font-family="Helvetica-Light" font-size="23.8" fill="#EAEAEA" transform="matrix(1.00, 0.00, -0.00, -1.00, 506.6, 17.0)">s</text><text xml:space="preserve" font-family="Helvetica-Light" font-size="23.8" fill="#EAEAEA" transform="matrix(1.00, 0.00, -0.00, -1.00, 518.5, 17.0)"> </text><text xml:space="preserve" font-family="Helvetica-Light" font-size="23.8" fill="#EAEAEA" transform="matrix(1.00, 0.00, -0.00, -1.00, 525.1, 17.0)">b</text><text xml:space="preserve" font-family="Helvetica-Light" font-size="23.8" fill="#EAEAEA" transform="matrix(1.00, 0.00, -0.00, -1.00, 539.6, 17.0)">e</text><text xml:space="preserve" font-family="Helvetica-Light" font-size="23.8" fill="#EAEAEA" transform="matrix(1.00, 0.00, -0.00, -1.00, 552.9, 17.0)">c</text><text xml:space="preserve" font-family="Helvetica-Light" font-size="23.8" fill="#EAEAEA" transform="matrix(1.00, 0.00, -0.00, -1.00, 566.1, 17.0)">o</text><text xml:space="preserve" font-family="Helvetica-Light" font-size="23.8" fill="#EAEAEA" transform="matrix(1.00, 0.00, -0.00, -1.00, 579.3, 17.0)">m</text><text xml:space="preserve" font-family="Helvetica-Light" font-size="23.8" fill="#EAEAEA" transform="matrix(1.00, 0.00, -0.00, -1.00, 599.1, 17.0)">e</text><text xml:space="preserve" font-family="Helvetica-Light" font-size="23.8" fill="#EAEAEA" transform="matrix(1.00, 0.00, -0.00, -1.00, 612.4, 17.0)"> </text><text xml:space="preserve" font-family="Helvetica-Light" font-size="23.8" fill="#EAEAEA" transform="matrix(1.00, 0.00, -0.00, -1.00, 619.0, 17.0)">h</text><text xml:space="preserve" font-family="Helvetica-Light" font-size="23.8" fill="#EAEAEA" transform="matrix(1.00, 0.00, -0.00, -1.00, 632.2, 17.0)">a</text><text xml:space="preserve" font-family="Helvetica-Light" font-size="23.8" fill="#EAEAEA" transform="matrix(1.00, 0.00, -0.00, -1.00, 645.5, 17.0)">r</text><text xml:space="preserve" font-family="Helvetica-Light" font-size="23.8" fill="#EAEAEA" transform="matrix(1.00, 0.00, -0.00, -1.00, 653.0, 17.0)">d</text><text xml:space="preserve" font-family="Helvetica-Light" font-size="23.8" fill="#EAEAEA" transform="matrix(1.00, 0.00, -0.00, -1.00, 667.5, 17.0)"> </text><text xml:space="preserve" font-family="Helvetica-Light" font-size="23.8" fill="#EAEAEA" transform="matrix(1.00, 0.00, -0.00, -1.00, 674.1, 17.0)">t</text><text xml:space="preserve" font-family="Helvetica-Light" font-size="23.8" fill="#EAEAEA" transform="matrix(1.00, 0.00, -0.00, -1.00, 680.7, 17.0)">o</text><text xml:space="preserve" font-family="Helvetica-Light" font-size="23.8" fill="#EAEAEA" transform="matrix(1.00, 0.00, -0.00, -1.00, 694.0, 17.0)"> </text><text xml:space="preserve" font-family="Helvetica-Light" font-size="23.8" fill="#EAEAEA" transform="matrix(1.00, 0.00, -0.00, -1.00, 700.6, 17.0)">m</text><text xml:space="preserve" font-family="Helvetica-Light" font-size="23.8" fill="#EAEAEA" transform="matrix(1.00, 0.00, -0.00, -1.00, 720.4, 17.0)">a</text><text xml:space="preserve" font-family="Helvetica-Light" font-size="23.8" fill="#EAEAEA" transform="matrix(1.00, 0.00, -0.00, -1.00, 733.6, 17.0)">i</text><text xml:space="preserve" font-family="Helvetica-Light" font-size="23.8" fill="#EAEAEA" transform="matrix(1.00, 0.00, -0.00, -1.00, 738.9, 17.0)">n</text><text xml:space="preserve" font-family="Helvetica-Light" font-size="23.8" fill="#EAEAEA" transform="matrix(1.00, 0.00, -0.00, -1.00, 752.2, 17.0)">t</text><text xml:space="preserve" font-family="Helvetica-Light" font-size="23.8" fill="#EAEAEA" transform="matrix(1.00, 0.00, -0.00, -1.00, 758.8, 17.0)">a</text><text xml:space="preserve" font-family="Helvetica-Light" font-size="23.8" fill="#EAEAEA" transform="matrix(1.00, 0.00, -0.00, -1.00, 772.0, 17.0)">i</text><text xml:space="preserve" font-family="Helvetica-Light" font-size="23.8" fill="#EAEAEA" transform="matrix(1.00, 0.00, -0.00, -1.00, 777.3, 17.0)">n</text><text xml:space="preserve" font-family="Helvetica-Light" font-size="23.8" fill="#EAEAEA" transform="matrix(1.00, 0.00, -0.00, -1.00, 790.5, 17.0)">.</text><text xml:space="preserve" font-family="Helvetica-Light" font-size="23.8" fill="#EAEAEA" transform="matrix(1.00, 0.00, -0.00, -1.00, 797.1, 17.0)"> </text></g></svg>