<?xml version="1.0" encoding="UTF-8" standalone="no"?><svg xmlns="http://www.w3.org/2000/svg" xmlns:xlink="http://www.w3.org/1999/xlink" clip-rule="evenodd" stroke-miterlimit="4.00" viewBox="0 0 559 40"><desc>SVG generated by Keynote</desc><defs></defs><g transform="matrix(1.00, 0.00, -0.00, -1.00, 0.0, 40.0)"><image xlink:href="F8C8B961584C984CE885CA5BDEC8F6D0.png" width="553.00" height="38.00" transform="matrix(1.00, 0.00, -0.00, -1.00, 2.0, 39.0)"></image><text xml:space="preserve" font-family="Helvetica-Light" font-size="23.8" fill="#EAEAEA" transform="matrix(1.00, 0.00, -0.00, -1.00, 4.0, 17.0)">2</text><text xml:space="preserve" font-family="Helvetica-Light" font-size="23.8" fill="#EAEAEA" transform="matrix(1.00, 0.00, -0.00, -1.00, 17.2, 17.0)">0</text><text xml:space="preserve" font-family="Helvetica-Light" font-size="23.8" fill="#EAEAEA" transform="matrix(1.00, 0.00, -0.00, -1.00, 30.5, 17.0)">0</text><text xml:space="preserve" font-family="Helvetica-Light" font-size="23.8" fill="#EAEAEA" transform="matrix(1.00, 0.00, -0.00, -1.00, 43.7, 17.0)">2</text><text xml:space="preserve" font-family="Helvetica-Light" font-size="23.8" fill="#EAEAEA" transform="matrix(1.00, 0.00, -0.00, -1.00, 56.9, 17.0)">:</text><text xml:space="preserve" font-family="Helvetica-Light" font-size="23.8" fill="#EAEAEA" transform="matrix(1.00, 0.00, -0.00, -1.00, 63.5, 17.0)"> </text><text xml:space="preserve" font-family="Helvetica-Light" font-size="23.8" fill="#EAEAEA" transform="matrix(1.00, 0.00, -0.00, -1.00, 70.2, 17.0)">X</text><text xml:space="preserve" font-family="Helvetica-Light" font-size="23.8" fill="#EAEAEA" transform="matrix(1.00, 0.00, -0.00, -1.00, 84.7, 17.0)">H</text><text xml:space="preserve" font-family="Helvetica-Light" font-size="23.8" fill="#EAEAEA" transform="matrix(1.00, 0.00, -0.00, -1.00, 101.9, 17.0)">R</text><text xml:space="preserve" font-family="Helvetica-Light" font-size="23.8" fill="#EAEAEA" transform="matrix(1.00, 0.00, -0.00, -1.00, 117.8, 17.0)">/</text><text xml:space="preserve" font-family="Helvetica-Light" font-size="23.8" fill="#EAEAEA" transform="matrix(1.00, 0.00, -0.00, -1.00, 124.4, 17.0)">A</text><text xml:space="preserve" font-family="Helvetica-Light" font-size="23.8" fill="#EAEAEA" transform="matrix(1.00, 0.00, -0.00, -1.00, 140.3, 17.0)">j</text><text xml:space="preserve" font-family="Helvetica-Light" font-size="23.8" fill="#EAEAEA" transform="matrix(1.00, 0.00, -0.00, -1.00, 145.5, 17.0)">a</text><text xml:space="preserve" font-family="Helvetica-Light" font-size="23.8" fill="#EAEAEA" transform="matrix(1.00, 0.00, -0.00, -1.00, 158.8, 17.0)">x</text><text xml:space="preserve" font-family="Helvetica-Light" font-size="23.8" fill="#EAEAEA" transform="matrix(1.00, 0.00, -0.00, -1.00, 170.7, 17.0)"> </text><text xml:space="preserve" font-family="Helvetica-Light" font-size="23.8" fill="#EAEAEA" transform="matrix(1.00, 0.00, -0.00, -1.00, 177.3, 17.0)">o</text><text xml:space="preserve" font-family="Helvetica-Light" font-size="23.8" fill="#EAEAEA" transform="matrix(1.00, 0.00, -0.00, -1.00, 190.5, 17.0)">p</text><text xml:space="preserve" font-family="Helvetica-Light" font-size="23.8" fill="#EAEAEA" transform="matrix(1.00, 0.00, -0.00, -1.00, 205.1, 17.0)">e</text><text xml:space="preserve" font-family="Helvetica-Light" font-size="23.8" fill="#EAEAEA" transform="matrix(1.00, 0.00, -0.00, -1.00, 218.3, 17.0)">n</text><text xml:space="preserve" font-family="Helvetica-Light" font-size="23.8" fill="#EAEAEA" transform="matrix(1.00, 0.00, -0.00, -1.00, 231.5, 17.0)">s</text><text xml:space="preserve" font-family="Helvetica-Light" font-size="23.8" fill="#EAEAEA" transform="matrix(1.00, 0.00, -0.00, -1.00, 243.4, 17.0)"> </text><text xml:space="preserve" font-family="Helvetica-Light" font-size="23.8" fill="#EAEAEA" transform="matrix(1.00, 0.00, -0.00, -1.00, 250.0, 17.0)">d</text><text xml:space="preserve" font-family="Helvetica-Light" font-size="23.8" fill="#EAEAEA" transform="matrix(1.00, 0.00, -0.00, -1.00, 264.6, 17.0)">o</text><text xml:space="preserve" font-family="Helvetica-Light" font-size="23.8" fill="#EAEAEA" transform="matrix(1.00, 0.00, -0.00, -1.00, 277.8, 17.0)">o</text><text xml:space="preserve" font-family="Helvetica-Light" font-size="23.8" fill="#EAEAEA" transform="matrix(1.00, 0.00, -0.00, -1.00, 291.1, 17.0)">r</text><text xml:space="preserve" font-family="Helvetica-Light" font-size="23.8" fill="#EAEAEA" transform="matrix(1.00, 0.00, -0.00, -1.00, 299.0, 17.0)"> </text><text xml:space="preserve" font-family="Helvetica-Light" font-size="23.8" fill="#EAEAEA" transform="matrix(1.00, 0.00, -0.00, -1.00, 305.6, 17.0)">f</text><text xml:space="preserve" font-family="Helvetica-Light" font-size="23.8" fill="#EAEAEA" transform="matrix(1.00, 0.00, -0.00, -1.00, 312.2, 17.0)">o</text><text xml:space="preserve" font-family="Helvetica-Light" font-size="23.8" fill="#EAEAEA" transform="matrix(1.00, 0.00, -0.00, -1.00, 325.4, 17.0)">r</text><text xml:space="preserve" font-family="Helvetica-Light" font-size="23.8" fill="#EAEAEA" transform="matrix(1.00, 0.00, -0.00, -1.00, 333.4, 17.0)"> </text><text xml:space="preserve" font-family="Helvetica-Light" font-size="23.8" fill="#EAEAEA" transform="matrix(1.00, 0.00, -0.00, -1.00, 340.0, 17.0)">"</text><text xml:space="preserve" font-family="Helvetica-Light" font-size="23.8" fill="#EAEAEA" transform="matrix(1.00, 0.00, -0.00, -1.00, 346.6, 17.0)">s</text><text xml:space="preserve" font-family="Helvetica-Light" font-size="23.8" fill="#EAEAEA" transform="matrix(1.00, 0.00, -0.00, -1.00, 358.5, 17.0)">i</text><text xml:space="preserve" font-family="Helvetica-Light" font-size="23.8" fill="#EAEAEA" transform="matrix(1.00, 0.00, -0.00, -1.00, 363.8, 17.0)">n</text><text xml:space="preserve" font-family="Helvetica-Light" font-size="23.8" fill="#EAEAEA" transform="matrix(1.00, 0.00, -0.00, -1.00, 377.0, 17.0)">g</text><text xml:space="preserve" font-family="Helvetica-Light" font-size="23.8" fill="#EAEAEA" transform="matrix(1.00, 0.00, -0.00, -1.00, 391.6, 17.0)">l</text><text xml:space="preserve" font-family="Helvetica-Light" font-size="23.8" fill="#EAEAEA" transform="matrix(1.00, 0.00, -0.00, -1.00, 396.8, 17.0)">e</text><text xml:space="preserve" font-family="Helvetica-Light" font-size="23.8" fill="#EAEAEA" transform="matrix(1.00, 0.00, -0.00, -1.00, 410.1, 17.0)"> </text><text xml:space="preserve" font-family="Helvetica-Light" font-size="23.8" fill="#EAEAEA" transform="matrix(1.00, 0.00, -0.00, -1.00, 416.7, 17.0)">p</text><text xml:space="preserve" font-family="Helvetica-Light" font-size="23.8" fill="#EAEAEA" transform="matrix(1.00, 0.00, -0.00, -1.00, 431.2, 17.0)">a</text><text xml:space="preserve" font-family="Helvetica-Light" font-size="23.8" fill="#EAEAEA" transform="matrix(1.00, 0.00, -0.00, -1.00, 444.5, 17.0)">g</text><text xml:space="preserve" font-family="Helvetica-Light" font-size="23.8" fill="#EAEAEA" transform="matrix(1.00, 0.00, -0.00, -1.00, 459.0, 17.0)">e</text><text xml:space="preserve" font-family="Helvetica-Light" font-size="23.8" fill="#EAEAEA" transform="matrix(1.00, 0.00, -0.00, -1.00, 472.2, 17.0)"> </text><text xml:space="preserve" font-family="Helvetica-Light" font-size="23.8" fill="#EAEAEA" transform="matrix(1.00, 0.00, -0.00, -1.00, 478.9, 17.0)">a</text><text xml:space="preserve" font-family="Helvetica-Light" font-size="23.8" fill="#EAEAEA" transform="matrix(1.00, 0.00, -0.00, -1.00, 492.1, 17.0)">p</text><text xml:space="preserve" font-family="Helvetica-Light" font-size="23.8" fill="#EAEAEA" transform="matrix(1.00, 0.00, -0.00, -1.00, 506.6, 17.0)">p</text><text xml:space="preserve" font-family="Helvetica-Light" font-size="23.8" fill="#EAEAEA" transform="matrix(1.00, 0.00, -0.00, -1.00, 521.2, 17.0)">s</text><text xml:space="preserve" font-family="Helvetica-Light" font-size="23.8" fill="#EAEAEA" transform="matrix(1.00, 0.00, -0.00, -1.00, 533.1, 17.0)">"</text><text xml:space="preserve" font-family="Helvetica-Light" font-size="23.8" fill="#EAEAEA" transform="matrix(1.00, 0.00, -0.00, -1.00, 539.7, 17.0)">.</text><text xml:space="preserve" font-family="Helvetica-Light" font-size="23.8" fill="#EAEAEA" transform="matrix(1.00, 0.00, -0.00, -1.00, 546.3, 17.0)"> </text></g></svg>