<?xml version="1.0" encoding="UTF-8" standalone="no"?><svg xmlns="http://www.w3.org/2000/svg" xmlns:xlink="http://www.w3.org/1999/xlink" clip-rule="evenodd" stroke-miterlimit="4.00" viewBox="0 0 1024 768"><desc>SVG generated by Keynote</desc><defs></defs><g transform="matrix(1.00, 0.00, -0.00, -1.00, 0.0, 768.0)"><g><clipPath id="clip-150"><path d="M 0.0 768.0 L 1024.0 768.0 L 1024.0 0.0 L 0.0 0.0 Z M 0.0 768.0 "></path></clipPath><g clip-path="url(#clip-150)"><image xlink:href="../../06DBE9C8-52A0-453A-A7BF-EBF58CF01F35/assets/E7ABA782A15EA3475B4CFCC80A2FEB63.jpeg" width="1024.00" height="768.00" transform="matrix(1.00, 0.00, -0.00, -1.00, 0.0, 768.0)"></image></g></g><image xlink:href="F455F43BF219DAEE664DD2D547B46D74.png" width="278.00" height="89.00" transform="matrix(1.00, 0.00, -0.00, -1.00, 377.0, 684.0)"></image><text xml:space="preserve" font-family="Helvetica-Light" font-size="80.0" fill="#FEFFFF" transform="matrix(1.00, 0.00, -0.00, -1.00, 374.0, 622.0)">R</text><text xml:space="preserve" font-family="Helvetica-Light" font-size="80.0" fill="#FEFFFF" transform="matrix(1.00, 0.00, -0.00, -1.00, 427.4, 622.0)">o</text><text xml:space="preserve" font-family="Helvetica-Light" font-size="80.0" fill="#FEFFFF" transform="matrix(1.00, 0.00, -0.00, -1.00, 471.8, 622.0)">u</text><text xml:space="preserve" font-family="Helvetica-Light" font-size="80.0" fill="#FEFFFF" transform="matrix(1.00, 0.00, -0.00, -1.00, 516.3, 622.0)">t</text><text xml:space="preserve" font-family="Helvetica-Light" font-size="80.0" fill="#FEFFFF" transform="matrix(1.00, 0.00, -0.00, -1.00, 538.6, 622.0)">i</text><text xml:space="preserve" font-family="Helvetica-Light" font-size="80.0" fill="#FEFFFF" transform="matrix(1.00, 0.00, -0.00, -1.00, 556.3, 622.0)">n</text><text xml:space="preserve" font-family="Helvetica-Light" font-size="80.0" fill="#FEFFFF" transform="matrix(1.00, 0.00, -0.00, -1.00, 600.8, 622.0)">g</text><image xlink:href="085764096A4AD83E16C43E1A391C0EF9.png" width="23.00" height="23.00" transform="matrix(1.00, 0.00, -0.00, -1.00, 77.0, 533.0)"></image><text xml:space="preserve" font-family="Helvetica-Light" font-size="22.7" fill="#EAEAEA" transform="matrix(1.00, 0.00, -0.00, -1.00, 79.0, 516.2)">•</text><image xlink:href="2D4A5E1BA9CD9B1CD41D7298468AA796.png" width="744.00" height="44.00" transform="matrix(1.00, 0.00, -0.00, -1.00, 107.0, 540.0)"></image><text xml:space="preserve" font-family="Helvetica-Light" font-size="30.3" fill="#EAEAEA" transform="matrix(1.00, 0.00, -0.00, -1.00, 108.0, 513.0)">R</text><text xml:space="preserve" font-family="Helvetica-Light" font-size="30.3" fill="#EAEAEA" transform="matrix(1.00, 0.00, -0.00, -1.00, 128.2, 513.0)">o</text><text xml:space="preserve" font-family="Helvetica-Light" font-size="30.3" fill="#EAEAEA" transform="matrix(1.00, 0.00, -0.00, -1.00, 145.0, 513.0)">u</text><text xml:space="preserve" font-family="Helvetica-Light" font-size="30.3" fill="#EAEAEA" transform="matrix(1.00, 0.00, -0.00, -1.00, 161.8, 513.0)">t</text><text xml:space="preserve" font-family="Helvetica-Light" font-size="30.3" fill="#EAEAEA" transform="matrix(1.00, 0.00, -0.00, -1.00, 170.2, 513.0)">i</text><text xml:space="preserve" font-family="Helvetica-Light" font-size="30.3" fill="#EAEAEA" transform="matrix(1.00, 0.00, -0.00, -1.00, 177.0, 513.0)">n</text><text xml:space="preserve" font-family="Helvetica-Light" font-size="30.3" fill="#EAEAEA" transform="matrix(1.00, 0.00, -0.00, -1.00, 193.8, 513.0)">g</text><text xml:space="preserve" font-family="Helvetica-Light" font-size="30.3" fill="#EAEAEA" transform="matrix(1.00, 0.00, -0.00, -1.00, 212.3, 513.0)"> </text><text xml:space="preserve" font-family="Helvetica-Light" font-size="30.3" fill="#EAEAEA" transform="matrix(1.00, 0.00, -0.00, -1.00, 220.7, 513.0)">i</text><text xml:space="preserve" font-family="Helvetica-Light" font-size="30.3" fill="#EAEAEA" transform="matrix(1.00, 0.00, -0.00, -1.00, 227.4, 513.0)">s</text><text xml:space="preserve" font-family="Helvetica-Light" font-size="30.3" fill="#EAEAEA" transform="matrix(1.00, 0.00, -0.00, -1.00, 242.5, 513.0)"> </text><text xml:space="preserve" font-family="Helvetica-Light" font-size="30.3" fill="#EAEAEA" transform="matrix(1.00, 0.00, -0.00, -1.00, 250.9, 513.0)">t</text><text xml:space="preserve" font-family="Helvetica-Light" font-size="30.3" fill="#EAEAEA" transform="matrix(1.00, 0.00, -0.00, -1.00, 259.4, 513.0)">h</text><text xml:space="preserve" font-family="Helvetica-Light" font-size="30.3" fill="#EAEAEA" transform="matrix(1.00, 0.00, -0.00, -1.00, 276.2, 513.0)">e</text><text xml:space="preserve" font-family="Helvetica-Light" font-size="30.3" fill="#EAEAEA" transform="matrix(1.00, 0.00, -0.00, -1.00, 293.0, 513.0)"> </text><text xml:space="preserve" font-family="Helvetica-Light" font-size="30.3" fill="#EAEAEA" transform="matrix(1.00, 0.00, -0.00, -1.00, 301.4, 513.0)">m</text><text xml:space="preserve" font-family="Helvetica-Light" font-size="30.3" fill="#EAEAEA" transform="matrix(1.00, 0.00, -0.00, -1.00, 326.6, 513.0)">a</text><text xml:space="preserve" font-family="Helvetica-Light" font-size="30.3" fill="#EAEAEA" transform="matrix(1.00, 0.00, -0.00, -1.00, 343.5, 513.0)">p</text><text xml:space="preserve" font-family="Helvetica-Light" font-size="30.3" fill="#EAEAEA" transform="matrix(1.00, 0.00, -0.00, -1.00, 361.9, 513.0)">p</text><text xml:space="preserve" font-family="Helvetica-Light" font-size="30.3" fill="#EAEAEA" transform="matrix(1.00, 0.00, -0.00, -1.00, 380.4, 513.0)">i</text><text xml:space="preserve" font-family="Helvetica-Light" font-size="30.3" fill="#EAEAEA" transform="matrix(1.00, 0.00, -0.00, -1.00, 387.1, 513.0)">n</text><text xml:space="preserve" font-family="Helvetica-Light" font-size="30.3" fill="#EAEAEA" transform="matrix(1.00, 0.00, -0.00, -1.00, 404.0, 513.0)">g</text><text xml:space="preserve" font-family="Helvetica-Light" font-size="30.3" fill="#EAEAEA" transform="matrix(1.00, 0.00, -0.00, -1.00, 422.5, 513.0)"> </text><text xml:space="preserve" font-family="Helvetica-Light" font-size="30.3" fill="#EAEAEA" transform="matrix(1.00, 0.00, -0.00, -1.00, 430.9, 513.0)">o</text><text xml:space="preserve" font-family="Helvetica-Light" font-size="30.3" fill="#EAEAEA" transform="matrix(1.00, 0.00, -0.00, -1.00, 447.7, 513.0)">f</text><text xml:space="preserve" font-family="Helvetica-Light" font-size="30.3" fill="#EAEAEA" transform="matrix(1.00, 0.00, -0.00, -1.00, 456.1, 513.0)"> </text><text xml:space="preserve" font-family="Helvetica-Light" font-size="30.3" fill="#EAEAEA" transform="matrix(1.00, 0.00, -0.00, -1.00, 464.5, 513.0)">U</text><text xml:space="preserve" font-family="Helvetica-Light" font-size="30.3" fill="#EAEAEA" transform="matrix(1.00, 0.00, -0.00, -1.00, 486.4, 513.0)">R</text><text xml:space="preserve" font-family="Helvetica-Light" font-size="30.3" fill="#EAEAEA" transform="matrix(1.00, 0.00, -0.00, -1.00, 506.6, 513.0)">I</text><text xml:space="preserve" font-family="Helvetica-Light" font-size="30.3" fill="#EAEAEA" transform="matrix(1.00, 0.00, -0.00, -1.00, 515.0, 513.0)"> </text><text xml:space="preserve" font-family="Helvetica-Light" font-size="30.3" fill="#EAEAEA" transform="matrix(1.00, 0.00, -0.00, -1.00, 523.4, 513.0)">p</text><text xml:space="preserve" font-family="Helvetica-Light" font-size="30.3" fill="#EAEAEA" transform="matrix(1.00, 0.00, -0.00, -1.00, 541.9, 513.0)">a</text><text xml:space="preserve" font-family="Helvetica-Light" font-size="30.3" fill="#EAEAEA" transform="matrix(1.00, 0.00, -0.00, -1.00, 558.7, 513.0)">t</text><text xml:space="preserve" font-family="Helvetica-Light" font-size="30.3" fill="#EAEAEA" transform="matrix(1.00, 0.00, -0.00, -1.00, 567.1, 513.0)">h</text><text xml:space="preserve" font-family="Helvetica-Light" font-size="30.3" fill="#EAEAEA" transform="matrix(1.00, 0.00, -0.00, -1.00, 583.9, 513.0)">s</text><text xml:space="preserve" font-family="Helvetica-Light" font-size="30.3" fill="#EAEAEA" transform="matrix(1.00, 0.00, -0.00, -1.00, 599.1, 513.0)"> </text><text xml:space="preserve" font-family="Helvetica-Light" font-size="30.3" fill="#EAEAEA" transform="matrix(1.00, 0.00, -0.00, -1.00, 607.5, 513.0)">t</text><text xml:space="preserve" font-family="Helvetica-Light" font-size="30.3" fill="#EAEAEA" transform="matrix(1.00, 0.00, -0.00, -1.00, 615.9, 513.0)">o</text><text xml:space="preserve" font-family="Helvetica-Light" font-size="30.3" fill="#EAEAEA" transform="matrix(1.00, 0.00, -0.00, -1.00, 632.7, 513.0)"> </text><text xml:space="preserve" font-family="Helvetica-Light" font-size="30.3" fill="#EAEAEA" transform="matrix(1.00, 0.00, -0.00, -1.00, 641.1, 513.0)">c</text><text xml:space="preserve" font-family="Helvetica-Light" font-size="30.3" fill="#EAEAEA" transform="matrix(1.00, 0.00, -0.00, -1.00, 657.9, 513.0)">o</text><text xml:space="preserve" font-family="Helvetica-Light" font-size="30.3" fill="#EAEAEA" transform="matrix(1.00, 0.00, -0.00, -1.00, 674.8, 513.0)">d</text><text xml:space="preserve" font-family="Helvetica-Light" font-size="30.3" fill="#EAEAEA" transform="matrix(1.00, 0.00, -0.00, -1.00, 693.3, 513.0)">e</text><text xml:space="preserve" font-family="Helvetica-Light" font-size="30.3" fill="#EAEAEA" transform="matrix(1.00, 0.00, -0.00, -1.00, 710.1, 513.0)"> </text><text xml:space="preserve" font-family="Helvetica-Light" font-size="30.3" fill="#EAEAEA" transform="matrix(1.00, 0.00, -0.00, -1.00, 718.5, 513.0)">m</text><text xml:space="preserve" font-family="Helvetica-Light" font-size="30.3" fill="#EAEAEA" transform="matrix(1.00, 0.00, -0.00, -1.00, 743.7, 513.0)">o</text><text xml:space="preserve" font-family="Helvetica-Light" font-size="30.3" fill="#EAEAEA" transform="matrix(1.00, 0.00, -0.00, -1.00, 760.5, 513.0)">d</text><text xml:space="preserve" font-family="Helvetica-Light" font-size="30.3" fill="#EAEAEA" transform="matrix(1.00, 0.00, -0.00, -1.00, 779.0, 513.0)">u</text><text xml:space="preserve" font-family="Helvetica-Light" font-size="30.3" fill="#EAEAEA" transform="matrix(1.00, 0.00, -0.00, -1.00, 795.8, 513.0)">l</text><text xml:space="preserve" font-family="Helvetica-Light" font-size="30.3" fill="#EAEAEA" transform="matrix(1.00, 0.00, -0.00, -1.00, 802.6, 513.0)">e</text><text xml:space="preserve" font-family="Helvetica-Light" font-size="30.3" fill="#EAEAEA" transform="matrix(1.00, 0.00, -0.00, -1.00, 819.4, 513.0)">s</text><text xml:space="preserve" font-family="Helvetica-Light" font-size="30.3" fill="#EAEAEA" transform="matrix(1.00, 0.00, -0.00, -1.00, 834.5, 513.0)">.</text><text xml:space="preserve" font-family="Helvetica-Light" font-size="30.3" fill="#EAEAEA" transform="matrix(1.00, 0.00, -0.00, -1.00, 842.9, 513.0)"> </text><image xlink:href="E5677BA4B510C4C79CD5484BA3054B07.png" width="23.00" height="24.00" transform="matrix(1.00, 0.00, -0.00, -1.00, 77.0, 460.0)"></image><text xml:space="preserve" font-family="Helvetica-Light" font-size="22.7" fill="#EAEAEA" transform="matrix(1.00, 0.00, -0.00, -1.00, 79.0, 442.8)">•</text><image xlink:href="FB8421247E717204F8A6531D5F036893.png" width="793.00" height="43.00" transform="matrix(1.00, 0.00, -0.00, -1.00, 108.0, 466.0)"></image><text xml:space="preserve" font-family="Helvetica-Light" font-size="30.3" fill="#EAEAEA" transform="matrix(1.00, 0.00, -0.00, -1.00, 108.0, 440.0)">I</text><text xml:space="preserve" font-family="Helvetica-Light" font-size="30.3" fill="#EAEAEA" transform="matrix(1.00, 0.00, -0.00, -1.00, 116.4, 440.0)">t</text><text xml:space="preserve" font-family="Helvetica-Light" font-size="30.3" fill="#EAEAEA" transform="matrix(1.00, 0.00, -0.00, -1.00, 124.8, 440.0)"> </text><text xml:space="preserve" font-family="Helvetica-Light" font-size="30.3" fill="#EAEAEA" transform="matrix(1.00, 0.00, -0.00, -1.00, 133.2, 440.0)">i</text><text xml:space="preserve" font-family="Helvetica-Light" font-size="30.3" fill="#EAEAEA" transform="matrix(1.00, 0.00, -0.00, -1.00, 140.0, 440.0)">s</text><text xml:space="preserve" font-family="Helvetica-Light" font-size="30.3" fill="#EAEAEA" transform="matrix(1.00, 0.00, -0.00, -1.00, 155.1, 440.0)"> </text><text xml:space="preserve" font-family="Helvetica-Light" font-size="30.3" fill="#EAEAEA" transform="matrix(1.00, 0.00, -0.00, -1.00, 163.5, 440.0)">h</text><text xml:space="preserve" font-family="Helvetica-Light" font-size="30.3" fill="#EAEAEA" transform="matrix(1.00, 0.00, -0.00, -1.00, 180.3, 440.0)">i</text><text xml:space="preserve" font-family="Helvetica-Light" font-size="30.3" fill="#EAEAEA" transform="matrix(1.00, 0.00, -0.00, -1.00, 187.0, 440.0)">e</text><text xml:space="preserve" font-family="Helvetica-Light" font-size="30.3" fill="#EAEAEA" transform="matrix(1.00, 0.00, -0.00, -1.00, 203.9, 440.0)">r</text><text xml:space="preserve" font-family="Helvetica-Light" font-size="30.3" fill="#EAEAEA" transform="matrix(1.00, 0.00, -0.00, -1.00, 213.9, 440.0)">a</text><text xml:space="preserve" font-family="Helvetica-Light" font-size="30.3" fill="#EAEAEA" transform="matrix(1.00, 0.00, -0.00, -1.00, 230.8, 440.0)">r</text><text xml:space="preserve" font-family="Helvetica-Light" font-size="30.3" fill="#EAEAEA" transform="matrix(1.00, 0.00, -0.00, -1.00, 240.3, 440.0)">c</text><text xml:space="preserve" font-family="Helvetica-Light" font-size="30.3" fill="#EAEAEA" transform="matrix(1.00, 0.00, -0.00, -1.00, 257.1, 440.0)">h</text><text xml:space="preserve" font-family="Helvetica-Light" font-size="30.3" fill="#EAEAEA" transform="matrix(1.00, 0.00, -0.00, -1.00, 273.9, 440.0)">i</text><text xml:space="preserve" font-family="Helvetica-Light" font-size="30.3" fill="#EAEAEA" transform="matrix(1.00, 0.00, -0.00, -1.00, 280.7, 440.0)">c</text><text xml:space="preserve" font-family="Helvetica-Light" font-size="30.3" fill="#EAEAEA" transform="matrix(1.00, 0.00, -0.00, -1.00, 297.5, 440.0)">a</text><text xml:space="preserve" font-family="Helvetica-Light" font-size="30.3" fill="#EAEAEA" transform="matrix(1.00, 0.00, -0.00, -1.00, 314.3, 440.0)">l</text><text xml:space="preserve" font-family="Helvetica-Light" font-size="30.3" fill="#EAEAEA" transform="matrix(1.00, 0.00, -0.00, -1.00, 321.0, 440.0)"> </text><text xml:space="preserve" font-family="Helvetica-Light" font-size="30.3" fill="#EAEAEA" transform="matrix(1.00, 0.00, -0.00, -1.00, 329.4, 440.0)">i</text><text xml:space="preserve" font-family="Helvetica-Light" font-size="30.3" fill="#EAEAEA" transform="matrix(1.00, 0.00, -0.00, -1.00, 336.2, 440.0)">n</text><text xml:space="preserve" font-family="Helvetica-Light" font-size="30.3" fill="#EAEAEA" transform="matrix(1.00, 0.00, -0.00, -1.00, 353.0, 440.0)"> </text><text xml:space="preserve" font-family="Helvetica-Light" font-size="30.3" fill="#EAEAEA" transform="matrix(1.00, 0.00, -0.00, -1.00, 361.4, 440.0)">n</text><text xml:space="preserve" font-family="Helvetica-Light" font-size="30.3" fill="#EAEAEA" transform="matrix(1.00, 0.00, -0.00, -1.00, 378.2, 440.0)">a</text><text xml:space="preserve" font-family="Helvetica-Light" font-size="30.3" fill="#EAEAEA" transform="matrix(1.00, 0.00, -0.00, -1.00, 395.0, 440.0)">t</text><text xml:space="preserve" font-family="Helvetica-Light" font-size="30.3" fill="#EAEAEA" transform="matrix(1.00, 0.00, -0.00, -1.00, 403.5, 440.0)">u</text><text xml:space="preserve" font-family="Helvetica-Light" font-size="30.3" fill="#EAEAEA" transform="matrix(1.00, 0.00, -0.00, -1.00, 420.3, 440.0)">r</text><text xml:space="preserve" font-family="Helvetica-Light" font-size="30.3" fill="#EAEAEA" transform="matrix(1.00, 0.00, -0.00, -1.00, 429.8, 440.0)">e</text><text xml:space="preserve" font-family="Helvetica-Light" font-size="30.3" fill="#EAEAEA" transform="matrix(1.00, 0.00, -0.00, -1.00, 446.6, 440.0)">.</text><text xml:space="preserve" font-family="Helvetica-Light" font-size="30.3" fill="#EAEAEA" transform="matrix(1.00, 0.00, -0.00, -1.00, 455.1, 440.0)"> </text><text xml:space="preserve" font-family="Helvetica-Light" font-size="30.3" fill="#EAEAEA" transform="matrix(1.00, 0.00, -0.00, -1.00, 463.5, 440.0)">T</text><text xml:space="preserve" font-family="Helvetica-Light" font-size="30.3" fill="#EAEAEA" transform="matrix(1.00, 0.00, -0.00, -1.00, 480.3, 440.0)">h</text><text xml:space="preserve" font-family="Helvetica-Light" font-size="30.3" fill="#EAEAEA" transform="matrix(1.00, 0.00, -0.00, -1.00, 497.1, 440.0)">e</text><text xml:space="preserve" font-family="Helvetica-Light" font-size="30.3" fill="#EAEAEA" transform="matrix(1.00, 0.00, -0.00, -1.00, 513.9, 440.0)">r</text><text xml:space="preserve" font-family="Helvetica-Light" font-size="30.3" fill="#EAEAEA" transform="matrix(1.00, 0.00, -0.00, -1.00, 523.5, 440.0)">e</text><text xml:space="preserve" font-family="Helvetica-Light" font-size="30.3" fill="#EAEAEA" transform="matrix(1.00, 0.00, -0.00, -1.00, 540.3, 440.0)"> </text><text xml:space="preserve" font-family="Helvetica-Light" font-size="30.3" fill="#EAEAEA" transform="matrix(1.00, 0.00, -0.00, -1.00, 548.7, 440.0)">i</text><text xml:space="preserve" font-family="Helvetica-Light" font-size="30.3" fill="#EAEAEA" transform="matrix(1.00, 0.00, -0.00, -1.00, 555.4, 440.0)">s</text><text xml:space="preserve" font-family="Helvetica-Light" font-size="30.3" fill="#EAEAEA" transform="matrix(1.00, 0.00, -0.00, -1.00, 570.6, 440.0)"> </text><text xml:space="preserve" font-family="Helvetica-Light" font-size="30.3" fill="#EAEAEA" transform="matrix(1.00, 0.00, -0.00, -1.00, 579.0, 440.0)">o</text><text xml:space="preserve" font-family="Helvetica-Light" font-size="30.3" fill="#EAEAEA" transform="matrix(1.00, 0.00, -0.00, -1.00, 595.8, 440.0)">n</text><text xml:space="preserve" font-family="Helvetica-Light" font-size="30.3" fill="#EAEAEA" transform="matrix(1.00, 0.00, -0.00, -1.00, 612.6, 440.0)">l</text><text xml:space="preserve" font-family="Helvetica-Light" font-size="30.3" fill="#EAEAEA" transform="matrix(1.00, 0.00, -0.00, -1.00, 619.3, 440.0)">y</text><text xml:space="preserve" font-family="Helvetica-Light" font-size="30.3" fill="#EAEAEA" transform="matrix(1.00, 0.00, -0.00, -1.00, 634.5, 440.0)"> </text><text xml:space="preserve" font-family="Helvetica-Light" font-size="30.3" fill="#EAEAEA" transform="matrix(1.00, 0.00, -0.00, -1.00, 642.9, 440.0)">o</text><text xml:space="preserve" font-family="Helvetica-Light" font-size="30.3" fill="#EAEAEA" transform="matrix(1.00, 0.00, -0.00, -1.00, 659.7, 440.0)">n</text><text xml:space="preserve" font-family="Helvetica-Light" font-size="30.3" fill="#EAEAEA" transform="matrix(1.00, 0.00, -0.00, -1.00, 676.5, 440.0)">e</text><text xml:space="preserve" font-family="Helvetica-Light" font-size="30.3" fill="#EAEAEA" transform="matrix(1.00, 0.00, -0.00, -1.00, 693.3, 440.0)"> </text><text xml:space="preserve" font-family="Helvetica-Light" font-size="30.3" fill="#EAEAEA" transform="matrix(1.00, 0.00, -0.00, -1.00, 701.8, 440.0)">r</text><text xml:space="preserve" font-family="Helvetica-Light" font-size="30.3" fill="#EAEAEA" transform="matrix(1.00, 0.00, -0.00, -1.00, 711.3, 440.0)">o</text><text xml:space="preserve" font-family="Helvetica-Light" font-size="30.3" fill="#EAEAEA" transform="matrix(1.00, 0.00, -0.00, -1.00, 728.1, 440.0)">u</text><text xml:space="preserve" font-family="Helvetica-Light" font-size="30.3" fill="#EAEAEA" transform="matrix(1.00, 0.00, -0.00, -1.00, 744.9, 440.0)">t</text><text xml:space="preserve" font-family="Helvetica-Light" font-size="30.3" fill="#EAEAEA" transform="matrix(1.00, 0.00, -0.00, -1.00, 753.4, 440.0)">e</text><text xml:space="preserve" font-family="Helvetica-Light" font-size="30.3" fill="#EAEAEA" transform="matrix(1.00, 0.00, -0.00, -1.00, 770.2, 440.0)">r</text><text xml:space="preserve" font-family="Helvetica-Light" font-size="30.3" fill="#EAEAEA" transform="matrix(1.00, 0.00, -0.00, -1.00, 780.3, 440.0)"> </text><text xml:space="preserve" font-family="Helvetica-Light" font-size="30.3" fill="#EAEAEA" transform="matrix(1.00, 0.00, -0.00, -1.00, 788.7, 440.0)">p</text><text xml:space="preserve" font-family="Helvetica-Light" font-size="30.3" fill="#EAEAEA" transform="matrix(1.00, 0.00, -0.00, -1.00, 807.2, 440.0)">e</text><text xml:space="preserve" font-family="Helvetica-Light" font-size="30.3" fill="#EAEAEA" transform="matrix(1.00, 0.00, -0.00, -1.00, 824.0, 440.0)">r</text><text xml:space="preserve" font-family="Helvetica-Light" font-size="30.3" fill="#EAEAEA" transform="matrix(1.00, 0.00, -0.00, -1.00, 834.1, 440.0)"> </text><text xml:space="preserve" font-family="Helvetica-Light" font-size="30.3" fill="#EAEAEA" transform="matrix(1.00, 0.00, -0.00, -1.00, 842.5, 440.0)">U</text><text xml:space="preserve" font-family="Helvetica-Light" font-size="30.3" fill="#EAEAEA" transform="matrix(1.00, 0.00, -0.00, -1.00, 864.3, 440.0)">R</text><text xml:space="preserve" font-family="Helvetica-Light" font-size="30.3" fill="#EAEAEA" transform="matrix(1.00, 0.00, -0.00, -1.00, 884.5, 440.0)">I</text><text xml:space="preserve" font-family="Helvetica-Light" font-size="30.3" fill="#EAEAEA" transform="matrix(1.00, 0.00, -0.00, -1.00, 892.9, 440.0)"> </text><image xlink:href="59EDE773919F39E47CF4179EECC46A08.png" width="823.00" height="43.00" transform="matrix(1.00, 0.00, -0.00, -1.00, 107.0, 430.0)"></image><text xml:space="preserve" font-family="Helvetica-Light" font-size="30.3" fill="#EAEAEA" transform="matrix(1.00, 0.00, -0.00, -1.00, 108.0, 404.0)">n</text><text xml:space="preserve" font-family="Helvetica-Light" font-size="30.3" fill="#EAEAEA" transform="matrix(1.00, 0.00, -0.00, -1.00, 124.8, 404.0)">o</text><text xml:space="preserve" font-family="Helvetica-Light" font-size="30.3" fill="#EAEAEA" transform="matrix(1.00, 0.00, -0.00, -1.00, 141.6, 404.0)">d</text><text xml:space="preserve" font-family="Helvetica-Light" font-size="30.3" fill="#EAEAEA" transform="matrix(1.00, 0.00, -0.00, -1.00, 160.1, 404.0)">e</text><text xml:space="preserve" font-family="Helvetica-Light" font-size="30.3" fill="#EAEAEA" transform="matrix(1.00, 0.00, -0.00, -1.00, 177.0, 404.0)">.</text><text xml:space="preserve" font-family="Helvetica-Light" font-size="30.3" fill="#EAEAEA" transform="matrix(1.00, 0.00, -0.00, -1.00, 185.4, 404.0)"> </text><text xml:space="preserve" font-family="Helvetica-Light" font-size="30.3" fill="#EAEAEA" transform="matrix(1.00, 0.00, -0.00, -1.00, 193.8, 404.0)">D</text><text xml:space="preserve" font-family="Helvetica-Light" font-size="30.3" fill="#EAEAEA" transform="matrix(1.00, 0.00, -0.00, -1.00, 215.6, 404.0)">e</text><text xml:space="preserve" font-family="Helvetica-Light" font-size="30.3" fill="#EAEAEA" transform="matrix(1.00, 0.00, -0.00, -1.00, 232.5, 404.0)">l</text><text xml:space="preserve" font-family="Helvetica-Light" font-size="30.3" fill="#EAEAEA" transform="matrix(1.00, 0.00, -0.00, -1.00, 239.2, 404.0)">e</text><text xml:space="preserve" font-family="Helvetica-Light" font-size="30.3" fill="#EAEAEA" transform="matrix(1.00, 0.00, -0.00, -1.00, 256.0, 404.0)">g</text><text xml:space="preserve" font-family="Helvetica-Light" font-size="30.3" fill="#EAEAEA" transform="matrix(1.00, 0.00, -0.00, -1.00, 274.5, 404.0)">a</text><text xml:space="preserve" font-family="Helvetica-Light" font-size="30.3" fill="#EAEAEA" transform="matrix(1.00, 0.00, -0.00, -1.00, 291.3, 404.0)">t</text><text xml:space="preserve" font-family="Helvetica-Light" font-size="30.3" fill="#EAEAEA" transform="matrix(1.00, 0.00, -0.00, -1.00, 299.7, 404.0)">i</text><text xml:space="preserve" font-family="Helvetica-Light" font-size="30.3" fill="#EAEAEA" transform="matrix(1.00, 0.00, -0.00, -1.00, 306.4, 404.0)">o</text><text xml:space="preserve" font-family="Helvetica-Light" font-size="30.3" fill="#EAEAEA" transform="matrix(1.00, 0.00, -0.00, -1.00, 323.3, 404.0)">n</text><text xml:space="preserve" font-family="Helvetica-Light" font-size="30.3" fill="#EAEAEA" transform="matrix(1.00, 0.00, -0.00, -1.00, 340.1, 404.0)"> </text><text xml:space="preserve" font-family="Helvetica-Light" font-size="30.3" fill="#EAEAEA" transform="matrix(1.00, 0.00, -0.00, -1.00, 348.5, 404.0)">b</text><text xml:space="preserve" font-family="Helvetica-Light" font-size="30.3" fill="#EAEAEA" transform="matrix(1.00, 0.00, -0.00, -1.00, 367.0, 404.0)">e</text><text xml:space="preserve" font-family="Helvetica-Light" font-size="30.3" fill="#EAEAEA" transform="matrix(1.00, 0.00, -0.00, -1.00, 383.8, 404.0)">t</text><text xml:space="preserve" font-family="Helvetica-Light" font-size="30.3" fill="#EAEAEA" transform="matrix(1.00, 0.00, -0.00, -1.00, 392.2, 404.0)">w</text><text xml:space="preserve" font-family="Helvetica-Light" font-size="30.3" fill="#EAEAEA" transform="matrix(1.00, 0.00, -0.00, -1.00, 414.1, 404.0)">e</text><text xml:space="preserve" font-family="Helvetica-Light" font-size="30.3" fill="#EAEAEA" transform="matrix(1.00, 0.00, -0.00, -1.00, 430.9, 404.0)">e</text><text xml:space="preserve" font-family="Helvetica-Light" font-size="30.3" fill="#EAEAEA" transform="matrix(1.00, 0.00, -0.00, -1.00, 447.7, 404.0)">n</text><text xml:space="preserve" font-family="Helvetica-Light" font-size="30.3" fill="#EAEAEA" transform="matrix(1.00, 0.00, -0.00, -1.00, 464.6, 404.0)"> </text><text xml:space="preserve" font-family="Helvetica-Light" font-size="30.3" fill="#EAEAEA" transform="matrix(1.00, 0.00, -0.00, -1.00, 473.0, 404.0)">r</text><text xml:space="preserve" font-family="Helvetica-Light" font-size="30.3" fill="#EAEAEA" transform="matrix(1.00, 0.00, -0.00, -1.00, 482.5, 404.0)">o</text><text xml:space="preserve" font-family="Helvetica-Light" font-size="30.3" fill="#EAEAEA" transform="matrix(1.00, 0.00, -0.00, -1.00, 499.3, 404.0)">u</text><text xml:space="preserve" font-family="Helvetica-Light" font-size="30.3" fill="#EAEAEA" transform="matrix(1.00, 0.00, -0.00, -1.00, 516.1, 404.0)">t</text><text xml:space="preserve" font-family="Helvetica-Light" font-size="30.3" fill="#EAEAEA" transform="matrix(1.00, 0.00, -0.00, -1.00, 524.6, 404.0)">e</text><text xml:space="preserve" font-family="Helvetica-Light" font-size="30.3" fill="#EAEAEA" transform="matrix(1.00, 0.00, -0.00, -1.00, 541.4, 404.0)">r</text><text xml:space="preserve" font-family="Helvetica-Light" font-size="30.3" fill="#EAEAEA" transform="matrix(1.00, 0.00, -0.00, -1.00, 551.5, 404.0)">s</text><text xml:space="preserve" font-family="Helvetica-Light" font-size="30.3" fill="#EAEAEA" transform="matrix(1.00, 0.00, -0.00, -1.00, 566.6, 404.0)"> </text><text xml:space="preserve" font-family="Helvetica-Light" font-size="30.3" fill="#EAEAEA" transform="matrix(1.00, 0.00, -0.00, -1.00, 575.0, 404.0)">i</text><text xml:space="preserve" font-family="Helvetica-Light" font-size="30.3" fill="#EAEAEA" transform="matrix(1.00, 0.00, -0.00, -1.00, 581.7, 404.0)">s</text><text xml:space="preserve" font-family="Helvetica-Light" font-size="30.3" fill="#EAEAEA" transform="matrix(1.00, 0.00, -0.00, -1.00, 596.9, 404.0)"> </text><text xml:space="preserve" font-family="Helvetica-Light" font-size="30.3" fill="#EAEAEA" transform="matrix(1.00, 0.00, -0.00, -1.00, 605.3, 404.0)">m</text><text xml:space="preserve" font-family="Helvetica-Light" font-size="30.3" fill="#EAEAEA" transform="matrix(1.00, 0.00, -0.00, -1.00, 630.5, 404.0)">a</text><text xml:space="preserve" font-family="Helvetica-Light" font-size="30.3" fill="#EAEAEA" transform="matrix(1.00, 0.00, -0.00, -1.00, 647.3, 404.0)">n</text><text xml:space="preserve" font-family="Helvetica-Light" font-size="30.3" fill="#EAEAEA" transform="matrix(1.00, 0.00, -0.00, -1.00, 664.1, 404.0)">a</text><text xml:space="preserve" font-family="Helvetica-Light" font-size="30.3" fill="#EAEAEA" transform="matrix(1.00, 0.00, -0.00, -1.00, 680.9, 404.0)">g</text><text xml:space="preserve" font-family="Helvetica-Light" font-size="30.3" fill="#EAEAEA" transform="matrix(1.00, 0.00, -0.00, -1.00, 699.4, 404.0)">e</text><text xml:space="preserve" font-family="Helvetica-Light" font-size="30.3" fill="#EAEAEA" transform="matrix(1.00, 0.00, -0.00, -1.00, 716.3, 404.0)">d</text><text xml:space="preserve" font-family="Helvetica-Light" font-size="30.3" fill="#EAEAEA" transform="matrix(1.00, 0.00, -0.00, -1.00, 734.7, 404.0)"> </text><text xml:space="preserve" font-family="Helvetica-Light" font-size="30.3" fill="#EAEAEA" transform="matrix(1.00, 0.00, -0.00, -1.00, 743.2, 404.0)">b</text><text xml:space="preserve" font-family="Helvetica-Light" font-size="30.3" fill="#EAEAEA" transform="matrix(1.00, 0.00, -0.00, -1.00, 761.6, 404.0)">y</text><text xml:space="preserve" font-family="Helvetica-Light" font-size="30.3" fill="#EAEAEA" transform="matrix(1.00, 0.00, -0.00, -1.00, 776.8, 404.0)"> </text><text xml:space="preserve" font-family="Helvetica-Light" font-size="30.3" fill="#EAEAEA" transform="matrix(1.00, 0.00, -0.00, -1.00, 785.2, 404.0)">a</text><text xml:space="preserve" font-family="Helvetica-Light" font-size="30.3" fill="#EAEAEA" transform="matrix(1.00, 0.00, -0.00, -1.00, 802.0, 404.0)">n</text><text xml:space="preserve" font-family="Helvetica-Light" font-size="30.3" fill="#EAEAEA" transform="matrix(1.00, 0.00, -0.00, -1.00, 818.8, 404.0)"> </text><text xml:space="preserve" font-family="Helvetica-Light" font-size="30.3" fill="#EAEAEA" transform="matrix(1.00, 0.00, -0.00, -1.00, 827.2, 404.0)">e</text><text xml:space="preserve" font-family="Helvetica-Light" font-size="30.3" fill="#EAEAEA" transform="matrix(1.00, 0.00, -0.00, -1.00, 844.1, 404.0)">l</text><text xml:space="preserve" font-family="Helvetica-Light" font-size="30.3" fill="#EAEAEA" transform="matrix(1.00, 0.00, -0.00, -1.00, 850.8, 404.0)">l</text><text xml:space="preserve" font-family="Helvetica-Light" font-size="30.3" fill="#EAEAEA" transform="matrix(1.00, 0.00, -0.00, -1.00, 857.5, 404.0)">i</text><text xml:space="preserve" font-family="Helvetica-Light" font-size="30.3" fill="#EAEAEA" transform="matrix(1.00, 0.00, -0.00, -1.00, 864.2, 404.0)">p</text><text xml:space="preserve" font-family="Helvetica-Light" font-size="30.3" fill="#EAEAEA" transform="matrix(1.00, 0.00, -0.00, -1.00, 882.7, 404.0)">s</text><text xml:space="preserve" font-family="Helvetica-Light" font-size="30.3" fill="#EAEAEA" transform="matrix(1.00, 0.00, -0.00, -1.00, 897.8, 404.0)">i</text><text xml:space="preserve" font-family="Helvetica-Light" font-size="30.3" fill="#EAEAEA" transform="matrix(1.00, 0.00, -0.00, -1.00, 904.6, 404.0)">s</text><text xml:space="preserve" font-family="Helvetica-Light" font-size="30.3" fill="#EAEAEA" transform="matrix(1.00, 0.00, -0.00, -1.00, 919.7, 404.0)"> </text><image xlink:href="AA0D85F023C9A85E6E332A0915860E5E.png" width="844.00" height="43.00" transform="matrix(1.00, 0.00, -0.00, -1.00, 107.0, 394.0)"></image><text xml:space="preserve" font-family="Helvetica-Light" font-size="30.3" fill="#EAEAEA" transform="matrix(1.00, 0.00, -0.00, -1.00, 108.0, 368.0)">i</text><text xml:space="preserve" font-family="Helvetica-Light" font-size="30.3" fill="#EAEAEA" transform="matrix(1.00, 0.00, -0.00, -1.00, 114.7, 368.0)">n</text><text xml:space="preserve" font-family="Helvetica-Light" font-size="30.3" fill="#EAEAEA" transform="matrix(1.00, 0.00, -0.00, -1.00, 131.5, 368.0)"> </text><text xml:space="preserve" font-family="Helvetica-Light" font-size="30.3" fill="#EAEAEA" transform="matrix(1.00, 0.00, -0.00, -1.00, 140.0, 368.0)">t</text><text xml:space="preserve" font-family="Helvetica-Light" font-size="30.3" fill="#EAEAEA" transform="matrix(1.00, 0.00, -0.00, -1.00, 148.4, 368.0)">h</text><text xml:space="preserve" font-family="Helvetica-Light" font-size="30.3" fill="#EAEAEA" transform="matrix(1.00, 0.00, -0.00, -1.00, 165.2, 368.0)">e</text><text xml:space="preserve" font-family="Helvetica-Light" font-size="30.3" fill="#EAEAEA" transform="matrix(1.00, 0.00, -0.00, -1.00, 182.0, 368.0)"> </text><text xml:space="preserve" font-family="Helvetica-Light" font-size="30.3" fill="#EAEAEA" transform="matrix(1.00, 0.00, -0.00, -1.00, 190.4, 368.0)">r</text><text xml:space="preserve" font-family="Helvetica-Light" font-size="30.3" fill="#EAEAEA" transform="matrix(1.00, 0.00, -0.00, -1.00, 200.0, 368.0)">o</text><text xml:space="preserve" font-family="Helvetica-Light" font-size="30.3" fill="#EAEAEA" transform="matrix(1.00, 0.00, -0.00, -1.00, 216.8, 368.0)">u</text><text xml:space="preserve" font-family="Helvetica-Light" font-size="30.3" fill="#EAEAEA" transform="matrix(1.00, 0.00, -0.00, -1.00, 233.6, 368.0)">t</text><text xml:space="preserve" font-family="Helvetica-Light" font-size="30.3" fill="#EAEAEA" transform="matrix(1.00, 0.00, -0.00, -1.00, 242.0, 368.0)">e</text><text xml:space="preserve" font-family="Helvetica-Light" font-size="30.3" fill="#EAEAEA" transform="matrix(1.00, 0.00, -0.00, -1.00, 258.8, 368.0)">.</text><text xml:space="preserve" font-family="Helvetica-Light" font-size="30.3" fill="#EAEAEA" transform="matrix(1.00, 0.00, -0.00, -1.00, 267.3, 368.0)"> </text><text xml:space="preserve" font-family="Helvetica-Light" font-size="30.3" fill="#EAEAEA" transform="matrix(1.00, 0.00, -0.00, -1.00, 275.7, 368.0)">T</text><text xml:space="preserve" font-family="Helvetica-Light" font-size="30.3" fill="#EAEAEA" transform="matrix(1.00, 0.00, -0.00, -1.00, 292.5, 368.0)">h</text><text xml:space="preserve" font-family="Helvetica-Light" font-size="30.3" fill="#EAEAEA" transform="matrix(1.00, 0.00, -0.00, -1.00, 309.3, 368.0)">e</text><text xml:space="preserve" font-family="Helvetica-Light" font-size="30.3" fill="#EAEAEA" transform="matrix(1.00, 0.00, -0.00, -1.00, 326.1, 368.0)"> </text><text xml:space="preserve" font-family="Helvetica-Light" font-size="30.3" fill="#EAEAEA" transform="matrix(1.00, 0.00, -0.00, -1.00, 334.6, 368.0)">t</text><text xml:space="preserve" font-family="Helvetica-Light" font-size="30.3" fill="#EAEAEA" transform="matrix(1.00, 0.00, -0.00, -1.00, 343.0, 368.0)">a</text><text xml:space="preserve" font-family="Helvetica-Light" font-size="30.3" fill="#EAEAEA" transform="matrix(1.00, 0.00, -0.00, -1.00, 359.8, 368.0)">r</text><text xml:space="preserve" font-family="Helvetica-Light" font-size="30.3" fill="#EAEAEA" transform="matrix(1.00, 0.00, -0.00, -1.00, 369.9, 368.0)">g</text><text xml:space="preserve" font-family="Helvetica-Light" font-size="30.3" fill="#EAEAEA" transform="matrix(1.00, 0.00, -0.00, -1.00, 388.4, 368.0)">e</text><text xml:space="preserve" font-family="Helvetica-Light" font-size="30.3" fill="#EAEAEA" transform="matrix(1.00, 0.00, -0.00, -1.00, 405.2, 368.0)">t</text><text xml:space="preserve" font-family="Helvetica-Light" font-size="30.3" fill="#EAEAEA" transform="matrix(1.00, 0.00, -0.00, -1.00, 413.6, 368.0)"> </text><text xml:space="preserve" font-family="Helvetica-Light" font-size="30.3" fill="#EAEAEA" transform="matrix(1.00, 0.00, -0.00, -1.00, 422.0, 368.0)">c</text><text xml:space="preserve" font-family="Helvetica-Light" font-size="30.3" fill="#EAEAEA" transform="matrix(1.00, 0.00, -0.00, -1.00, 438.8, 368.0)">o</text><text xml:space="preserve" font-family="Helvetica-Light" font-size="30.3" fill="#EAEAEA" transform="matrix(1.00, 0.00, -0.00, -1.00, 455.7, 368.0)">m</text><text xml:space="preserve" font-family="Helvetica-Light" font-size="30.3" fill="#EAEAEA" transform="matrix(1.00, 0.00, -0.00, -1.00, 480.9, 368.0)">p</text><text xml:space="preserve" font-family="Helvetica-Light" font-size="30.3" fill="#EAEAEA" transform="matrix(1.00, 0.00, -0.00, -1.00, 499.4, 368.0)">o</text><text xml:space="preserve" font-family="Helvetica-Light" font-size="30.3" fill="#EAEAEA" transform="matrix(1.00, 0.00, -0.00, -1.00, 516.2, 368.0)">n</text><text xml:space="preserve" font-family="Helvetica-Light" font-size="30.3" fill="#EAEAEA" transform="matrix(1.00, 0.00, -0.00, -1.00, 533.0, 368.0)">e</text><text xml:space="preserve" font-family="Helvetica-Light" font-size="30.3" fill="#EAEAEA" transform="matrix(1.00, 0.00, -0.00, -1.00, 549.8, 368.0)">n</text><text xml:space="preserve" font-family="Helvetica-Light" font-size="30.3" fill="#EAEAEA" transform="matrix(1.00, 0.00, -0.00, -1.00, 566.7, 368.0)">t</text><text xml:space="preserve" font-family="Helvetica-Light" font-size="30.3" fill="#EAEAEA" transform="matrix(1.00, 0.00, -0.00, -1.00, 575.1, 368.0)"> </text><text xml:space="preserve" font-family="Helvetica-Light" font-size="30.3" fill="#EAEAEA" transform="matrix(1.00, 0.00, -0.00, -1.00, 583.5, 368.0)">w</text><text xml:space="preserve" font-family="Helvetica-Light" font-size="30.3" fill="#EAEAEA" transform="matrix(1.00, 0.00, -0.00, -1.00, 605.3, 368.0)">i</text><text xml:space="preserve" font-family="Helvetica-Light" font-size="30.3" fill="#EAEAEA" transform="matrix(1.00, 0.00, -0.00, -1.00, 612.0, 368.0)">l</text><text xml:space="preserve" font-family="Helvetica-Light" font-size="30.3" fill="#EAEAEA" transform="matrix(1.00, 0.00, -0.00, -1.00, 618.8, 368.0)">l</text><text xml:space="preserve" font-family="Helvetica-Light" font-size="30.3" fill="#EAEAEA" transform="matrix(1.00, 0.00, -0.00, -1.00, 625.5, 368.0)"> </text><text xml:space="preserve" font-family="Helvetica-Light" font-size="30.3" fill="#EAEAEA" transform="matrix(1.00, 0.00, -0.00, -1.00, 633.9, 368.0)">c</text><text xml:space="preserve" font-family="Helvetica-Light" font-size="30.3" fill="#EAEAEA" transform="matrix(1.00, 0.00, -0.00, -1.00, 650.7, 368.0)">o</text><text xml:space="preserve" font-family="Helvetica-Light" font-size="30.3" fill="#EAEAEA" transform="matrix(1.00, 0.00, -0.00, -1.00, 667.5, 368.0)">n</text><text xml:space="preserve" font-family="Helvetica-Light" font-size="30.3" fill="#EAEAEA" transform="matrix(1.00, 0.00, -0.00, -1.00, 684.4, 368.0)">t</text><text xml:space="preserve" font-family="Helvetica-Light" font-size="30.3" fill="#EAEAEA" transform="matrix(1.00, 0.00, -0.00, -1.00, 692.8, 368.0)">a</text><text xml:space="preserve" font-family="Helvetica-Light" font-size="30.3" fill="#EAEAEA" transform="matrix(1.00, 0.00, -0.00, -1.00, 709.6, 368.0)">i</text><text xml:space="preserve" font-family="Helvetica-Light" font-size="30.3" fill="#EAEAEA" transform="matrix(1.00, 0.00, -0.00, -1.00, 716.3, 368.0)">n</text><text xml:space="preserve" font-family="Helvetica-Light" font-size="30.3" fill="#EAEAEA" transform="matrix(1.00, 0.00, -0.00, -1.00, 733.1, 368.0)"> </text><text xml:space="preserve" font-family="Helvetica-Light" font-size="30.3" fill="#EAEAEA" transform="matrix(1.00, 0.00, -0.00, -1.00, 741.6, 368.0)">t</text><text xml:space="preserve" font-family="Helvetica-Light" font-size="30.3" fill="#EAEAEA" transform="matrix(1.00, 0.00, -0.00, -1.00, 750.0, 368.0)">h</text><text xml:space="preserve" font-family="Helvetica-Light" font-size="30.3" fill="#EAEAEA" transform="matrix(1.00, 0.00, -0.00, -1.00, 766.8, 368.0)">e</text><text xml:space="preserve" font-family="Helvetica-Light" font-size="30.3" fill="#EAEAEA" transform="matrix(1.00, 0.00, -0.00, -1.00, 783.6, 368.0)"> </text><text xml:space="preserve" font-family="Helvetica-Light" font-size="30.3" fill="#EAEAEA" transform="matrix(1.00, 0.00, -0.00, -1.00, 792.0, 368.0)">c</text><text xml:space="preserve" font-family="Helvetica-Light" font-size="30.3" fill="#EAEAEA" transform="matrix(1.00, 0.00, -0.00, -1.00, 808.9, 368.0)">h</text><text xml:space="preserve" font-family="Helvetica-Light" font-size="30.3" fill="#EAEAEA" transform="matrix(1.00, 0.00, -0.00, -1.00, 825.7, 368.0)">i</text><text xml:space="preserve" font-family="Helvetica-Light" font-size="30.3" fill="#EAEAEA" transform="matrix(1.00, 0.00, -0.00, -1.00, 832.4, 368.0)">l</text><text xml:space="preserve" font-family="Helvetica-Light" font-size="30.3" fill="#EAEAEA" transform="matrix(1.00, 0.00, -0.00, -1.00, 839.1, 368.0)">d</text><text xml:space="preserve" font-family="Helvetica-Light" font-size="30.3" fill="#EAEAEA" transform="matrix(1.00, 0.00, -0.00, -1.00, 857.6, 368.0)"> </text><text xml:space="preserve" font-family="Helvetica-Light" font-size="30.3" fill="#EAEAEA" transform="matrix(1.00, 0.00, -0.00, -1.00, 866.0, 368.0)">r</text><text xml:space="preserve" font-family="Helvetica-Light" font-size="30.3" fill="#EAEAEA" transform="matrix(1.00, 0.00, -0.00, -1.00, 875.5, 368.0)">o</text><text xml:space="preserve" font-family="Helvetica-Light" font-size="30.3" fill="#EAEAEA" transform="matrix(1.00, 0.00, -0.00, -1.00, 892.4, 368.0)">u</text><text xml:space="preserve" font-family="Helvetica-Light" font-size="30.3" fill="#EAEAEA" transform="matrix(1.00, 0.00, -0.00, -1.00, 909.2, 368.0)">t</text><text xml:space="preserve" font-family="Helvetica-Light" font-size="30.3" fill="#EAEAEA" transform="matrix(1.00, 0.00, -0.00, -1.00, 917.6, 368.0)">e</text><text xml:space="preserve" font-family="Helvetica-Light" font-size="30.3" fill="#EAEAEA" transform="matrix(1.00, 0.00, -0.00, -1.00, 934.4, 368.0)">.</text><image xlink:href="C0F4CA7BA74479F982A52120A3524B8D.png" width="660.00" height="227.00" transform="matrix(1.23, 0.00, -0.00, -1.23, 107.0, 345.0)"></image></g></svg>