<?xml version="1.0" encoding="UTF-8" standalone="no"?><svg xmlns="http://www.w3.org/2000/svg" xmlns:xlink="http://www.w3.org/1999/xlink" clip-rule="evenodd" stroke-miterlimit="4.00" viewBox="0 0 1024 768"><desc>SVG generated by Keynote</desc><defs></defs><g transform="matrix(1.00, 0.00, -0.00, -1.00, 0.0, 768.0)"><g><clipPath id="clip-29"><path d="M 0.0 768.0 L 1024.0 768.0 L 1024.0 0.0 L 0.0 0.0 Z M 0.0 768.0 "></path></clipPath><g clip-path="url(#clip-29)"><image xlink:href="../../06DBE9C8-52A0-453A-A7BF-EBF58CF01F35/assets/E7ABA782A15EA3475B4CFCC80A2FEB63.jpeg" width="1024.00" height="768.00" transform="matrix(1.00, 0.00, -0.00, -1.00, 0.0, 768.0)"></image></g></g><image xlink:href="../../80A0614F-B93C-4937-9167-E6D138EAFF82/assets/0D7E4C4B4F7B248226C90C47AB85CFB5.png" width="552.00" height="89.00" transform="matrix(1.00, 0.00, -0.00, -1.00, 241.0, 684.0)"></image><text xml:space="preserve" font-family="Helvetica-Light" font-size="80.0" fill="#FEFFFF" transform="matrix(1.00, 0.00, -0.00, -1.00, 236.0, 622.0)">I</text><text xml:space="preserve" font-family="Helvetica-Light" font-size="80.0" fill="#FEFFFF" transform="matrix(1.00, 0.00, -0.00, -1.00, 258.2, 622.0)">n</text><text xml:space="preserve" font-family="Helvetica-Light" font-size="80.0" fill="#FEFFFF" transform="matrix(1.00, 0.00, -0.00, -1.00, 302.7, 622.0)">p</text><text xml:space="preserve" font-family="Helvetica-Light" font-size="80.0" fill="#FEFFFF" transform="matrix(1.00, 0.00, -0.00, -1.00, 351.6, 622.0)">u</text><text xml:space="preserve" font-family="Helvetica-Light" font-size="80.0" fill="#FEFFFF" transform="matrix(1.00, 0.00, -0.00, -1.00, 396.1, 622.0)">t</text><text xml:space="preserve" font-family="Helvetica-Light" font-size="80.0" fill="#FEFFFF" transform="matrix(1.00, 0.00, -0.00, -1.00, 418.3, 622.0)"> </text><text xml:space="preserve" font-family="Helvetica-Light" font-size="80.0" fill="#FEFFFF" transform="matrix(1.00, 0.00, -0.00, -1.00, 440.6, 622.0)">V</text><text xml:space="preserve" font-family="Helvetica-Light" font-size="80.0" fill="#FEFFFF" transform="matrix(1.00, 0.00, -0.00, -1.00, 485.0, 622.0)">a</text><text xml:space="preserve" font-family="Helvetica-Light" font-size="80.0" fill="#FEFFFF" transform="matrix(1.00, 0.00, -0.00, -1.00, 529.5, 622.0)">l</text><text xml:space="preserve" font-family="Helvetica-Light" font-size="80.0" fill="#FEFFFF" transform="matrix(1.00, 0.00, -0.00, -1.00, 547.3, 622.0)">i</text><text xml:space="preserve" font-family="Helvetica-Light" font-size="80.0" fill="#FEFFFF" transform="matrix(1.00, 0.00, -0.00, -1.00, 565.0, 622.0)">d</text><text xml:space="preserve" font-family="Helvetica-Light" font-size="80.0" fill="#FEFFFF" transform="matrix(1.00, 0.00, -0.00, -1.00, 613.9, 622.0)">a</text><text xml:space="preserve" font-family="Helvetica-Light" font-size="80.0" fill="#FEFFFF" transform="matrix(1.00, 0.00, -0.00, -1.00, 658.4, 622.0)">t</text><text xml:space="preserve" font-family="Helvetica-Light" font-size="80.0" fill="#FEFFFF" transform="matrix(1.00, 0.00, -0.00, -1.00, 680.6, 622.0)">i</text><text xml:space="preserve" font-family="Helvetica-Light" font-size="80.0" fill="#FEFFFF" transform="matrix(1.00, 0.00, -0.00, -1.00, 698.4, 622.0)">o</text><text xml:space="preserve" font-family="Helvetica-Light" font-size="80.0" fill="#FEFFFF" transform="matrix(1.00, 0.00, -0.00, -1.00, 742.9, 622.0)">n</text><image xlink:href="../../80A0614F-B93C-4937-9167-E6D138EAFF82/assets/5338ADED4FCBFE03458E7DF5ECE5E498.png" width="24.00" height="24.00" transform="matrix(1.00, 0.00, -0.00, -1.00, 77.0, 300.0)"></image><text xml:space="preserve" font-family="Helvetica-Light" font-size="25.5" fill="#EAEAEA" transform="matrix(1.00, 0.00, -0.00, -1.00, 79.0, 281.7)">•</text><image xlink:href="../../80A0614F-B93C-4937-9167-E6D138EAFF82/assets/DA6A8BE0E6ABE02F3C801E941F1E6533.png" width="434.00" height="47.00" transform="matrix(1.00, 0.00, -0.00, -1.00, 109.0, 309.0)"></image><text xml:space="preserve" font-family="Helvetica-Light" font-size="34.0" fill="#EAEAEA" transform="matrix(1.00, 0.00, -0.00, -1.00, 111.0, 279.0)">S</text><text xml:space="preserve" font-family="Helvetica-Light" font-size="34.0" fill="#EAEAEA" transform="matrix(1.00, 0.00, -0.00, -1.00, 131.8, 279.0)">i</text><text xml:space="preserve" font-family="Helvetica-Light" font-size="34.0" fill="#EAEAEA" transform="matrix(1.00, 0.00, -0.00, -1.00, 139.3, 279.0)">m</text><text xml:space="preserve" font-family="Helvetica-Light" font-size="34.0" fill="#EAEAEA" transform="matrix(1.00, 0.00, -0.00, -1.00, 167.6, 279.0)">i</text><text xml:space="preserve" font-family="Helvetica-Light" font-size="34.0" fill="#EAEAEA" transform="matrix(1.00, 0.00, -0.00, -1.00, 175.2, 279.0)">l</text><text xml:space="preserve" font-family="Helvetica-Light" font-size="34.0" fill="#EAEAEA" transform="matrix(1.00, 0.00, -0.00, -1.00, 182.7, 279.0)">a</text><text xml:space="preserve" font-family="Helvetica-Light" font-size="34.0" fill="#EAEAEA" transform="matrix(1.00, 0.00, -0.00, -1.00, 201.6, 279.0)">r</text><text xml:space="preserve" font-family="Helvetica-Light" font-size="34.0" fill="#EAEAEA" transform="matrix(1.00, 0.00, -0.00, -1.00, 213.0, 279.0)"> </text><text xml:space="preserve" font-family="Helvetica-Light" font-size="34.0" fill="#EAEAEA" transform="matrix(1.00, 0.00, -0.00, -1.00, 222.4, 279.0)">t</text><text xml:space="preserve" font-family="Helvetica-Light" font-size="34.0" fill="#EAEAEA" transform="matrix(1.00, 0.00, -0.00, -1.00, 231.9, 279.0)">o</text><text xml:space="preserve" font-family="Helvetica-Light" font-size="34.0" fill="#EAEAEA" transform="matrix(1.00, 0.00, -0.00, -1.00, 250.8, 279.0)"> </text><text xml:space="preserve" font-family="Helvetica-Light" font-size="34.0" fill="#EAEAEA" transform="matrix(1.00, 0.00, -0.00, -1.00, 260.2, 279.0)">p</text><text xml:space="preserve" font-family="Helvetica-Light" font-size="34.0" fill="#EAEAEA" transform="matrix(1.00, 0.00, -0.00, -1.00, 281.0, 279.0)">r</text><text xml:space="preserve" font-family="Helvetica-Light" font-size="34.0" fill="#EAEAEA" transform="matrix(1.00, 0.00, -0.00, -1.00, 291.7, 279.0)">e</text><text xml:space="preserve" font-family="Helvetica-Light" font-size="34.0" fill="#EAEAEA" transform="matrix(1.00, 0.00, -0.00, -1.00, 310.6, 279.0)">v</text><text xml:space="preserve" font-family="Helvetica-Light" font-size="34.0" fill="#EAEAEA" transform="matrix(1.00, 0.00, -0.00, -1.00, 327.6, 279.0)">i</text><text xml:space="preserve" font-family="Helvetica-Light" font-size="34.0" fill="#EAEAEA" transform="matrix(1.00, 0.00, -0.00, -1.00, 335.2, 279.0)">o</text><text xml:space="preserve" font-family="Helvetica-Light" font-size="34.0" fill="#EAEAEA" transform="matrix(1.00, 0.00, -0.00, -1.00, 354.1, 279.0)">u</text><text xml:space="preserve" font-family="Helvetica-Light" font-size="34.0" fill="#EAEAEA" transform="matrix(1.00, 0.00, -0.00, -1.00, 373.0, 279.0)">s</text><text xml:space="preserve" font-family="Helvetica-Light" font-size="34.0" fill="#EAEAEA" transform="matrix(1.00, 0.00, -0.00, -1.00, 390.0, 279.0)"> </text><text xml:space="preserve" font-family="Helvetica-Light" font-size="34.0" fill="#EAEAEA" transform="matrix(1.00, 0.00, -0.00, -1.00, 399.4, 279.0)">p</text><text xml:space="preserve" font-family="Helvetica-Light" font-size="34.0" fill="#EAEAEA" transform="matrix(1.00, 0.00, -0.00, -1.00, 420.2, 279.0)">r</text><text xml:space="preserve" font-family="Helvetica-Light" font-size="34.0" fill="#EAEAEA" transform="matrix(1.00, 0.00, -0.00, -1.00, 430.9, 279.0)">o</text><text xml:space="preserve" font-family="Helvetica-Light" font-size="34.0" fill="#EAEAEA" transform="matrix(1.00, 0.00, -0.00, -1.00, 449.8, 279.0)">b</text><text xml:space="preserve" font-family="Helvetica-Light" font-size="34.0" fill="#EAEAEA" transform="matrix(1.00, 0.00, -0.00, -1.00, 470.6, 279.0)">l</text><text xml:space="preserve" font-family="Helvetica-Light" font-size="34.0" fill="#EAEAEA" transform="matrix(1.00, 0.00, -0.00, -1.00, 478.1, 279.0)">e</text><text xml:space="preserve" font-family="Helvetica-Light" font-size="34.0" fill="#EAEAEA" transform="matrix(1.00, 0.00, -0.00, -1.00, 497.0, 279.0)">m</text><text xml:space="preserve" font-family="Helvetica-Light" font-size="34.0" fill="#EAEAEA" transform="matrix(1.00, 0.00, -0.00, -1.00, 525.4, 279.0)">.</text><text xml:space="preserve" font-family="Helvetica-Light" font-size="34.0" fill="#EAEAEA" transform="matrix(1.00, 0.00, -0.00, -1.00, 534.8, 279.0)"> </text><image xlink:href="../../80A0614F-B93C-4937-9167-E6D138EAFF82/assets/5338ADED4FCBFE03458E7DF5ECE5E498.png" width="24.00" height="24.00" transform="matrix(1.00, 0.00, -0.00, -1.00, 77.0, 217.0)"></image><text xml:space="preserve" font-family="Helvetica-Light" font-size="25.5" fill="#EAEAEA" transform="matrix(1.00, 0.00, -0.00, -1.00, 79.0, 198.7)">•</text><image xlink:href="../../80A0614F-B93C-4937-9167-E6D138EAFF82/assets/FACBFF2DE774672C7DA2C8C4AF32C467.png" width="656.00" height="44.00" transform="matrix(1.00, 0.00, -0.00, -1.00, 108.0, 226.0)"></image><text xml:space="preserve" font-family="Helvetica-Light" font-size="34.0" fill="#EAEAEA" transform="matrix(1.00, 0.00, -0.00, -1.00, 111.0, 196.0)">J</text><text xml:space="preserve" font-family="Helvetica-Light" font-size="34.0" fill="#EAEAEA" transform="matrix(1.00, 0.00, -0.00, -1.00, 128.0, 196.0)">S</text><text xml:space="preserve" font-family="Helvetica-Light" font-size="34.0" fill="#EAEAEA" transform="matrix(1.00, 0.00, -0.00, -1.00, 148.8, 196.0)">O</text><text xml:space="preserve" font-family="Helvetica-Light" font-size="34.0" fill="#EAEAEA" transform="matrix(1.00, 0.00, -0.00, -1.00, 175.2, 196.0)">N</text><text xml:space="preserve" font-family="Helvetica-Light" font-size="34.0" fill="#EAEAEA" transform="matrix(1.00, 0.00, -0.00, -1.00, 199.8, 196.0)">/</text><text xml:space="preserve" font-family="Helvetica-Light" font-size="34.0" fill="#EAEAEA" transform="matrix(1.00, 0.00, -0.00, -1.00, 209.2, 196.0)">X</text><text xml:space="preserve" font-family="Helvetica-Light" font-size="34.0" fill="#EAEAEA" transform="matrix(1.00, 0.00, -0.00, -1.00, 230.0, 196.0)">M</text><text xml:space="preserve" font-family="Helvetica-Light" font-size="34.0" fill="#EAEAEA" transform="matrix(1.00, 0.00, -0.00, -1.00, 258.3, 196.0)">L</text><text xml:space="preserve" font-family="Helvetica-Light" font-size="34.0" fill="#EAEAEA" transform="matrix(1.00, 0.00, -0.00, -1.00, 277.2, 196.0)"> </text><text xml:space="preserve" font-family="Helvetica-Light" font-size="34.0" fill="#EAEAEA" transform="matrix(1.00, 0.00, -0.00, -1.00, 286.7, 196.0)">S</text><text xml:space="preserve" font-family="Helvetica-Light" font-size="34.0" fill="#EAEAEA" transform="matrix(1.00, 0.00, -0.00, -1.00, 307.5, 196.0)">c</text><text xml:space="preserve" font-family="Helvetica-Light" font-size="34.0" fill="#EAEAEA" transform="matrix(1.00, 0.00, -0.00, -1.00, 326.4, 196.0)">h</text><text xml:space="preserve" font-family="Helvetica-Light" font-size="34.0" fill="#EAEAEA" transform="matrix(1.00, 0.00, -0.00, -1.00, 345.3, 196.0)">e</text><text xml:space="preserve" font-family="Helvetica-Light" font-size="34.0" fill="#EAEAEA" transform="matrix(1.00, 0.00, -0.00, -1.00, 364.2, 196.0)">m</text><text xml:space="preserve" font-family="Helvetica-Light" font-size="34.0" fill="#EAEAEA" transform="matrix(1.00, 0.00, -0.00, -1.00, 392.5, 196.0)">a</text><text xml:space="preserve" font-family="Helvetica-Light" font-size="34.0" fill="#EAEAEA" transform="matrix(1.00, 0.00, -0.00, -1.00, 411.4, 196.0)">s</text><text xml:space="preserve" font-family="Helvetica-Light" font-size="34.0" fill="#EAEAEA" transform="matrix(1.00, 0.00, -0.00, -1.00, 428.4, 196.0)"> </text><text xml:space="preserve" font-family="Helvetica-Light" font-size="34.0" fill="#EAEAEA" transform="matrix(1.00, 0.00, -0.00, -1.00, 437.8, 196.0)">a</text><text xml:space="preserve" font-family="Helvetica-Light" font-size="34.0" fill="#EAEAEA" transform="matrix(1.00, 0.00, -0.00, -1.00, 456.7, 196.0)">r</text><text xml:space="preserve" font-family="Helvetica-Light" font-size="34.0" fill="#EAEAEA" transform="matrix(1.00, 0.00, -0.00, -1.00, 467.5, 196.0)">e</text><text xml:space="preserve" font-family="Helvetica-Light" font-size="34.0" fill="#EAEAEA" transform="matrix(1.00, 0.00, -0.00, -1.00, 486.4, 196.0)"> </text><text xml:space="preserve" font-family="Helvetica-Light" font-size="34.0" fill="#EAEAEA" transform="matrix(1.00, 0.00, -0.00, -1.00, 495.8, 196.0)">t</text><text xml:space="preserve" font-family="Helvetica-Light" font-size="34.0" fill="#EAEAEA" transform="matrix(1.00, 0.00, -0.00, -1.00, 505.3, 196.0)">h</text><text xml:space="preserve" font-family="Helvetica-Light" font-size="34.0" fill="#EAEAEA" transform="matrix(1.00, 0.00, -0.00, -1.00, 524.2, 196.0)">e</text><text xml:space="preserve" font-family="Helvetica-Light" font-size="34.0" fill="#EAEAEA" transform="matrix(1.00, 0.00, -0.00, -1.00, 543.1, 196.0)"> </text><text xml:space="preserve" font-family="Helvetica-Light" font-size="34.0" fill="#EAEAEA" transform="matrix(1.00, 0.00, -0.00, -1.00, 552.5, 196.0)">s</text><text xml:space="preserve" font-family="Helvetica-Light" font-size="34.0" fill="#EAEAEA" transform="matrix(1.00, 0.00, -0.00, -1.00, 569.5, 196.0)">o</text><text xml:space="preserve" font-family="Helvetica-Light" font-size="34.0" fill="#EAEAEA" transform="matrix(1.00, 0.00, -0.00, -1.00, 588.4, 196.0)">l</text><text xml:space="preserve" font-family="Helvetica-Light" font-size="34.0" fill="#EAEAEA" transform="matrix(1.00, 0.00, -0.00, -1.00, 596.0, 196.0)">u</text><text xml:space="preserve" font-family="Helvetica-Light" font-size="34.0" fill="#EAEAEA" transform="matrix(1.00, 0.00, -0.00, -1.00, 614.9, 196.0)">t</text><text xml:space="preserve" font-family="Helvetica-Light" font-size="34.0" fill="#EAEAEA" transform="matrix(1.00, 0.00, -0.00, -1.00, 624.3, 196.0)">i</text><text xml:space="preserve" font-family="Helvetica-Light" font-size="34.0" fill="#EAEAEA" transform="matrix(1.00, 0.00, -0.00, -1.00, 631.9, 196.0)">o</text><text xml:space="preserve" font-family="Helvetica-Light" font-size="34.0" fill="#EAEAEA" transform="matrix(1.00, 0.00, -0.00, -1.00, 650.8, 196.0)">n</text><text xml:space="preserve" font-family="Helvetica-Light" font-size="34.0" fill="#EAEAEA" transform="matrix(1.00, 0.00, -0.00, -1.00, 669.7, 196.0)"> </text><text xml:space="preserve" font-family="Helvetica-Light" font-size="34.0" fill="#EAEAEA" transform="matrix(1.00, 0.00, -0.00, -1.00, 679.1, 196.0)">h</text><text xml:space="preserve" font-family="Helvetica-Light" font-size="34.0" fill="#EAEAEA" transform="matrix(1.00, 0.00, -0.00, -1.00, 698.0, 196.0)">e</text><text xml:space="preserve" font-family="Helvetica-Light" font-size="34.0" fill="#EAEAEA" transform="matrix(1.00, 0.00, -0.00, -1.00, 716.9, 196.0)">r</text><text xml:space="preserve" font-family="Helvetica-Light" font-size="34.0" fill="#EAEAEA" transform="matrix(1.00, 0.00, -0.00, -1.00, 727.7, 196.0)">e</text><text xml:space="preserve" font-family="Helvetica-Light" font-size="34.0" fill="#EAEAEA" transform="matrix(1.00, 0.00, -0.00, -1.00, 746.6, 196.0)">.</text><text xml:space="preserve" font-family="Helvetica-Light" font-size="34.0" fill="#EAEAEA" transform="matrix(1.00, 0.00, -0.00, -1.00, 756.0, 196.0)"> </text><image xlink:href="../../80A0614F-B93C-4937-9167-E6D138EAFF82/assets/5338ADED4FCBFE03458E7DF5ECE5E498.png" width="24.00" height="24.00" transform="matrix(1.00, 0.00, -0.00, -1.00, 77.0, 134.0)"></image><text xml:space="preserve" font-family="Helvetica-Light" font-size="25.5" fill="#EAEAEA" transform="matrix(1.00, 0.00, -0.00, -1.00, 79.0, 115.7)">•</text><image xlink:href="../../80A0614F-B93C-4937-9167-E6D138EAFF82/assets/3F9ECD14F385692FEA2D665D280F53A8.png" width="584.00" height="47.00" transform="matrix(1.00, 0.00, -0.00, -1.00, 110.0, 142.0)"></image><text xml:space="preserve" font-family="Helvetica-Light" font-size="34.0" fill="#EAEAEA" transform="matrix(1.00, 0.00, -0.00, -1.00, 111.0, 113.0)">M</text><text xml:space="preserve" font-family="Helvetica-Light" font-size="34.0" fill="#EAEAEA" transform="matrix(1.00, 0.00, -0.00, -1.00, 139.3, 113.0)">a</text><text xml:space="preserve" font-family="Helvetica-Light" font-size="34.0" fill="#EAEAEA" transform="matrix(1.00, 0.00, -0.00, -1.00, 158.2, 113.0)">y</text><text xml:space="preserve" font-family="Helvetica-Light" font-size="34.0" fill="#EAEAEA" transform="matrix(1.00, 0.00, -0.00, -1.00, 175.2, 113.0)"> </text><text xml:space="preserve" font-family="Helvetica-Light" font-size="34.0" fill="#EAEAEA" transform="matrix(1.00, 0.00, -0.00, -1.00, 184.7, 113.0)">b</text><text xml:space="preserve" font-family="Helvetica-Light" font-size="34.0" fill="#EAEAEA" transform="matrix(1.00, 0.00, -0.00, -1.00, 205.5, 113.0)">e</text><text xml:space="preserve" font-family="Helvetica-Light" font-size="34.0" fill="#EAEAEA" transform="matrix(1.00, 0.00, -0.00, -1.00, 224.4, 113.0)"> </text><text xml:space="preserve" font-family="Helvetica-Light" font-size="34.0" fill="#EAEAEA" transform="matrix(1.00, 0.00, -0.00, -1.00, 233.8, 113.0)">r</text><text xml:space="preserve" font-family="Helvetica-Light" font-size="34.0" fill="#EAEAEA" transform="matrix(1.00, 0.00, -0.00, -1.00, 244.5, 113.0)">e</text><text xml:space="preserve" font-family="Helvetica-Light" font-size="34.0" fill="#EAEAEA" transform="matrix(1.00, 0.00, -0.00, -1.00, 263.4, 113.0)">l</text><text xml:space="preserve" font-family="Helvetica-Light" font-size="34.0" fill="#EAEAEA" transform="matrix(1.00, 0.00, -0.00, -1.00, 271.0, 113.0)">a</text><text xml:space="preserve" font-family="Helvetica-Light" font-size="34.0" fill="#EAEAEA" transform="matrix(1.00, 0.00, -0.00, -1.00, 289.9, 113.0)">t</text><text xml:space="preserve" font-family="Helvetica-Light" font-size="34.0" fill="#EAEAEA" transform="matrix(1.00, 0.00, -0.00, -1.00, 299.3, 113.0)">e</text><text xml:space="preserve" font-family="Helvetica-Light" font-size="34.0" fill="#EAEAEA" transform="matrix(1.00, 0.00, -0.00, -1.00, 318.2, 113.0)">d</text><text xml:space="preserve" font-family="Helvetica-Light" font-size="34.0" fill="#EAEAEA" transform="matrix(1.00, 0.00, -0.00, -1.00, 339.0, 113.0)"> </text><text xml:space="preserve" font-family="Helvetica-Light" font-size="34.0" fill="#EAEAEA" transform="matrix(1.00, 0.00, -0.00, -1.00, 348.5, 113.0)">t</text><text xml:space="preserve" font-family="Helvetica-Light" font-size="34.0" fill="#EAEAEA" transform="matrix(1.00, 0.00, -0.00, -1.00, 357.9, 113.0)">o</text><text xml:space="preserve" font-family="Helvetica-Light" font-size="34.0" fill="#EAEAEA" transform="matrix(1.00, 0.00, -0.00, -1.00, 376.8, 113.0)"> </text><text xml:space="preserve" font-family="Helvetica-Light" font-size="34.0" fill="#EAEAEA" transform="matrix(1.00, 0.00, -0.00, -1.00, 386.3, 113.0)">p</text><text xml:space="preserve" font-family="Helvetica-Light" font-size="34.0" fill="#EAEAEA" transform="matrix(1.00, 0.00, -0.00, -1.00, 407.0, 113.0)">r</text><text xml:space="preserve" font-family="Helvetica-Light" font-size="34.0" fill="#EAEAEA" transform="matrix(1.00, 0.00, -0.00, -1.00, 417.7, 113.0)">o</text><text xml:space="preserve" font-family="Helvetica-Light" font-size="34.0" fill="#EAEAEA" transform="matrix(1.00, 0.00, -0.00, -1.00, 436.7, 113.0)">t</text><text xml:space="preserve" font-family="Helvetica-Light" font-size="34.0" fill="#EAEAEA" transform="matrix(1.00, 0.00, -0.00, -1.00, 446.1, 113.0)">o</text><text xml:space="preserve" font-family="Helvetica-Light" font-size="34.0" fill="#EAEAEA" transform="matrix(1.00, 0.00, -0.00, -1.00, 465.0, 113.0)">c</text><text xml:space="preserve" font-family="Helvetica-Light" font-size="34.0" fill="#EAEAEA" transform="matrix(1.00, 0.00, -0.00, -1.00, 483.9, 113.0)">o</text><text xml:space="preserve" font-family="Helvetica-Light" font-size="34.0" fill="#EAEAEA" transform="matrix(1.00, 0.00, -0.00, -1.00, 502.8, 113.0)">l</text><text xml:space="preserve" font-family="Helvetica-Light" font-size="34.0" fill="#EAEAEA" transform="matrix(1.00, 0.00, -0.00, -1.00, 510.4, 113.0)"> </text><text xml:space="preserve" font-family="Helvetica-Light" font-size="34.0" fill="#EAEAEA" transform="matrix(1.00, 0.00, -0.00, -1.00, 519.8, 113.0)">v</text><text xml:space="preserve" font-family="Helvetica-Light" font-size="34.0" fill="#EAEAEA" transform="matrix(1.00, 0.00, -0.00, -1.00, 536.8, 113.0)">e</text><text xml:space="preserve" font-family="Helvetica-Light" font-size="34.0" fill="#EAEAEA" transform="matrix(1.00, 0.00, -0.00, -1.00, 555.7, 113.0)">r</text><text xml:space="preserve" font-family="Helvetica-Light" font-size="34.0" fill="#EAEAEA" transform="matrix(1.00, 0.00, -0.00, -1.00, 567.0, 113.0)">s</text><text xml:space="preserve" font-family="Helvetica-Light" font-size="34.0" fill="#EAEAEA" transform="matrix(1.00, 0.00, -0.00, -1.00, 584.0, 113.0)">i</text><text xml:space="preserve" font-family="Helvetica-Light" font-size="34.0" fill="#EAEAEA" transform="matrix(1.00, 0.00, -0.00, -1.00, 591.6, 113.0)">o</text><text xml:space="preserve" font-family="Helvetica-Light" font-size="34.0" fill="#EAEAEA" transform="matrix(1.00, 0.00, -0.00, -1.00, 610.5, 113.0)">n</text><text xml:space="preserve" font-family="Helvetica-Light" font-size="34.0" fill="#EAEAEA" transform="matrix(1.00, 0.00, -0.00, -1.00, 629.4, 113.0)">i</text><text xml:space="preserve" font-family="Helvetica-Light" font-size="34.0" fill="#EAEAEA" transform="matrix(1.00, 0.00, -0.00, -1.00, 636.9, 113.0)">n</text><text xml:space="preserve" font-family="Helvetica-Light" font-size="34.0" fill="#EAEAEA" transform="matrix(1.00, 0.00, -0.00, -1.00, 655.9, 113.0)">g</text><text xml:space="preserve" font-family="Helvetica-Light" font-size="34.0" fill="#EAEAEA" transform="matrix(1.00, 0.00, -0.00, -1.00, 676.6, 113.0)">.</text><image xlink:href="../../80A0614F-B93C-4937-9167-E6D138EAFF82/assets/C700E6FB5A3769A5520845558B2E7E08.png" width="666.00" height="205.00" transform="matrix(1.00, 0.00, -0.00, -1.00, 179.0, 567.0)"></image></g></svg>